M48
;Layer_Color=9474304
;FILE_FORMAT=2:4
INCH,TZ
;TYPE=PLATED
T1F00S00C0.0100
T3F00S00C0.0315
T4F00S00C0.0327
T5F00S00C0.0350
T6F00S00C0.0354
T7F00S00C0.0402
T8F00S00C0.0433
T9F00S00C0.0551
T10F00S00C0.1969
%
T01
X29400Y6000
X29350Y7100
X29804Y7904
X30100Y8450
X30750Y7800
X32450Y7916
X32150Y9310
X31740Y10190
X31750Y11250
X30900Y11370
X29200Y11250
X29500Y10600
X29255Y9640
X27950Y8400
X33450Y5850
Y3750
X25800Y3800
X25433Y6200
X23650
X23800Y5650
X22050Y6750
X21500Y4750
X22100Y4250
X22400Y9200
X20900Y8850
X22300Y11050
X17950Y5350
X11450Y5900
Y7700
X12200Y8200
X11950Y11050
X10750Y11450
X9550
X9500Y9863
X8900Y7700
X6050Y10200
X6450Y13352
X5600Y13400
X4200Y13250
X3350Y13300
X3330Y14240
X3050Y15650
X2200Y15800
X1300Y16100
X1100Y16700
X1600Y16900
X3330Y17000
X3730Y17550
X4350Y16500
X4600Y15250
X5950Y15350
X6730Y15510
X6500Y14850
X7034Y16300
X6200Y18300
X5850Y18950
X6500Y19300
X8400Y19500
X8470Y20000
X8810Y18780
X10450Y20800
X10150Y23600
X8350Y23150
X6300Y21250
X5050Y20850
X3350Y20900
X2800Y20750
X2350Y24850
X3350
X1730Y13367
X8820Y11940
X10950Y13350
X10650Y15400
X12700Y16750
X11650Y18900
Y21250
X12850Y20800
X13500Y20700
X14890Y20411
X14950Y21011
X15600Y21000
X15250Y21500
X15050Y22600
X13600Y22650
X13300Y24750
X14350
X15400Y24700
X16450
X17550Y24750
X17600Y23950
X17451Y22599
X17850Y21950
X17976Y21044
X17800Y19550
X18450Y18450
X19300Y20500
X19750Y21400
X20800Y21200
X21350Y21400
X22050Y22000
X22150Y22750
X21700Y23000
X22120Y23590
X21250Y24750
X18500Y25400
X19250Y23000
X19363Y22463
X22001Y20610
X21801Y19853
X24650Y18970
X25650Y18900
X25120Y21160
X25850Y24550
X23340Y16660
X15639Y19311
X15009Y19811
X14370Y18590
X14070Y13290
X27800Y18950
X32150
X33450
X34180Y17840
X32550Y22600
X32840Y24809
X31800Y27950
X30800Y28550
X28150Y28500
X27000Y28450
X27350Y30200
X26250Y30250
X25350Y30200
X24550Y31050
X23150Y30500
X23250Y28400
X23750Y28150
X24200Y28450
X25300Y28299
X26200Y28500
T03
X30150Y2200
X31150
X32150
X5500Y3100
X4500
X3500
T04
X16950Y3050
Y4050
Y5050
Y6050
Y7050
Y8050
Y9050
Y10050
Y11050
X20050
Y10050
Y9050
Y8050
Y7050
Y6050
Y5050
Y4050
Y3050
Y12050
Y13050
Y14050
Y15050
Y16050
X16950
Y15050
Y14050
Y13050
Y12050
T05
X26300Y10100
Y11100
Y12100
Y13100
T06
X4500Y6716
Y8684
T07
X23214Y20585
Y21585
Y22585
Y23585
Y24585
X24214
Y23585
Y22585
Y21585
Y20585
X28786Y20700
Y19700
X29786
X30786
Y20700
X29786
X29817Y17250
X28817
Y16250
X29817
X30817
Y17250
X31817
Y16250
X16280Y29100
Y30100
X15280
X14280
Y29100
X15280
X13280
Y30100
T08
X2350Y29100
Y30100
X3350
X4350
X5350
Y29100
X4350
X3350
X6350
Y30100
X7350
X8350
Y29100
X7350
X9350
X10350
Y30100
X9350
T09
X19700Y27209
X28817Y24050
X30786
X19700Y29178
T10
X8500Y2450
X33700Y29350
M30
