M48
;Layer_Color=9474304
;FILE_FORMAT=2:4
INCH,LZ
;TYPE=PLATED
T1F00S00C0.0100
T3F00S00C0.0315
T4F00S00C0.0327
T5F00S00C0.0350
T6F00S00C0.0354
T7F00S00C0.0402
T8F00S00C0.0433
T9F00S00C0.0551
T10F00S00C0.1969
%
T01
X065Y02545
X06495Y02655
X065404Y027354
X0657Y0279
X06635Y02725
X06805Y027366
X06775Y02876
X06734Y02964
X06735Y0307
X0665Y03082
X0648Y0307
X0651Y03005
X064855Y02909
X06355Y02785
X06905Y0253
Y0232
X0614Y02325
X061033Y02565
X05925
X0594Y0251
X05765Y0262
X0571Y0242
X0577Y0237
X05355Y0248
X056272Y0289
X057628Y0291
Y03005
X04755Y0305
X0478Y02765
X04705Y02715
Y02535
X0445Y02715
X0451Y029313
X04515Y0309
X04635
X04165Y02965
X04205Y032802
X0412Y03285
X0398Y0327
X03895Y03275
X03893Y03369
X03865Y0351
X0378Y03525
X0369Y03555
X0367Y03615
X0372Y03635
X03893Y03645
X03933Y037
X03995Y03595
X0402Y0347
X04155Y0348
X04233Y03496
X0421Y0343
X042634Y03575
X0418Y03775
X04145Y0384
X0421Y03875
X044Y03895
X04407Y03945
X04441Y03823
X04605Y04025
X04575Y04305
X04395Y0426
X0419Y0407
X04065Y0403
X03895Y04035
X0384Y0402
X03795Y0443
X03895
X03733Y032817
X04442Y03139
X04655Y0328
X04625Y03485
X0483Y0362
X04725Y03835
Y0407
X04845Y04025
X0491Y04015
X05049Y039861
X05055Y040461
X0512Y04045
X05085Y04095
X05065Y04205
X0492Y0421
X0489Y0442
X04995
X051Y04415
X05205
X05315Y0442
X0532Y0434
X053051Y042049
X05345Y0414
X053576Y040494
X0534Y039
X05405Y0379
X0549Y03995
X05535Y04085
X0564Y04065
X05695Y04085
X05765Y04145
X05775Y0422
X0573Y04245
X05772Y04304
X05685Y0442
X0541Y04485
X05485Y04245
X054963Y041913
X057601Y04006
X057401Y039303
X06025Y03842
X06125Y03835
X06072Y04061
X06145Y044
X05894Y03611
X051239Y038761
X050609Y039261
X04997Y03804
X04967Y03274
X0634Y0384
X06775
X06905
X06978Y03729
X06815Y04205
X06844Y044259
X0674Y0474
X0664Y048
X06375Y04795
X0626Y0479
X06295Y04965
X06185Y0497
X06095Y04965
X06015Y0505
X05875Y04995
X05885Y04785
X05935Y0476
X0598Y0479
X0609Y047749
X0618Y04795
T03
X06575Y02165
X06675
X06775
X0411Y02255
X0401
X0391
T04
X05255Y0225
Y0235
Y0245
Y0255
Y0265
Y0275
Y0285
Y0295
Y0305
X05565
Y0295
Y0285
Y0275
Y0265
Y0255
Y0245
Y0235
Y0225
Y0315
Y0325
Y0335
Y0345
Y0355
X05255
Y0345
Y0335
Y0325
Y0315
T05
X0619Y02955
Y03055
Y03155
Y03255
T06
X0401Y026166
Y028134
T07
X058814Y040035
Y041035
Y042035
Y043035
Y044035
X059814
Y043035
Y042035
Y041035
Y040035
X064386Y04015
Y03915
X065386
X066386
Y04015
X065386
X065417Y0367
X064417
Y0357
X065417
X066417
Y0367
X067417
Y0357
X05188Y04855
Y04955
X05088
X04988
Y04855
X05088
X04888
Y04955
T08
X03795Y04855
Y04955
X03895
X03995
X04095
Y04855
X03995
X03895
X04195
Y04955
X04295
X04395
Y04855
X04295
X04495
X04595
Y04955
X04495
T09
X0553Y046659
X064417Y0435
X066386
X0553Y048628
T10
X0441Y0219
X0693Y0488
M30
