G04*
G04 #@! TF.GenerationSoftware,Altium Limited,Altium Designer,22.0.2 (36)*
G04*
G04 Layer_Physical_Order=4*
G04 Layer_Color=16711680*
%FSLAX25Y25*%
%MOIN*%
G70*
G04*
G04 #@! TF.SameCoordinates,8DF1FA55-F0BE-4FEE-A998-D7D1BBD61996*
G04*
G04*
G04 #@! TF.FilePolarity,Positive*
G04*
G01*
G75*
%ADD15C,0.01000*%
%ADD81C,0.23622*%
%ADD82C,0.05118*%
%ADD83R,0.05118X0.05118*%
%ADD84C,0.05543*%
%ADD85C,0.08268*%
%ADD86R,0.08268X0.08268*%
%ADD87R,0.06102X0.06102*%
%ADD88C,0.06102*%
%ADD89C,0.04882*%
%ADD90R,0.04882X0.04882*%
%ADD91C,0.05394*%
%ADD92R,0.05394X0.05394*%
%ADD93R,0.08268X0.08268*%
%ADD94C,0.04921*%
%ADD95R,0.04921X0.04921*%
%ADD96C,0.06496*%
%ADD97R,0.06496X0.06496*%
%ADD98O,0.02756X0.05512*%
%ADD99C,0.03000*%
G36*
X636086Y487656D02*
X635983Y487664D01*
X635881Y487678D01*
X635780Y487697D01*
X635679Y487721D01*
X635581Y487750D01*
X635484Y487784D01*
X635388Y487824D01*
X635295Y487868D01*
X635205Y487917D01*
X635117Y487971D01*
X635032Y488029D01*
X634950Y488092D01*
X634872Y488159D01*
X634797Y488230D01*
X634726Y488305D01*
X634659Y488383D01*
X634596Y488465D01*
X634538Y488550D01*
X634484Y488638D01*
X634435Y488728D01*
X634391Y488821D01*
X634351Y488917D01*
X634317Y489014D01*
X634288Y489113D01*
X634264Y489213D01*
X634245Y489314D01*
X634231Y489416D01*
X634223Y489519D01*
X634221Y489622D01*
Y492378D01*
X634223Y492481D01*
X634231Y492584D01*
X634245Y492686D01*
X634264Y492787D01*
X634288Y492887D01*
X634317Y492986D01*
X634351Y493083D01*
X634391Y493179D01*
X634435Y493272D01*
X634484Y493362D01*
X634538Y493450D01*
X634596Y493535D01*
X634659Y493617D01*
X634726Y493695D01*
X634797Y493770D01*
X634872Y493841D01*
X634950Y493908D01*
X635032Y493970D01*
X635117Y494029D01*
X635205Y494083D01*
X635295Y494132D01*
X635388Y494176D01*
X635484Y494216D01*
X635581Y494250D01*
X635679Y494279D01*
X635780Y494303D01*
X635881Y494322D01*
X635983Y494336D01*
X636086Y494344D01*
X636189Y494347D01*
X636292Y494344D01*
X636395Y494336D01*
X636497Y494322D01*
X636598Y494303D01*
X636698Y494279D01*
X636797Y494250D01*
X636894Y494216D01*
X636990Y494176D01*
X637083Y494132D01*
X637173Y494083D01*
X637261Y494029D01*
X637346Y493970D01*
X637428Y493908D01*
X637506Y493841D01*
X637581Y493770D01*
X637652Y493695D01*
X637719Y493617D01*
X637781Y493535D01*
X637840Y493450D01*
X637894Y493362D01*
X637943Y493272D01*
X637987Y493179D01*
X638027Y493083D01*
X638061Y492986D01*
X638090Y492887D01*
X638115Y492787D01*
X638133Y492686D01*
X638147Y492584D01*
X638155Y492481D01*
X638158Y492378D01*
Y489622D01*
X638155Y489519D01*
X638147Y489416D01*
X638133Y489314D01*
X638115Y489213D01*
X638090Y489113D01*
X638061Y489014D01*
X638027Y488917D01*
X637987Y488821D01*
X637943Y488728D01*
X637894Y488638D01*
X637840Y488550D01*
X637781Y488465D01*
X637719Y488383D01*
X637652Y488305D01*
X637581Y488230D01*
X637506Y488159D01*
X637428Y488092D01*
X637346Y488029D01*
X637261Y487971D01*
X637173Y487917D01*
X637083Y487868D01*
X636990Y487824D01*
X636894Y487784D01*
X636797Y487750D01*
X636698Y487721D01*
X636598Y487697D01*
X636497Y487678D01*
X636395Y487664D01*
X636292Y487656D01*
X636189Y487653D01*
X636086Y487656D01*
D02*
G37*
G36*
X669708D02*
X669605Y487664D01*
X669503Y487678D01*
X669402Y487697D01*
X669302Y487721D01*
X669203Y487750D01*
X669106Y487784D01*
X669010Y487824D01*
X668917Y487868D01*
X668827Y487917D01*
X668739Y487971D01*
X668654Y488029D01*
X668572Y488092D01*
X668494Y488159D01*
X668419Y488230D01*
X668348Y488305D01*
X668281Y488383D01*
X668219Y488465D01*
X668160Y488550D01*
X668106Y488638D01*
X668057Y488728D01*
X668013Y488821D01*
X667973Y488917D01*
X667939Y489014D01*
X667910Y489113D01*
X667885Y489213D01*
X667867Y489314D01*
X667853Y489416D01*
X667845Y489519D01*
X667842Y489622D01*
Y492378D01*
X667845Y492481D01*
X667853Y492584D01*
X667867Y492686D01*
X667885Y492787D01*
X667910Y492887D01*
X667939Y492986D01*
X667973Y493083D01*
X668013Y493179D01*
X668057Y493272D01*
X668106Y493362D01*
X668160Y493450D01*
X668219Y493535D01*
X668281Y493617D01*
X668348Y493695D01*
X668419Y493770D01*
X668494Y493841D01*
X668572Y493908D01*
X668654Y493970D01*
X668739Y494029D01*
X668827Y494083D01*
X668917Y494132D01*
X669010Y494176D01*
X669106Y494216D01*
X669203Y494250D01*
X669302Y494279D01*
X669402Y494303D01*
X669503Y494322D01*
X669605Y494336D01*
X669708Y494344D01*
X669811Y494347D01*
X669914Y494344D01*
X670017Y494336D01*
X670119Y494322D01*
X670220Y494303D01*
X670321Y494279D01*
X670419Y494250D01*
X670516Y494216D01*
X670612Y494176D01*
X670705Y494132D01*
X670795Y494083D01*
X670883Y494029D01*
X670968Y493970D01*
X671050Y493908D01*
X671128Y493841D01*
X671203Y493770D01*
X671274Y493695D01*
X671341Y493617D01*
X671404Y493535D01*
X671462Y493450D01*
X671516Y493362D01*
X671565Y493272D01*
X671609Y493179D01*
X671649Y493083D01*
X671683Y492986D01*
X671712Y492887D01*
X671736Y492787D01*
X671755Y492686D01*
X671769Y492584D01*
X671777Y492481D01*
X671779Y492378D01*
Y489622D01*
X671777Y489519D01*
X671769Y489416D01*
X671755Y489314D01*
X671736Y489213D01*
X671712Y489113D01*
X671683Y489014D01*
X671649Y488917D01*
X671609Y488821D01*
X671565Y488728D01*
X671516Y488638D01*
X671462Y488550D01*
X671404Y488465D01*
X671341Y488383D01*
X671274Y488305D01*
X671203Y488230D01*
X671128Y488159D01*
X671050Y488092D01*
X670968Y488029D01*
X670883Y487971D01*
X670795Y487917D01*
X670705Y487868D01*
X670612Y487824D01*
X670516Y487784D01*
X670419Y487750D01*
X670321Y487721D01*
X670220Y487697D01*
X670119Y487678D01*
X670017Y487664D01*
X669914Y487656D01*
X669811Y487653D01*
X669708Y487656D01*
D02*
G37*
D15*
X491000Y401500D02*
X496886Y395614D01*
X526450Y382450D02*
X534000Y390000D01*
X521793Y382450D02*
X526450D01*
X513635Y390607D02*
X521793Y382450D01*
X509393Y383202D02*
Y388850D01*
Y383202D02*
X529461Y363134D01*
X509493Y394607D02*
X530147D01*
X508500Y393614D02*
X509493Y394607D01*
X507627Y393614D02*
X508500D01*
X506627Y392614D02*
X507627Y393614D01*
X508665Y396607D02*
X528117D01*
X504907Y398607D02*
X527288D01*
X522621Y384450D02*
X525500D01*
X514464Y392607D02*
X522621Y384450D01*
X507393Y382373D02*
Y389678D01*
Y382373D02*
X525500Y364266D01*
Y355000D02*
Y364266D01*
X507393Y389678D02*
X510322Y392607D01*
X504900Y398614D02*
X504907Y398607D01*
X523982Y401500D02*
X527423Y404941D01*
X509730Y401500D02*
X523982D01*
X509616Y401614D02*
X509730Y401500D01*
X529461Y328961D02*
Y363134D01*
X528117Y396607D02*
X531209Y399700D01*
X511150Y390607D02*
X513635D01*
X507672Y395614D02*
X508665Y396607D01*
X495365Y401614D02*
X509616D01*
X527288Y398607D02*
X530622Y401941D01*
X509393Y388850D02*
X511150Y390607D01*
X510322Y392607D02*
X514464D01*
X525500Y325000D02*
X529461Y328961D01*
X496886Y395614D02*
X507672D01*
X530147Y394607D02*
X533180Y397640D01*
X492479Y404500D02*
X495365Y401614D01*
X527800Y372200D02*
X651500D01*
X506086Y392614D02*
X506627D01*
X512393Y387607D02*
X527800Y372200D01*
X526759Y387959D02*
X532400Y393600D01*
X536200D02*
X545600Y384200D01*
X526759Y385709D02*
Y387959D01*
X532400Y393600D02*
X536200D01*
X530622Y401941D02*
X539488D01*
X545600Y384200D02*
X602500D01*
X525500Y384450D02*
X526759Y385709D01*
X398000Y327000D02*
Y327160D01*
X395959Y329201D02*
X398000Y327160D01*
X394300Y331900D02*
X395959Y330241D01*
Y329201D02*
Y330241D01*
X389350Y327500D02*
X389500D01*
X386950Y329900D02*
X389350Y327500D01*
X385572Y329900D02*
X386950D01*
X386400Y331900D02*
X394300D01*
X533500Y235100D02*
Y245757D01*
X535500Y247757D01*
Y248000D01*
X533500Y235100D02*
X556800Y211800D01*
X662800D01*
X386300Y340200D02*
X393100Y347000D01*
X407000Y356500D02*
X440000Y389500D01*
X384300Y344000D02*
X396800Y356500D01*
X393100Y347000D02*
X402000D01*
X396800Y356500D02*
X407000D01*
X402357Y333900D02*
X447357Y288900D01*
X387400Y333900D02*
X402357D01*
X386300Y335000D02*
Y340200D01*
X389300Y336900D02*
X413400D01*
X386300Y335000D02*
X387400Y333900D01*
X579800Y281500D02*
X643872D01*
X646372Y279000D01*
X569300Y292000D02*
X579800Y281500D01*
X401000Y261657D02*
X462343D01*
X470500Y253500D01*
X520999Y313900D02*
X523860Y311039D01*
X444200Y313900D02*
X520999D01*
X523860Y311039D02*
X614539D01*
X619000Y315500D01*
X420750Y342750D02*
X421000Y343000D01*
X420750Y328275D02*
Y342750D01*
X420500Y328025D02*
X420750Y328275D01*
X441183Y309118D02*
X459300Y291000D01*
X417047Y327235D02*
Y333253D01*
X435165Y309118D02*
X441183D01*
X417047Y327235D02*
X435165Y309118D01*
X447357Y288900D02*
X498700D01*
X517500Y433500D02*
X530507Y420493D01*
X517500Y433500D02*
Y451300D01*
X513400Y455400D02*
X517500Y451300D01*
X501516Y439773D02*
X502500Y440757D01*
Y479200D01*
X508800Y485500D01*
X503086Y412500D02*
X514330D01*
X501516Y414070D02*
X503086Y412500D01*
X501516Y414070D02*
Y439773D01*
X659307Y386949D02*
X663858Y391500D01*
X605866Y388234D02*
X607100Y387000D01*
X635243D02*
X635294Y386949D01*
X607100Y387000D02*
X635243D01*
X635294Y386949D02*
X659307D01*
X536861Y397640D02*
X546268Y388234D01*
X605866D01*
X444700Y443300D02*
X457500Y430500D01*
X444700Y443300D02*
Y490700D01*
X522227Y420500D02*
X525235Y417493D01*
X506500Y420500D02*
X522227D01*
X514330Y412500D02*
X515330Y411500D01*
X528750D01*
X508500Y409500D02*
X525350D01*
X489757Y404500D02*
X492479D01*
X488000Y402743D02*
X489757Y404500D01*
X488000Y392100D02*
Y402743D01*
Y392100D02*
X499700Y380400D01*
X444100Y382300D02*
X470759D01*
X471959Y383500D01*
X472500D01*
X440700Y394500D02*
X443000Y392200D01*
X423300Y366000D02*
X443000Y385700D01*
Y392200D01*
X414500Y384000D02*
Y390967D01*
X384000Y401992D02*
Y402000D01*
X386300Y351200D02*
Y399692D01*
X384000Y401992D02*
X386300Y399692D01*
Y351200D02*
X386500Y351000D01*
X389500Y375200D02*
Y403500D01*
X388300Y374000D02*
X389500Y375200D01*
X382725Y441275D02*
X392500Y431500D01*
Y375200D02*
Y431500D01*
X390300Y373000D02*
X392500Y375200D01*
X378000Y337472D02*
Y352500D01*
Y337472D02*
X385572Y329900D01*
X373300Y328169D02*
Y361659D01*
X372000Y362959D02*
Y363500D01*
Y362959D02*
X373300Y361659D01*
X582095Y410453D02*
X586448Y406100D01*
X582095Y410453D02*
Y413147D01*
X574808Y419879D02*
X575379D01*
X573929Y419000D02*
X574808Y419879D01*
X554000Y419000D02*
X573929D01*
X586448Y406100D02*
X607200D01*
X557886Y412300D02*
X560086Y414500D01*
X575257Y417500D02*
X577743D01*
X551757Y417000D02*
X574757D01*
X577743Y417500D02*
X582095Y413147D01*
X574757Y417000D02*
X575257Y417500D01*
X575379Y419879D02*
X577500Y422000D01*
X560086Y414500D02*
X576500D01*
X549629Y419129D02*
X551757Y417000D01*
X548500Y424500D02*
X554000Y419000D01*
X546613Y412300D02*
X557886D01*
X561273Y400600D02*
X576012D01*
X560130Y393800D02*
X570512D01*
X573746Y393300D02*
X574012Y393034D01*
X570512Y393800D02*
X571012Y393300D01*
X573746D01*
X541421Y417493D02*
X546613Y412300D01*
X537630Y399700D02*
X544830Y392500D01*
X548700Y399800D02*
X549000Y399500D01*
X545800Y398457D02*
Y400600D01*
X560301Y396800D02*
X575400D01*
X544830Y392500D02*
X558830D01*
X540357Y410843D02*
X548700Y402500D01*
X557173Y396500D02*
X561273Y400600D01*
X547757Y396500D02*
X557173D01*
X575400Y396800D02*
X576400Y395800D01*
X545800Y398457D02*
X547757Y396500D01*
X548700Y399800D02*
Y402500D01*
X558830Y392500D02*
X560130Y393800D01*
X558001Y394500D02*
X560301Y396800D01*
X546929Y394500D02*
X558001D01*
X539488Y401941D02*
X546929Y394500D01*
X538300Y408100D02*
X545800Y400600D01*
X526750Y408100D02*
X538300D01*
X646372Y279000D02*
X657000D01*
X525235Y417493D02*
X541421D01*
X525350Y409500D02*
X526750Y408100D01*
X529407Y410843D02*
X540357D01*
X528750Y411500D02*
X529407Y410843D01*
X527423Y404941D02*
X535759D01*
X531209Y399700D02*
X537630D01*
X533180Y397640D02*
X536861D01*
X648550Y297942D02*
X651000Y300392D01*
X648550Y290900D02*
Y297942D01*
X651000Y300392D02*
Y300500D01*
X664614Y308200D02*
X665000D01*
X648000Y307000D02*
X663414D01*
X664614Y308200D01*
X389500Y443000D02*
X398500D01*
X399500Y442000D01*
Y418033D02*
Y442000D01*
X415661Y392128D02*
Y401872D01*
X399500Y418033D02*
X415661Y401872D01*
X414500Y390967D02*
X415661Y392128D01*
X393300Y370000D02*
X400800Y377500D01*
X418000D01*
X379500Y443000D02*
X380041D01*
X381766Y441275D02*
X382725D01*
X380041Y443000D02*
X381766Y441275D01*
X594000Y241000D02*
X602500Y232500D01*
X594000Y241000D02*
Y251000D01*
X602500Y232500D02*
X614000D01*
X513400Y455400D02*
Y488000D01*
X511300Y490100D02*
X513400Y488000D01*
X493400Y490100D02*
X511300D01*
X488800Y485500D02*
X493400Y490100D01*
X662800Y211800D02*
X667500Y216500D01*
X651500Y372200D02*
X668409Y389109D01*
Y393891D01*
X666200Y396100D02*
X668409Y393891D01*
X648458Y396100D02*
X666200D01*
X643858Y391500D02*
X648458Y396100D01*
X498700Y288900D02*
X508600Y279000D01*
X528500D01*
X529500Y278000D01*
Y272000D02*
Y278000D01*
Y272000D02*
X556500Y245000D01*
X444700Y490700D02*
X449500Y495500D01*
X589400Y361100D02*
X590300Y362000D01*
X656800D01*
X658800Y364000D01*
Y373500D01*
X670409Y385109D01*
Y403291D01*
X659100Y414600D02*
X670409Y403291D01*
X593883Y414600D02*
X659100D01*
X588137Y420346D02*
X593883Y414600D01*
X559700Y292000D02*
X569300D01*
X558700Y291000D02*
X559700Y292000D01*
X459300Y291000D02*
X558700D01*
X413400Y336900D02*
X417047Y333253D01*
X645400Y320500D02*
X697800Y372900D01*
X567400Y320500D02*
X645400D01*
X565900Y319000D02*
X567400Y320500D01*
X505100Y319000D02*
X565900D01*
X496700Y327400D02*
X505100Y319000D01*
X390300Y368700D02*
X399500Y359500D01*
X390300Y368700D02*
Y373000D01*
X388300Y365500D02*
X389300Y364500D01*
X388300Y365500D02*
Y374000D01*
X677500Y287600D02*
Y292300D01*
X673400Y296400D02*
X677500Y292300D01*
X648550Y290900D02*
X663259D01*
X680500Y273659D01*
X577200Y430400D02*
X588083D01*
X588137Y430346D01*
X576400Y395800D02*
X638158D01*
X643858Y401500D01*
X384300Y334000D02*
X386400Y331900D01*
X384300Y334000D02*
Y344000D01*
X423300Y349600D02*
Y366000D01*
X439500Y426000D02*
Y485500D01*
D81*
X441000Y219000D02*
D03*
X693000Y488000D02*
D03*
D82*
X411000Y225500D02*
D03*
X401000D02*
D03*
X667500Y216500D02*
D03*
X677500D02*
D03*
D83*
X391000Y225500D02*
D03*
X657500Y216500D02*
D03*
D84*
X401000Y261657D02*
D03*
Y281343D02*
D03*
D85*
X553000Y466591D02*
D03*
X644173Y435000D02*
D03*
D86*
X553000Y486276D02*
D03*
D87*
X518800Y495500D02*
D03*
X674173Y367000D02*
D03*
X663858Y401500D02*
D03*
D88*
X518800Y485500D02*
D03*
X508800Y495500D02*
D03*
X498800D02*
D03*
X508800Y485500D02*
D03*
X498800D02*
D03*
X488800Y495500D02*
D03*
Y485500D02*
D03*
X644173Y357000D02*
D03*
Y367000D02*
D03*
X654173Y357000D02*
D03*
X664173D02*
D03*
X654173Y367000D02*
D03*
X664173D02*
D03*
X674173Y357000D02*
D03*
X643858Y391500D02*
D03*
X653858D02*
D03*
X663858D02*
D03*
X643858Y401500D02*
D03*
X653858D02*
D03*
D89*
X619000Y295500D02*
D03*
Y305500D02*
D03*
Y315500D02*
D03*
D90*
Y325500D02*
D03*
D91*
X588137Y440346D02*
D03*
X598137D02*
D03*
X588137Y430346D02*
D03*
X598137D02*
D03*
X588137Y420346D02*
D03*
X598137D02*
D03*
X588137Y410346D02*
D03*
X598137D02*
D03*
X588137Y400346D02*
D03*
D92*
X598137D02*
D03*
D93*
X663858Y435000D02*
D03*
D94*
X556500Y355000D02*
D03*
Y345000D02*
D03*
Y335000D02*
D03*
Y325000D02*
D03*
Y315000D02*
D03*
Y305000D02*
D03*
Y295000D02*
D03*
Y285000D02*
D03*
Y275000D02*
D03*
Y265000D02*
D03*
Y255000D02*
D03*
Y245000D02*
D03*
Y235000D02*
D03*
Y225000D02*
D03*
X525500D02*
D03*
Y235000D02*
D03*
Y245000D02*
D03*
Y255000D02*
D03*
Y265000D02*
D03*
Y275000D02*
D03*
Y285000D02*
D03*
Y295000D02*
D03*
Y305000D02*
D03*
Y315000D02*
D03*
Y325000D02*
D03*
Y335000D02*
D03*
Y345000D02*
D03*
D95*
Y355000D02*
D03*
D96*
X439500Y495500D02*
D03*
Y485500D02*
D03*
X409500Y495500D02*
D03*
Y485500D02*
D03*
X399500Y495500D02*
D03*
Y485500D02*
D03*
X379500Y495500D02*
D03*
X389500Y485500D02*
D03*
Y495500D02*
D03*
X419500Y485500D02*
D03*
Y495500D02*
D03*
X429500Y485500D02*
D03*
Y495500D02*
D03*
X449500Y485500D02*
D03*
X459500D02*
D03*
X449500Y495500D02*
D03*
X459500D02*
D03*
D97*
X379500Y485500D02*
D03*
D98*
X669811Y491000D02*
D03*
X636189D02*
D03*
D99*
X483000Y362000D02*
D03*
X506086Y392614D02*
D03*
X505500Y404614D02*
D03*
X512393Y387607D02*
D03*
X504900Y398614D02*
D03*
X512000Y404500D02*
D03*
X398000Y327000D02*
D03*
X389500Y327500D02*
D03*
X535500Y248000D02*
D03*
X402000Y347000D02*
D03*
X472500Y407000D02*
D03*
X460500Y402500D02*
D03*
X637500Y479500D02*
D03*
X664000Y480000D02*
D03*
X635500Y278500D02*
D03*
X649500Y265500D02*
D03*
X650000Y254500D02*
D03*
X470500Y253500D02*
D03*
Y271500D02*
D03*
X445000D02*
D03*
X478000Y276500D02*
D03*
X451500Y309000D02*
D03*
X444200Y313900D02*
D03*
X475500Y305000D02*
D03*
X463500Y309000D02*
D03*
X421000Y343000D02*
D03*
X420500Y328025D02*
D03*
X412000Y328500D02*
D03*
X520500Y441500D02*
D03*
X510000D02*
D03*
X489000Y442000D02*
D03*
X499500D02*
D03*
X541000Y448500D02*
D03*
X568500Y442000D02*
D03*
X614500Y440000D02*
D03*
X681500Y420500D02*
D03*
X690500Y384000D02*
D03*
X677500D02*
D03*
X634000D02*
D03*
X612500Y383500D02*
D03*
X674000Y474000D02*
D03*
X626000Y479000D02*
D03*
X618000Y479500D02*
D03*
X629500Y496500D02*
D03*
X618500Y497000D02*
D03*
X609500Y496500D02*
D03*
X587500Y499500D02*
D03*
X601500Y505000D02*
D03*
X593500Y476000D02*
D03*
X598000Y479000D02*
D03*
X588500Y478500D02*
D03*
X457500Y430500D02*
D03*
X492000Y421000D02*
D03*
X506500Y420500D02*
D03*
X508500Y409500D02*
D03*
X484500Y402500D02*
D03*
X491000Y401500D02*
D03*
X472500Y383500D02*
D03*
X440000Y389500D02*
D03*
X419000Y407000D02*
D03*
X421000Y387500D02*
D03*
X414500Y384000D02*
D03*
X406500Y403000D02*
D03*
X384000Y402000D02*
D03*
X389500Y403500D02*
D03*
X386500Y351000D02*
D03*
X378000Y352500D02*
D03*
X372000Y363500D02*
D03*
X367000Y361500D02*
D03*
X369000Y355500D02*
D03*
X569500Y408500D02*
D03*
X576500Y414500D02*
D03*
X577500Y422000D02*
D03*
X576012Y400600D02*
D03*
X574012Y393034D02*
D03*
X564000Y406500D02*
D03*
X553500Y408500D02*
D03*
X549000Y399500D02*
D03*
X663500Y272500D02*
D03*
X654040Y273540D02*
D03*
X657000Y279000D02*
D03*
X532000Y434000D02*
D03*
X549629Y419129D02*
D03*
X548500Y424500D02*
D03*
X573000D02*
D03*
X534500Y414000D02*
D03*
X530507Y420493D02*
D03*
X535759Y404941D02*
D03*
X531500Y442000D02*
D03*
X415500Y348000D02*
D03*
X540500Y379000D02*
D03*
X534000Y390000D02*
D03*
X673500Y307000D02*
D03*
X651000Y300500D02*
D03*
X648000Y307000D02*
D03*
X389500Y443000D02*
D03*
X418000Y377500D02*
D03*
X379500Y443000D02*
D03*
X462500Y348500D02*
D03*
X465500Y328000D02*
D03*
X416500Y296500D02*
D03*
X373300Y328169D02*
D03*
X690500Y253000D02*
D03*
Y232000D02*
D03*
X594000Y251000D02*
D03*
X614000Y232500D02*
D03*
X592500Y256500D02*
D03*
X576500Y262000D02*
D03*
X571000Y242000D02*
D03*
X577000Y237000D02*
D03*
X607200Y406100D02*
D03*
X499700Y380400D02*
D03*
X589400Y361100D02*
D03*
X389300Y336900D02*
D03*
X697800Y372900D02*
D03*
X496700Y327400D02*
D03*
X602500Y384200D02*
D03*
X399500Y359500D02*
D03*
X389300Y364500D02*
D03*
X393300Y370000D02*
D03*
X665000Y308200D02*
D03*
X677500Y287600D02*
D03*
X673400Y296400D02*
D03*
X648550Y290900D02*
D03*
X680500Y273659D02*
D03*
X577200Y430400D02*
D03*
X444100Y382300D02*
D03*
X423300Y349600D02*
D03*
X440700Y394500D02*
D03*
X439500Y426000D02*
D03*
X426339Y357500D02*
D03*
X562724Y289000D02*
D03*
X610327Y256500D02*
D03*
X451000Y293130D02*
D03*
X576276Y291000D02*
D03*
Y300500D02*
D03*
X609000Y477494D02*
D03*
X684400Y442589D02*
D03*
M02*
