G04*
G04 #@! TF.GenerationSoftware,Altium Limited,Altium Designer,22.3.1 (43)*
G04*
G04 Layer_Color=12632256*
%FSLAX25Y25*%
%MOIN*%
G70*
G04*
G04 #@! TF.SameCoordinates,AA1F58D6-6309-4DF9-896B-C1726250565B*
G04*
G04*
G04 #@! TF.FilePolarity,Positive*
G04*
G01*
G75*
%ADD81C,0.23622*%
%ADD82C,0.05118*%
%ADD83R,0.05118X0.05118*%
%ADD84C,0.05543*%
%ADD85C,0.08268*%
%ADD86R,0.08268X0.08268*%
%ADD87R,0.06102X0.06102*%
%ADD88C,0.06102*%
%ADD89C,0.04882*%
%ADD90R,0.04882X0.04882*%
%ADD91C,0.05394*%
%ADD92R,0.05394X0.05394*%
%ADD93R,0.08268X0.08268*%
%ADD94C,0.04921*%
%ADD95R,0.04921X0.04921*%
%ADD96C,0.06496*%
%ADD97R,0.06496X0.06496*%
%ADD98O,0.02756X0.05512*%
D81*
X85000Y24500D02*
D03*
X337000Y293500D02*
D03*
D82*
X55000Y31000D02*
D03*
X45000D02*
D03*
X311500Y22000D02*
D03*
X321500D02*
D03*
D83*
X35000Y31000D02*
D03*
X301500Y22000D02*
D03*
D84*
X45000Y67157D02*
D03*
Y86843D02*
D03*
D85*
X197000Y272091D02*
D03*
X288173Y240500D02*
D03*
D86*
X197000Y291776D02*
D03*
D87*
X162800Y301000D02*
D03*
X318173Y172500D02*
D03*
X307858Y207000D02*
D03*
D88*
X162800Y291000D02*
D03*
X152800Y301000D02*
D03*
X142800D02*
D03*
X152800Y291000D02*
D03*
X142800D02*
D03*
X132800Y301000D02*
D03*
Y291000D02*
D03*
X288173Y162500D02*
D03*
Y172500D02*
D03*
X298173Y162500D02*
D03*
X308173D02*
D03*
X298173Y172500D02*
D03*
X308173D02*
D03*
X318173Y162500D02*
D03*
X287858Y197000D02*
D03*
X297858D02*
D03*
X307858D02*
D03*
X287858Y207000D02*
D03*
X297858D02*
D03*
D89*
X263000Y101000D02*
D03*
Y111000D02*
D03*
Y121000D02*
D03*
D90*
Y131000D02*
D03*
D91*
X232137Y245846D02*
D03*
X242137D02*
D03*
X232137Y235846D02*
D03*
X242137D02*
D03*
X232137Y225846D02*
D03*
X242137D02*
D03*
X232137Y215846D02*
D03*
X242137D02*
D03*
X232137Y205846D02*
D03*
D92*
X242137D02*
D03*
D93*
X307858Y240500D02*
D03*
D94*
X200500Y160500D02*
D03*
Y150500D02*
D03*
Y140500D02*
D03*
Y130500D02*
D03*
Y120500D02*
D03*
Y110500D02*
D03*
Y100500D02*
D03*
Y90500D02*
D03*
Y80500D02*
D03*
Y70500D02*
D03*
Y60500D02*
D03*
Y50500D02*
D03*
Y40500D02*
D03*
Y30500D02*
D03*
X169500D02*
D03*
Y40500D02*
D03*
Y50500D02*
D03*
Y60500D02*
D03*
Y70500D02*
D03*
Y80500D02*
D03*
Y90500D02*
D03*
Y100500D02*
D03*
Y110500D02*
D03*
Y120500D02*
D03*
Y130500D02*
D03*
Y140500D02*
D03*
Y150500D02*
D03*
D95*
Y160500D02*
D03*
D96*
X83500Y301000D02*
D03*
Y291000D02*
D03*
X53500Y301000D02*
D03*
Y291000D02*
D03*
X43500Y301000D02*
D03*
Y291000D02*
D03*
X23500Y301000D02*
D03*
X33500Y291000D02*
D03*
Y301000D02*
D03*
X63500Y291000D02*
D03*
Y301000D02*
D03*
X73500Y291000D02*
D03*
Y301000D02*
D03*
X93500Y291000D02*
D03*
X103500D02*
D03*
X93500Y301000D02*
D03*
X103500D02*
D03*
D97*
X23500Y291000D02*
D03*
D98*
X313811Y296500D02*
D03*
X280189D02*
D03*
M02*
