G04*
G04 #@! TF.GenerationSoftware,Altium Limited,Altium Designer,22.0.2 (36)*
G04*
G04 Layer_Color=2752767*
%FSLAX25Y25*%
%MOIN*%
G70*
G04*
G04 #@! TF.SameCoordinates,952CAA48-3728-48F0-9C98-E899784471C3*
G04*
G04*
G04 #@! TF.FilePolarity,Positive*
G04*
G01*
G75*
%ADD113C,0.00200*%
%ADD114C,0.00267*%
%ADD115C,0.00133*%
D113*
X84200Y23700D02*
Y25300D01*
X85800D01*
Y23700D01*
X84200D01*
X336200Y292700D02*
Y294300D01*
X337800D01*
Y292700D01*
X336200D01*
X45000Y66357D02*
X44200Y67957D01*
X45800D01*
X45000Y66357D01*
Y86043D02*
X44200Y87643D01*
X45800D01*
X45000Y86043D01*
X197000Y271291D02*
X197400Y271691D01*
X197800D01*
X197400Y272091D01*
X197800Y272491D01*
X197400D01*
X197000Y272891D01*
X196600Y272491D01*
X196200D01*
X196600Y272091D01*
X196200Y271691D01*
X196600D01*
X197000Y271291D01*
Y290976D02*
X197400Y291376D01*
X197800D01*
X197400Y291776D01*
X197800Y292176D01*
X197400D01*
X197000Y292576D01*
X196600Y292176D01*
X196200D01*
X196600Y291776D01*
X196200Y291376D01*
X196600D01*
X197000Y290976D01*
X162000Y300200D02*
X162400Y301000D01*
X162000Y301800D01*
X162800Y301400D01*
X163600Y301800D01*
X163200Y301000D01*
X163600Y300200D01*
X162800Y300600D01*
X162000Y300200D01*
Y290200D02*
X162400Y291000D01*
X162000Y291800D01*
X162800Y291400D01*
X163600Y291800D01*
X163200Y291000D01*
X163600Y290200D01*
X162800Y290600D01*
X162000Y290200D01*
X152000Y300200D02*
X152400Y301000D01*
X152000Y301800D01*
X152800Y301400D01*
X153600Y301800D01*
X153200Y301000D01*
X153600Y300200D01*
X152800Y300600D01*
X152000Y300200D01*
X142000D02*
X142400Y301000D01*
X142000Y301800D01*
X142800Y301400D01*
X143600Y301800D01*
X143200Y301000D01*
X143600Y300200D01*
X142800Y300600D01*
X142000Y300200D01*
X152000Y290200D02*
X152400Y291000D01*
X152000Y291800D01*
X152800Y291400D01*
X153600Y291800D01*
X153200Y291000D01*
X153600Y290200D01*
X152800Y290600D01*
X152000Y290200D01*
X142000D02*
X142400Y291000D01*
X142000Y291800D01*
X142800Y291400D01*
X143600Y291800D01*
X143200Y291000D01*
X143600Y290200D01*
X142800Y290600D01*
X142000Y290200D01*
X132000Y300200D02*
X132400Y301000D01*
X132000Y301800D01*
X132800Y301400D01*
X133600Y301800D01*
X133200Y301000D01*
X133600Y300200D01*
X132800Y300600D01*
X132000Y300200D01*
Y290200D02*
X132400Y291000D01*
X132000Y291800D01*
X132800Y291400D01*
X133600Y291800D01*
X133200Y291000D01*
X133600Y290200D01*
X132800Y290600D01*
X132000Y290200D01*
X262600Y100600D02*
Y100200D01*
X263400D01*
Y100600D01*
X263800D01*
Y101400D01*
X263400D01*
Y101800D01*
X262600D01*
Y101400D01*
X262200D01*
Y100600D01*
X262600D01*
Y110600D02*
Y110200D01*
X263400D01*
Y110600D01*
X263800D01*
Y111400D01*
X263400D01*
Y111800D01*
X262600D01*
Y111400D01*
X262200D01*
Y110600D01*
X262600D01*
Y120600D02*
Y120200D01*
X263400D01*
Y120600D01*
X263800D01*
Y121400D01*
X263400D01*
Y121800D01*
X262600D01*
Y121400D01*
X262200D01*
Y120600D01*
X262600D01*
Y130600D02*
Y130200D01*
X263400D01*
Y130600D01*
X263800D01*
Y131400D01*
X263400D01*
Y131800D01*
X262600D01*
Y131400D01*
X262200D01*
Y130600D01*
X262600D01*
X231337Y245046D02*
X231737Y245846D01*
X231337Y246646D01*
X232137Y246246D01*
X232937Y246646D01*
X232537Y245846D01*
X232937Y245046D01*
X232137Y245446D01*
X231337Y245046D01*
X241337D02*
X241737Y245846D01*
X241337Y246646D01*
X242137Y246246D01*
X242937Y246646D01*
X242537Y245846D01*
X242937Y245046D01*
X242137Y245446D01*
X241337Y245046D01*
X231337Y235046D02*
X231737Y235846D01*
X231337Y236646D01*
X232137Y236246D01*
X232937Y236646D01*
X232537Y235846D01*
X232937Y235046D01*
X232137Y235446D01*
X231337Y235046D01*
X241337D02*
X241737Y235846D01*
X241337Y236646D01*
X242137Y236246D01*
X242937Y236646D01*
X242537Y235846D01*
X242937Y235046D01*
X242137Y235446D01*
X241337Y235046D01*
X231337Y225046D02*
X231737Y225846D01*
X231337Y226646D01*
X232137Y226246D01*
X232937Y226646D01*
X232537Y225846D01*
X232937Y225046D01*
X232137Y225446D01*
X231337Y225046D01*
X241337D02*
X241737Y225846D01*
X241337Y226646D01*
X242137Y226246D01*
X242937Y226646D01*
X242537Y225846D01*
X242937Y225046D01*
X242137Y225446D01*
X241337Y225046D01*
X231337Y215046D02*
X231737Y215846D01*
X231337Y216646D01*
X232137Y216246D01*
X232937Y216646D01*
X232537Y215846D01*
X232937Y215046D01*
X232137Y215446D01*
X231337Y215046D01*
X241337D02*
X241737Y215846D01*
X241337Y216646D01*
X242137Y216246D01*
X242937Y216646D01*
X242537Y215846D01*
X242937Y215046D01*
X242137Y215446D01*
X241337Y215046D01*
X231337Y205046D02*
X231737Y205846D01*
X231337Y206646D01*
X232137Y206246D01*
X232937Y206646D01*
X232537Y205846D01*
X232937Y205046D01*
X232137Y205446D01*
X231337Y205046D01*
X241337D02*
X241737Y205846D01*
X241337Y206646D01*
X242137Y206246D01*
X242937Y206646D01*
X242537Y205846D01*
X242937Y205046D01*
X242137Y205446D01*
X241337Y205046D01*
X288173Y239700D02*
X288573Y240100D01*
X288973D01*
X288573Y240500D01*
X288973Y240900D01*
X288573D01*
X288173Y241300D01*
X287773Y240900D01*
X287373D01*
X287773Y240500D01*
X287373Y240100D01*
X287773D01*
X288173Y239700D01*
X307858D02*
X308258Y240100D01*
X308658D01*
X308258Y240500D01*
X308658Y240900D01*
X308258D01*
X307858Y241300D01*
X307458Y240900D01*
X307058D01*
X307458Y240500D01*
X307058Y240100D01*
X307458D01*
X307858Y239700D01*
X199700Y159700D02*
X200100D01*
X200500Y160100D01*
X200900Y159700D01*
X201300D01*
Y160100D01*
X200900Y160500D01*
X201300Y160900D01*
Y161300D01*
X200900D01*
X200500Y160900D01*
X200100Y161300D01*
X199700D01*
Y160900D01*
X200100Y160500D01*
X199700Y160100D01*
Y159700D01*
Y149700D02*
X200100D01*
X200500Y150100D01*
X200900Y149700D01*
X201300D01*
Y150100D01*
X200900Y150500D01*
X201300Y150900D01*
Y151300D01*
X200900D01*
X200500Y150900D01*
X200100Y151300D01*
X199700D01*
Y150900D01*
X200100Y150500D01*
X199700Y150100D01*
Y149700D01*
Y139700D02*
X200100D01*
X200500Y140100D01*
X200900Y139700D01*
X201300D01*
Y140100D01*
X200900Y140500D01*
X201300Y140900D01*
Y141300D01*
X200900D01*
X200500Y140900D01*
X200100Y141300D01*
X199700D01*
Y140900D01*
X200100Y140500D01*
X199700Y140100D01*
Y139700D01*
Y129700D02*
X200100D01*
X200500Y130100D01*
X200900Y129700D01*
X201300D01*
Y130100D01*
X200900Y130500D01*
X201300Y130900D01*
Y131300D01*
X200900D01*
X200500Y130900D01*
X200100Y131300D01*
X199700D01*
Y130900D01*
X200100Y130500D01*
X199700Y130100D01*
Y129700D01*
Y119700D02*
X200100D01*
X200500Y120100D01*
X200900Y119700D01*
X201300D01*
Y120100D01*
X200900Y120500D01*
X201300Y120900D01*
Y121300D01*
X200900D01*
X200500Y120900D01*
X200100Y121300D01*
X199700D01*
Y120900D01*
X200100Y120500D01*
X199700Y120100D01*
Y119700D01*
Y109700D02*
X200100D01*
X200500Y110100D01*
X200900Y109700D01*
X201300D01*
Y110100D01*
X200900Y110500D01*
X201300Y110900D01*
Y111300D01*
X200900D01*
X200500Y110900D01*
X200100Y111300D01*
X199700D01*
Y110900D01*
X200100Y110500D01*
X199700Y110100D01*
Y109700D01*
Y99700D02*
X200100D01*
X200500Y100100D01*
X200900Y99700D01*
X201300D01*
Y100100D01*
X200900Y100500D01*
X201300Y100900D01*
Y101300D01*
X200900D01*
X200500Y100900D01*
X200100Y101300D01*
X199700D01*
Y100900D01*
X200100Y100500D01*
X199700Y100100D01*
Y99700D01*
Y89700D02*
X200100D01*
X200500Y90100D01*
X200900Y89700D01*
X201300D01*
Y90100D01*
X200900Y90500D01*
X201300Y90900D01*
Y91300D01*
X200900D01*
X200500Y90900D01*
X200100Y91300D01*
X199700D01*
Y90900D01*
X200100Y90500D01*
X199700Y90100D01*
Y89700D01*
Y79700D02*
X200100D01*
X200500Y80100D01*
X200900Y79700D01*
X201300D01*
Y80100D01*
X200900Y80500D01*
X201300Y80900D01*
Y81300D01*
X200900D01*
X200500Y80900D01*
X200100Y81300D01*
X199700D01*
Y80900D01*
X200100Y80500D01*
X199700Y80100D01*
Y79700D01*
Y69700D02*
X200100D01*
X200500Y70100D01*
X200900Y69700D01*
X201300D01*
Y70100D01*
X200900Y70500D01*
X201300Y70900D01*
Y71300D01*
X200900D01*
X200500Y70900D01*
X200100Y71300D01*
X199700D01*
Y70900D01*
X200100Y70500D01*
X199700Y70100D01*
Y69700D01*
Y59700D02*
X200100D01*
X200500Y60100D01*
X200900Y59700D01*
X201300D01*
Y60100D01*
X200900Y60500D01*
X201300Y60900D01*
Y61300D01*
X200900D01*
X200500Y60900D01*
X200100Y61300D01*
X199700D01*
Y60900D01*
X200100Y60500D01*
X199700Y60100D01*
Y59700D01*
Y49700D02*
X200100D01*
X200500Y50100D01*
X200900Y49700D01*
X201300D01*
Y50100D01*
X200900Y50500D01*
X201300Y50900D01*
Y51300D01*
X200900D01*
X200500Y50900D01*
X200100Y51300D01*
X199700D01*
Y50900D01*
X200100Y50500D01*
X199700Y50100D01*
Y49700D01*
Y39700D02*
X200100D01*
X200500Y40100D01*
X200900Y39700D01*
X201300D01*
Y40100D01*
X200900Y40500D01*
X201300Y40900D01*
Y41300D01*
X200900D01*
X200500Y40900D01*
X200100Y41300D01*
X199700D01*
Y40900D01*
X200100Y40500D01*
X199700Y40100D01*
Y39700D01*
Y29700D02*
X200100D01*
X200500Y30100D01*
X200900Y29700D01*
X201300D01*
Y30100D01*
X200900Y30500D01*
X201300Y30900D01*
Y31300D01*
X200900D01*
X200500Y30900D01*
X200100Y31300D01*
X199700D01*
Y30900D01*
X200100Y30500D01*
X199700Y30100D01*
Y29700D01*
X168700D02*
X169100D01*
X169500Y30100D01*
X169900Y29700D01*
X170300D01*
Y30100D01*
X169900Y30500D01*
X170300Y30900D01*
Y31300D01*
X169900D01*
X169500Y30900D01*
X169100Y31300D01*
X168700D01*
Y30900D01*
X169100Y30500D01*
X168700Y30100D01*
Y29700D01*
Y39700D02*
X169100D01*
X169500Y40100D01*
X169900Y39700D01*
X170300D01*
Y40100D01*
X169900Y40500D01*
X170300Y40900D01*
Y41300D01*
X169900D01*
X169500Y40900D01*
X169100Y41300D01*
X168700D01*
Y40900D01*
X169100Y40500D01*
X168700Y40100D01*
Y39700D01*
Y49700D02*
X169100D01*
X169500Y50100D01*
X169900Y49700D01*
X170300D01*
Y50100D01*
X169900Y50500D01*
X170300Y50900D01*
Y51300D01*
X169900D01*
X169500Y50900D01*
X169100Y51300D01*
X168700D01*
Y50900D01*
X169100Y50500D01*
X168700Y50100D01*
Y49700D01*
Y59700D02*
X169100D01*
X169500Y60100D01*
X169900Y59700D01*
X170300D01*
Y60100D01*
X169900Y60500D01*
X170300Y60900D01*
Y61300D01*
X169900D01*
X169500Y60900D01*
X169100Y61300D01*
X168700D01*
Y60900D01*
X169100Y60500D01*
X168700Y60100D01*
Y59700D01*
Y69700D02*
X169100D01*
X169500Y70100D01*
X169900Y69700D01*
X170300D01*
Y70100D01*
X169900Y70500D01*
X170300Y70900D01*
Y71300D01*
X169900D01*
X169500Y70900D01*
X169100Y71300D01*
X168700D01*
Y70900D01*
X169100Y70500D01*
X168700Y70100D01*
Y69700D01*
Y79700D02*
X169100D01*
X169500Y80100D01*
X169900Y79700D01*
X170300D01*
Y80100D01*
X169900Y80500D01*
X170300Y80900D01*
Y81300D01*
X169900D01*
X169500Y80900D01*
X169100Y81300D01*
X168700D01*
Y80900D01*
X169100Y80500D01*
X168700Y80100D01*
Y79700D01*
Y89700D02*
X169100D01*
X169500Y90100D01*
X169900Y89700D01*
X170300D01*
Y90100D01*
X169900Y90500D01*
X170300Y90900D01*
Y91300D01*
X169900D01*
X169500Y90900D01*
X169100Y91300D01*
X168700D01*
Y90900D01*
X169100Y90500D01*
X168700Y90100D01*
Y89700D01*
Y99700D02*
X169100D01*
X169500Y100100D01*
X169900Y99700D01*
X170300D01*
Y100100D01*
X169900Y100500D01*
X170300Y100900D01*
Y101300D01*
X169900D01*
X169500Y100900D01*
X169100Y101300D01*
X168700D01*
Y100900D01*
X169100Y100500D01*
X168700Y100100D01*
Y99700D01*
Y109700D02*
X169100D01*
X169500Y110100D01*
X169900Y109700D01*
X170300D01*
Y110100D01*
X169900Y110500D01*
X170300Y110900D01*
Y111300D01*
X169900D01*
X169500Y110900D01*
X169100Y111300D01*
X168700D01*
Y110900D01*
X169100Y110500D01*
X168700Y110100D01*
Y109700D01*
Y119700D02*
X169100D01*
X169500Y120100D01*
X169900Y119700D01*
X170300D01*
Y120100D01*
X169900Y120500D01*
X170300Y120900D01*
Y121300D01*
X169900D01*
X169500Y120900D01*
X169100Y121300D01*
X168700D01*
Y120900D01*
X169100Y120500D01*
X168700Y120100D01*
Y119700D01*
Y129700D02*
X169100D01*
X169500Y130100D01*
X169900Y129700D01*
X170300D01*
Y130100D01*
X169900Y130500D01*
X170300Y130900D01*
Y131300D01*
X169900D01*
X169500Y130900D01*
X169100Y131300D01*
X168700D01*
Y130900D01*
X169100Y130500D01*
X168700Y130100D01*
Y129700D01*
Y139700D02*
X169100D01*
X169500Y140100D01*
X169900Y139700D01*
X170300D01*
Y140100D01*
X169900Y140500D01*
X170300Y140900D01*
Y141300D01*
X169900D01*
X169500Y140900D01*
X169100Y141300D01*
X168700D01*
Y140900D01*
X169100Y140500D01*
X168700Y140100D01*
Y139700D01*
Y149700D02*
X169100D01*
X169500Y150100D01*
X169900Y149700D01*
X170300D01*
Y150100D01*
X169900Y150500D01*
X170300Y150900D01*
Y151300D01*
X169900D01*
X169500Y150900D01*
X169100Y151300D01*
X168700D01*
Y150900D01*
X169100Y150500D01*
X168700Y150100D01*
Y149700D01*
Y159700D02*
X169100D01*
X169500Y160100D01*
X169900Y159700D01*
X170300D01*
Y160100D01*
X169900Y160500D01*
X170300Y160900D01*
Y161300D01*
X169900D01*
X169500Y160900D01*
X169100Y161300D01*
X168700D01*
Y160900D01*
X169100Y160500D01*
X168700Y160100D01*
Y159700D01*
X82700Y301000D02*
X83500Y301800D01*
X84300Y301000D01*
X83500Y300200D01*
X82700Y301000D01*
Y291000D02*
X83500Y291800D01*
X84300Y291000D01*
X83500Y290200D01*
X82700Y291000D01*
X52700Y301000D02*
X53500Y301800D01*
X54300Y301000D01*
X53500Y300200D01*
X52700Y301000D01*
Y291000D02*
X53500Y291800D01*
X54300Y291000D01*
X53500Y290200D01*
X52700Y291000D01*
X42700Y301000D02*
X43500Y301800D01*
X44300Y301000D01*
X43500Y300200D01*
X42700Y301000D01*
Y291000D02*
X43500Y291800D01*
X44300Y291000D01*
X43500Y290200D01*
X42700Y291000D01*
X22700D02*
X23500Y291800D01*
X24300Y291000D01*
X23500Y290200D01*
X22700Y291000D01*
Y301000D02*
X23500Y301800D01*
X24300Y301000D01*
X23500Y300200D01*
X22700Y301000D01*
X32700Y291000D02*
X33500Y291800D01*
X34300Y291000D01*
X33500Y290200D01*
X32700Y291000D01*
Y301000D02*
X33500Y301800D01*
X34300Y301000D01*
X33500Y300200D01*
X32700Y301000D01*
X62700Y291000D02*
X63500Y291800D01*
X64300Y291000D01*
X63500Y290200D01*
X62700Y291000D01*
Y301000D02*
X63500Y301800D01*
X64300Y301000D01*
X63500Y300200D01*
X62700Y301000D01*
X72700Y291000D02*
X73500Y291800D01*
X74300Y291000D01*
X73500Y290200D01*
X72700Y291000D01*
Y301000D02*
X73500Y301800D01*
X74300Y301000D01*
X73500Y300200D01*
X72700Y301000D01*
X92700Y291000D02*
X93500Y291800D01*
X94300Y291000D01*
X93500Y290200D01*
X92700Y291000D01*
X102700D02*
X103500Y291800D01*
X104300Y291000D01*
X103500Y290200D01*
X102700Y291000D01*
X92700Y301000D02*
X93500Y301800D01*
X94300Y301000D01*
X93500Y300200D01*
X92700Y301000D01*
X102700D02*
X103500Y301800D01*
X104300Y301000D01*
X103500Y300200D01*
X102700Y301000D01*
X313011Y295700D02*
Y297300D01*
X314611D01*
Y295700D01*
X313011D01*
X313411Y296100D02*
Y296900D01*
X314211D01*
Y296100D01*
X313411D01*
X279389Y295700D02*
Y297300D01*
X280989D01*
Y295700D01*
X279389D01*
X279789Y296100D02*
Y296900D01*
X280589D01*
Y296100D01*
X279789D01*
X287373Y161700D02*
X287773Y162500D01*
X287373Y163300D01*
X288173Y162900D01*
X288973Y163300D01*
X288573Y162500D01*
X288973Y161700D01*
X288173Y162100D01*
X287373Y161700D01*
Y171700D02*
X287773Y172500D01*
X287373Y173300D01*
X288173Y172900D01*
X288973Y173300D01*
X288573Y172500D01*
X288973Y171700D01*
X288173Y172100D01*
X287373Y171700D01*
X297373Y161700D02*
X297773Y162500D01*
X297373Y163300D01*
X298173Y162900D01*
X298973Y163300D01*
X298573Y162500D01*
X298973Y161700D01*
X298173Y162100D01*
X297373Y161700D01*
X307373D02*
X307773Y162500D01*
X307373Y163300D01*
X308173Y162900D01*
X308973Y163300D01*
X308573Y162500D01*
X308973Y161700D01*
X308173Y162100D01*
X307373Y161700D01*
X297373Y171700D02*
X297773Y172500D01*
X297373Y173300D01*
X298173Y172900D01*
X298973Y173300D01*
X298573Y172500D01*
X298973Y171700D01*
X298173Y172100D01*
X297373Y171700D01*
X307373D02*
X307773Y172500D01*
X307373Y173300D01*
X308173Y172900D01*
X308973Y173300D01*
X308573Y172500D01*
X308973Y171700D01*
X308173Y172100D01*
X307373Y171700D01*
X317373Y161700D02*
X317773Y162500D01*
X317373Y163300D01*
X318173Y162900D01*
X318973Y163300D01*
X318573Y162500D01*
X318973Y161700D01*
X318173Y162100D01*
X317373Y161700D01*
Y171700D02*
X317773Y172500D01*
X317373Y173300D01*
X318173Y172900D01*
X318973Y173300D01*
X318573Y172500D01*
X318973Y171700D01*
X318173Y172100D01*
X317373Y171700D01*
X287058Y196200D02*
X287458Y197000D01*
X287058Y197800D01*
X287858Y197400D01*
X288658Y197800D01*
X288258Y197000D01*
X288658Y196200D01*
X287858Y196600D01*
X287058Y196200D01*
X297058D02*
X297458Y197000D01*
X297058Y197800D01*
X297858Y197400D01*
X298658Y197800D01*
X298258Y197000D01*
X298658Y196200D01*
X297858Y196600D01*
X297058Y196200D01*
X307058D02*
X307458Y197000D01*
X307058Y197800D01*
X307858Y197400D01*
X308658Y197800D01*
X308258Y197000D01*
X308658Y196200D01*
X307858Y196600D01*
X307058Y196200D01*
X287058Y206200D02*
X287458Y207000D01*
X287058Y207800D01*
X287858Y207400D01*
X288658Y207800D01*
X288258Y207000D01*
X288658Y206200D01*
X287858Y206600D01*
X287058Y206200D01*
X297058D02*
X297458Y207000D01*
X297058Y207800D01*
X297858Y207400D01*
X298658Y207800D01*
X298258Y207000D01*
X298658Y206200D01*
X297858Y206600D01*
X297058Y206200D01*
X307058D02*
X307458Y207000D01*
X307058Y207800D01*
X307858Y207400D01*
X308658Y207800D01*
X308258Y207000D01*
X308658Y206200D01*
X307858Y206600D01*
X307058Y206200D01*
D114*
X55800Y31000D02*
X55247Y31761D01*
X54353Y31470D01*
Y30530D01*
X55247Y30239D01*
X55800Y31000D01*
X45800D02*
X45247Y31761D01*
X44353Y31470D01*
Y30530D01*
X45247Y30239D01*
X45800Y31000D01*
X35800D02*
X35247Y31761D01*
X34353Y31470D01*
Y30530D01*
X35247Y30239D01*
X35800Y31000D01*
X302300Y22000D02*
X301747Y22761D01*
X300853Y22470D01*
Y21530D01*
X301747Y21239D01*
X302300Y22000D01*
X312300D02*
X311747Y22761D01*
X310853Y22470D01*
Y21530D01*
X311747Y21239D01*
X312300Y22000D01*
X322300D02*
X321747Y22761D01*
X320853Y22470D01*
Y21530D01*
X321747Y21239D01*
X322300Y22000D01*
X223800Y110500D02*
X223247Y111261D01*
X222353Y110970D01*
Y110030D01*
X223247Y109739D01*
X223800Y110500D01*
X224800Y92000D02*
X224247Y92761D01*
X223353Y92470D01*
Y91530D01*
X224247Y91239D01*
X224800Y92000D01*
X209800Y88500D02*
X209247Y89261D01*
X208353Y88970D01*
Y88030D01*
X209247Y87739D01*
X209800Y88500D01*
X127800Y167500D02*
X127247Y168261D01*
X126353Y167970D01*
Y167030D01*
X127247Y166739D01*
X127800Y167500D01*
X150886Y198114D02*
X150333Y198875D01*
X149439Y198584D01*
Y197644D01*
X150333Y197353D01*
X150886Y198114D01*
X150300Y210114D02*
X149747Y210875D01*
X148853Y210584D01*
Y209644D01*
X149747Y209353D01*
X150300Y210114D01*
X157193Y193107D02*
X156640Y193868D01*
X155745Y193578D01*
Y192637D01*
X156640Y192347D01*
X157193Y193107D01*
X149700Y204114D02*
X149147Y204875D01*
X148253Y204584D01*
Y203644D01*
X149147Y203353D01*
X149700Y204114D01*
X156800Y210000D02*
X156247Y210761D01*
X155353Y210470D01*
Y209530D01*
X156247Y209239D01*
X156800Y210000D01*
X42800Y132500D02*
X42247Y133261D01*
X41353Y132970D01*
Y132030D01*
X42247Y131739D01*
X42800Y132500D01*
X34300Y133000D02*
X33747Y133761D01*
X32853Y133470D01*
Y132530D01*
X33747Y132239D01*
X34300Y133000D01*
X180300Y53500D02*
X179747Y54261D01*
X178853Y53970D01*
Y53030D01*
X179747Y52739D01*
X180300Y53500D01*
X46800Y152500D02*
X46247Y153261D01*
X45353Y152970D01*
Y152030D01*
X46247Y151739D01*
X46800Y152500D01*
X117300Y212500D02*
X116747Y213261D01*
X115853Y212970D01*
Y212030D01*
X116747Y211739D01*
X117300Y212500D01*
X105300Y208000D02*
X104747Y208761D01*
X103853Y208470D01*
Y207530D01*
X104747Y207239D01*
X105300Y208000D01*
X282300Y285000D02*
X281747Y285761D01*
X280853Y285470D01*
Y284530D01*
X281747Y284239D01*
X282300Y285000D01*
X308800Y285500D02*
X308247Y286261D01*
X307353Y285970D01*
Y285030D01*
X308247Y284739D01*
X308800Y285500D01*
X280300Y84000D02*
X279747Y84761D01*
X278853Y84470D01*
Y83530D01*
X279747Y83239D01*
X280300Y84000D01*
X294300Y71000D02*
X293747Y71761D01*
X292853Y71470D01*
Y70530D01*
X293747Y70239D01*
X294300Y71000D01*
X294800Y60000D02*
X294247Y60761D01*
X293353Y60470D01*
Y59530D01*
X294247Y59239D01*
X294800Y60000D01*
X115300Y59000D02*
X114747Y59761D01*
X113853Y59470D01*
Y58530D01*
X114747Y58239D01*
X115300Y59000D01*
Y77000D02*
X114747Y77761D01*
X113853Y77470D01*
Y76530D01*
X114747Y76239D01*
X115300Y77000D01*
X89800D02*
X89247Y77761D01*
X88353Y77470D01*
Y76530D01*
X89247Y76239D01*
X89800Y77000D01*
X122800Y82000D02*
X122247Y82761D01*
X121353Y82470D01*
Y81530D01*
X122247Y81239D01*
X122800Y82000D01*
X96300Y114500D02*
X95747Y115261D01*
X94853Y114970D01*
Y114030D01*
X95747Y113739D01*
X96300Y114500D01*
X89000Y119400D02*
X88447Y120161D01*
X87553Y119870D01*
Y118930D01*
X88447Y118639D01*
X89000Y119400D01*
X120300Y110500D02*
X119747Y111261D01*
X118853Y110970D01*
Y110030D01*
X119747Y109739D01*
X120300Y110500D01*
X108300Y114500D02*
X107747Y115261D01*
X106853Y114970D01*
Y114030D01*
X107747Y113739D01*
X108300Y114500D01*
X65800Y148500D02*
X65247Y149261D01*
X64353Y148970D01*
Y148030D01*
X65247Y147739D01*
X65800Y148500D01*
X65300Y133525D02*
X64747Y134286D01*
X63853Y133995D01*
Y133055D01*
X64747Y132764D01*
X65300Y133525D01*
X56800Y134000D02*
X56247Y134761D01*
X55353Y134470D01*
Y133530D01*
X56247Y133239D01*
X56800Y134000D01*
X165300Y247000D02*
X164747Y247761D01*
X163853Y247470D01*
Y246530D01*
X164747Y246239D01*
X165300Y247000D01*
X154800D02*
X154247Y247761D01*
X153353Y247470D01*
Y246530D01*
X154247Y246239D01*
X154800Y247000D01*
X133800Y247500D02*
X133247Y248261D01*
X132353Y247970D01*
Y247030D01*
X133247Y246739D01*
X133800Y247500D01*
X144300D02*
X143747Y248261D01*
X142853Y247970D01*
Y247030D01*
X143747Y246739D01*
X144300Y247500D01*
X185800Y254000D02*
X185247Y254761D01*
X184353Y254470D01*
Y253530D01*
X185247Y253239D01*
X185800Y254000D01*
X213300Y247500D02*
X212747Y248261D01*
X211853Y247970D01*
Y247030D01*
X212747Y246739D01*
X213300Y247500D01*
X259300Y245500D02*
X258747Y246261D01*
X257853Y245970D01*
Y245030D01*
X258747Y244739D01*
X259300Y245500D01*
X326300Y226000D02*
X325747Y226761D01*
X324853Y226470D01*
Y225530D01*
X325747Y225239D01*
X326300Y226000D01*
X335300Y189500D02*
X334747Y190261D01*
X333853Y189970D01*
Y189030D01*
X334747Y188739D01*
X335300Y189500D01*
X322300D02*
X321747Y190261D01*
X320853Y189970D01*
Y189030D01*
X321747Y188739D01*
X322300Y189500D01*
X278800D02*
X278247Y190261D01*
X277353Y189970D01*
Y189030D01*
X278247Y188739D01*
X278800Y189500D01*
X257300Y189000D02*
X256747Y189761D01*
X255853Y189470D01*
Y188530D01*
X256747Y188239D01*
X257300Y189000D01*
X318800Y279500D02*
X318247Y280261D01*
X317353Y279970D01*
Y279030D01*
X318247Y278739D01*
X318800Y279500D01*
X270800Y284500D02*
X270247Y285261D01*
X269353Y284970D01*
Y284030D01*
X270247Y283739D01*
X270800Y284500D01*
X262800Y285000D02*
X262247Y285761D01*
X261353Y285470D01*
Y284530D01*
X262247Y284239D01*
X262800Y285000D01*
X274300Y302000D02*
X273747Y302761D01*
X272853Y302470D01*
Y301530D01*
X273747Y301239D01*
X274300Y302000D01*
X263300Y302500D02*
X262747Y303261D01*
X261853Y302970D01*
Y302030D01*
X262747Y301739D01*
X263300Y302500D01*
X254300Y302000D02*
X253747Y302761D01*
X252853Y302470D01*
Y301530D01*
X253747Y301239D01*
X254300Y302000D01*
X232300Y305000D02*
X231747Y305761D01*
X230853Y305470D01*
Y304530D01*
X231747Y304239D01*
X232300Y305000D01*
X246300Y310500D02*
X245747Y311261D01*
X244853Y310970D01*
Y310030D01*
X245747Y309739D01*
X246300Y310500D01*
X238300Y281500D02*
X237747Y282261D01*
X236853Y281970D01*
Y281030D01*
X237747Y280739D01*
X238300Y281500D01*
X242800Y284500D02*
X242247Y285261D01*
X241353Y284970D01*
Y284030D01*
X242247Y283739D01*
X242800Y284500D01*
X233300Y284000D02*
X232747Y284761D01*
X231853Y284470D01*
Y283530D01*
X232747Y283239D01*
X233300Y284000D01*
X102300Y236000D02*
X101747Y236761D01*
X100853Y236470D01*
Y235530D01*
X101747Y235239D01*
X102300Y236000D01*
X136800Y226500D02*
X136247Y227261D01*
X135353Y226970D01*
Y226030D01*
X136247Y225739D01*
X136800Y226500D01*
X151300Y226000D02*
X150747Y226761D01*
X149853Y226470D01*
Y225530D01*
X150747Y225239D01*
X151300Y226000D01*
X153300Y215000D02*
X152747Y215761D01*
X151853Y215470D01*
Y214530D01*
X152747Y214239D01*
X153300Y215000D01*
X129300Y208000D02*
X128747Y208761D01*
X127853Y208470D01*
Y207530D01*
X128747Y207239D01*
X129300Y208000D01*
X135800Y207000D02*
X135247Y207761D01*
X134353Y207470D01*
Y206530D01*
X135247Y206239D01*
X135800Y207000D01*
X117300Y189000D02*
X116747Y189761D01*
X115853Y189470D01*
Y188530D01*
X116747Y188239D01*
X117300Y189000D01*
X84800Y195000D02*
X84247Y195761D01*
X83353Y195470D01*
Y194530D01*
X84247Y194239D01*
X84800Y195000D01*
X63800Y212500D02*
X63247Y213261D01*
X62353Y212970D01*
Y212030D01*
X63247Y211739D01*
X63800Y212500D01*
X65800Y193000D02*
X65247Y193761D01*
X64353Y193470D01*
Y192530D01*
X65247Y192239D01*
X65800Y193000D01*
X59300Y189500D02*
X58747Y190261D01*
X57853Y189970D01*
Y189030D01*
X58747Y188739D01*
X59300Y189500D01*
X51300Y208500D02*
X50747Y209261D01*
X49853Y208970D01*
Y208030D01*
X50747Y207739D01*
X51300Y208500D01*
X28800Y207500D02*
X28247Y208261D01*
X27353Y207970D01*
Y207030D01*
X28247Y206739D01*
X28800Y207500D01*
X34300Y209000D02*
X33747Y209761D01*
X32853Y209470D01*
Y208530D01*
X33747Y208239D01*
X34300Y209000D01*
X31300Y156500D02*
X30747Y157261D01*
X29853Y156970D01*
Y156030D01*
X30747Y155739D01*
X31300Y156500D01*
X22800Y158000D02*
X22247Y158761D01*
X21353Y158470D01*
Y157530D01*
X22247Y157239D01*
X22800Y158000D01*
X16800Y169000D02*
X16247Y169761D01*
X15353Y169470D01*
Y168530D01*
X16247Y168239D01*
X16800Y169000D01*
X11800Y167000D02*
X11247Y167761D01*
X10353Y167470D01*
Y166530D01*
X11247Y166239D01*
X11800Y167000D01*
X13800Y161000D02*
X13247Y161761D01*
X12353Y161470D01*
Y160530D01*
X13247Y160239D01*
X13800Y161000D01*
X214300Y214000D02*
X213747Y214761D01*
X212853Y214470D01*
Y213530D01*
X213747Y213239D01*
X214300Y214000D01*
X221300Y220000D02*
X220747Y220761D01*
X219853Y220470D01*
Y219530D01*
X220747Y219239D01*
X221300Y220000D01*
X222300Y227500D02*
X221747Y228261D01*
X220853Y227970D01*
Y227030D01*
X221747Y226739D01*
X222300Y227500D01*
X220812Y206100D02*
X220259Y206861D01*
X219365Y206570D01*
Y205630D01*
X220259Y205339D01*
X220812Y206100D01*
X218812Y198533D02*
X218260Y199294D01*
X217365Y199004D01*
Y198063D01*
X218260Y197773D01*
X218812Y198533D01*
X208800Y212000D02*
X208247Y212761D01*
X207353Y212470D01*
Y211530D01*
X208247Y211239D01*
X208800Y212000D01*
X198300Y214000D02*
X197747Y214761D01*
X196853Y214470D01*
Y213530D01*
X197747Y213239D01*
X198300Y214000D01*
X193800Y205000D02*
X193247Y205761D01*
X192353Y205470D01*
Y204530D01*
X193247Y204239D01*
X193800Y205000D01*
X308300Y78000D02*
X307747Y78761D01*
X306853Y78470D01*
Y77530D01*
X307747Y77239D01*
X308300Y78000D01*
X298840Y79040D02*
X298287Y79801D01*
X297393Y79510D01*
Y78570D01*
X298287Y78279D01*
X298840Y79040D01*
X301800Y84500D02*
X301247Y85261D01*
X300353Y84970D01*
Y84030D01*
X301247Y83739D01*
X301800Y84500D01*
X176800Y239500D02*
X176247Y240261D01*
X175353Y239970D01*
Y239030D01*
X176247Y238739D01*
X176800Y239500D01*
X194429Y224629D02*
X193876Y225390D01*
X192982Y225099D01*
Y224158D01*
X193876Y223868D01*
X194429Y224629D01*
X193300Y230000D02*
X192747Y230761D01*
X191853Y230470D01*
Y229530D01*
X192747Y229239D01*
X193300Y230000D01*
X217800D02*
X217247Y230761D01*
X216353Y230470D01*
Y229530D01*
X217247Y229239D01*
X217800Y230000D01*
X179300Y219500D02*
X178747Y220261D01*
X177853Y219970D01*
Y219030D01*
X178747Y218739D01*
X179300Y219500D01*
X175307Y225993D02*
X174755Y226753D01*
X173860Y226463D01*
Y225522D01*
X174755Y225232D01*
X175307Y225993D01*
X180559Y210441D02*
X180006Y211202D01*
X179112Y210911D01*
Y209971D01*
X180006Y209680D01*
X180559Y210441D01*
X176300Y247500D02*
X175747Y248261D01*
X174853Y247970D01*
Y247030D01*
X175747Y246739D01*
X176300Y247500D01*
X60300Y153500D02*
X59747Y154261D01*
X58853Y153970D01*
Y153030D01*
X59747Y152739D01*
X60300Y153500D01*
X185300Y184500D02*
X184747Y185261D01*
X183853Y184970D01*
Y184030D01*
X184747Y183739D01*
X185300Y184500D01*
X178800Y195500D02*
X178247Y196261D01*
X177353Y195970D01*
Y195030D01*
X178247Y194739D01*
X178800Y195500D01*
X318300Y112500D02*
X317747Y113261D01*
X316853Y112970D01*
Y112030D01*
X317747Y111739D01*
X318300Y112500D01*
X295800Y106000D02*
X295247Y106761D01*
X294353Y106470D01*
Y105530D01*
X295247Y105239D01*
X295800Y106000D01*
X292800Y112500D02*
X292247Y113261D01*
X291353Y112970D01*
Y112030D01*
X292247Y111739D01*
X292800Y112500D01*
X34300Y248500D02*
X33747Y249261D01*
X32853Y248970D01*
Y248030D01*
X33747Y247739D01*
X34300Y248500D01*
X62800Y183000D02*
X62247Y183761D01*
X61353Y183470D01*
Y182530D01*
X62247Y182239D01*
X62800Y183000D01*
X24300Y248500D02*
X23747Y249261D01*
X22853Y248970D01*
Y248030D01*
X23747Y247739D01*
X24300Y248500D01*
X107300Y154000D02*
X106747Y154761D01*
X105853Y154470D01*
Y153530D01*
X106747Y153239D01*
X107300Y154000D01*
X110300Y133500D02*
X109747Y134261D01*
X108853Y133970D01*
Y133030D01*
X109747Y132739D01*
X110300Y133500D01*
X61300Y102000D02*
X60747Y102761D01*
X59853Y102470D01*
Y101530D01*
X60747Y101239D01*
X61300Y102000D01*
X18100Y133669D02*
X17547Y134430D01*
X16653Y134139D01*
Y133199D01*
X17547Y132908D01*
X18100Y133669D01*
X335300Y58500D02*
X334747Y59261D01*
X333853Y58970D01*
Y58030D01*
X334747Y57739D01*
X335300Y58500D01*
Y37500D02*
X334747Y38261D01*
X333853Y37970D01*
Y37030D01*
X334747Y36739D01*
X335300Y37500D01*
X238800Y56500D02*
X238247Y57261D01*
X237353Y56970D01*
Y56030D01*
X238247Y55739D01*
X238800Y56500D01*
X258800Y38000D02*
X258247Y38761D01*
X257353Y38470D01*
Y37530D01*
X258247Y37239D01*
X258800Y38000D01*
X237300Y62000D02*
X236747Y62761D01*
X235853Y62470D01*
Y61530D01*
X236747Y61239D01*
X237300Y62000D01*
X221300Y67500D02*
X220747Y68261D01*
X219853Y67970D01*
Y67030D01*
X220747Y66739D01*
X221300Y67500D01*
X215800Y47500D02*
X215247Y48261D01*
X214353Y47970D01*
Y47030D01*
X215247Y46739D01*
X215800Y47500D01*
X221800Y42500D02*
X221247Y43261D01*
X220353Y42970D01*
Y42030D01*
X221247Y41739D01*
X221800Y42500D01*
X252000Y211600D02*
X251447Y212361D01*
X250553Y212070D01*
Y211130D01*
X251447Y210839D01*
X252000Y211600D01*
X144500Y185900D02*
X143947Y186661D01*
X143053Y186370D01*
Y185430D01*
X143947Y185139D01*
X144500Y185900D01*
X234200Y166600D02*
X233647Y167361D01*
X232753Y167070D01*
Y166130D01*
X233647Y165839D01*
X234200Y166600D01*
X34100Y142400D02*
X33547Y143161D01*
X32653Y142870D01*
Y141930D01*
X33547Y141639D01*
X34100Y142400D01*
X342600Y178400D02*
X342047Y179161D01*
X341153Y178870D01*
Y177930D01*
X342047Y177639D01*
X342600Y178400D01*
X141500Y132900D02*
X140947Y133661D01*
X140053Y133370D01*
Y132430D01*
X140947Y132139D01*
X141500Y132900D01*
X247300Y189700D02*
X246747Y190461D01*
X245853Y190170D01*
Y189230D01*
X246747Y188939D01*
X247300Y189700D01*
X44300Y165000D02*
X43747Y165761D01*
X42853Y165470D01*
Y164530D01*
X43747Y164239D01*
X44300Y165000D01*
X34100Y170000D02*
X33547Y170761D01*
X32653Y170470D01*
Y169530D01*
X33547Y169239D01*
X34100Y170000D01*
X38100Y175500D02*
X37547Y176261D01*
X36653Y175970D01*
Y175030D01*
X37547Y174739D01*
X38100Y175500D01*
X309800Y113700D02*
X309247Y114461D01*
X308353Y114170D01*
Y113230D01*
X309247Y112939D01*
X309800Y113700D01*
X322300Y93100D02*
X321747Y93861D01*
X320853Y93570D01*
Y92630D01*
X321747Y92339D01*
X322300Y93100D01*
X318200Y101900D02*
X317647Y102661D01*
X316753Y102370D01*
Y101430D01*
X317647Y101139D01*
X318200Y101900D01*
X293350Y96400D02*
X292797Y97161D01*
X291903Y96870D01*
Y95930D01*
X292797Y95639D01*
X293350Y96400D01*
X325300Y79159D02*
X324747Y79920D01*
X323853Y79629D01*
Y78689D01*
X324747Y78398D01*
X325300Y79159D01*
X222000Y235900D02*
X221447Y236661D01*
X220553Y236370D01*
Y235430D01*
X221447Y235139D01*
X222000Y235900D01*
X88900Y187800D02*
X88347Y188561D01*
X87453Y188270D01*
Y187330D01*
X88347Y187039D01*
X88900Y187800D01*
X68100Y155100D02*
X67547Y155861D01*
X66653Y155570D01*
Y154630D01*
X67547Y154339D01*
X68100Y155100D01*
X85500Y200000D02*
X84947Y200761D01*
X84053Y200470D01*
Y199530D01*
X84947Y199239D01*
X85500Y200000D01*
X84300Y231500D02*
X83747Y232261D01*
X82853Y231970D01*
Y231030D01*
X83747Y230739D01*
X84300Y231500D01*
X71139Y163000D02*
X70586Y163761D01*
X69691Y163470D01*
Y162530D01*
X70586Y162239D01*
X71139Y163000D01*
X255127Y62000D02*
X254574Y62761D01*
X253680Y62470D01*
Y61530D01*
X254574Y61239D01*
X255127Y62000D01*
X95800Y98630D02*
X95247Y99391D01*
X94353Y99100D01*
Y98160D01*
X95247Y97869D01*
X95800Y98630D01*
X253800Y282994D02*
X253247Y283755D01*
X252353Y283464D01*
Y282524D01*
X253247Y282233D01*
X253800Y282994D01*
X329200Y248089D02*
X328647Y248849D01*
X327753Y248559D01*
Y247618D01*
X328647Y247328D01*
X329200Y248089D01*
D115*
X223400Y110500D02*
X222800Y110846D01*
Y110154D01*
X223400Y110500D01*
X224400Y92000D02*
X223800Y92346D01*
Y91654D01*
X224400Y92000D01*
X209400Y88500D02*
X208800Y88846D01*
Y88154D01*
X209400Y88500D01*
X127400Y167500D02*
X126800Y167846D01*
Y167154D01*
X127400Y167500D01*
X150486Y198114D02*
X149886Y198461D01*
Y197768D01*
X150486Y198114D01*
X149900Y210114D02*
X149300Y210461D01*
Y209768D01*
X149900Y210114D01*
X156793Y193107D02*
X156193Y193454D01*
Y192761D01*
X156793Y193107D01*
X149300Y204114D02*
X148700Y204461D01*
Y203768D01*
X149300Y204114D01*
X156400Y210000D02*
X155800Y210346D01*
Y209654D01*
X156400Y210000D01*
X42400Y132500D02*
X41800Y132846D01*
Y132154D01*
X42400Y132500D01*
X33900Y133000D02*
X33300Y133346D01*
Y132654D01*
X33900Y133000D01*
X179900Y53500D02*
X179300Y53846D01*
Y53154D01*
X179900Y53500D01*
X46400Y152500D02*
X45800Y152846D01*
Y152154D01*
X46400Y152500D01*
X116900Y212500D02*
X116300Y212846D01*
Y212154D01*
X116900Y212500D01*
X104900Y208000D02*
X104300Y208346D01*
Y207654D01*
X104900Y208000D01*
X281900Y285000D02*
X281300Y285346D01*
Y284654D01*
X281900Y285000D01*
X308400Y285500D02*
X307800Y285846D01*
Y285154D01*
X308400Y285500D01*
X279900Y84000D02*
X279300Y84346D01*
Y83654D01*
X279900Y84000D01*
X293900Y71000D02*
X293300Y71346D01*
Y70654D01*
X293900Y71000D01*
X294400Y60000D02*
X293800Y60346D01*
Y59654D01*
X294400Y60000D01*
X114900Y59000D02*
X114300Y59346D01*
Y58654D01*
X114900Y59000D01*
Y77000D02*
X114300Y77346D01*
Y76654D01*
X114900Y77000D01*
X89400D02*
X88800Y77346D01*
Y76654D01*
X89400Y77000D01*
X122400Y82000D02*
X121800Y82346D01*
Y81654D01*
X122400Y82000D01*
X95900Y114500D02*
X95300Y114846D01*
Y114154D01*
X95900Y114500D01*
X88600Y119400D02*
X88000Y119746D01*
Y119054D01*
X88600Y119400D01*
X119900Y110500D02*
X119300Y110846D01*
Y110154D01*
X119900Y110500D01*
X107900Y114500D02*
X107300Y114846D01*
Y114154D01*
X107900Y114500D01*
X65400Y148500D02*
X64800Y148846D01*
Y148154D01*
X65400Y148500D01*
X64900Y133525D02*
X64300Y133871D01*
Y133178D01*
X64900Y133525D01*
X56400Y134000D02*
X55800Y134346D01*
Y133654D01*
X56400Y134000D01*
X164900Y247000D02*
X164300Y247346D01*
Y246654D01*
X164900Y247000D01*
X154400D02*
X153800Y247346D01*
Y246654D01*
X154400Y247000D01*
X133400Y247500D02*
X132800Y247846D01*
Y247154D01*
X133400Y247500D01*
X143900D02*
X143300Y247846D01*
Y247154D01*
X143900Y247500D01*
X185400Y254000D02*
X184800Y254346D01*
Y253654D01*
X185400Y254000D01*
X212900Y247500D02*
X212300Y247846D01*
Y247154D01*
X212900Y247500D01*
X258900Y245500D02*
X258300Y245846D01*
Y245154D01*
X258900Y245500D01*
X325900Y226000D02*
X325300Y226346D01*
Y225654D01*
X325900Y226000D01*
X334900Y189500D02*
X334300Y189846D01*
Y189154D01*
X334900Y189500D01*
X321900D02*
X321300Y189846D01*
Y189154D01*
X321900Y189500D01*
X278400D02*
X277800Y189846D01*
Y189154D01*
X278400Y189500D01*
X256900Y189000D02*
X256300Y189346D01*
Y188654D01*
X256900Y189000D01*
X318400Y279500D02*
X317800Y279846D01*
Y279154D01*
X318400Y279500D01*
X270400Y284500D02*
X269800Y284846D01*
Y284154D01*
X270400Y284500D01*
X262400Y285000D02*
X261800Y285346D01*
Y284654D01*
X262400Y285000D01*
X273900Y302000D02*
X273300Y302346D01*
Y301654D01*
X273900Y302000D01*
X262900Y302500D02*
X262300Y302846D01*
Y302154D01*
X262900Y302500D01*
X253900Y302000D02*
X253300Y302346D01*
Y301654D01*
X253900Y302000D01*
X231900Y305000D02*
X231300Y305346D01*
Y304654D01*
X231900Y305000D01*
X245900Y310500D02*
X245300Y310846D01*
Y310154D01*
X245900Y310500D01*
X237900Y281500D02*
X237300Y281846D01*
Y281154D01*
X237900Y281500D01*
X242400Y284500D02*
X241800Y284846D01*
Y284154D01*
X242400Y284500D01*
X232900Y284000D02*
X232300Y284346D01*
Y283654D01*
X232900Y284000D01*
X101900Y236000D02*
X101300Y236346D01*
Y235654D01*
X101900Y236000D01*
X136400Y226500D02*
X135800Y226846D01*
Y226154D01*
X136400Y226500D01*
X150900Y226000D02*
X150300Y226346D01*
Y225654D01*
X150900Y226000D01*
X152900Y215000D02*
X152300Y215346D01*
Y214654D01*
X152900Y215000D01*
X128900Y208000D02*
X128300Y208346D01*
Y207654D01*
X128900Y208000D01*
X135400Y207000D02*
X134800Y207346D01*
Y206654D01*
X135400Y207000D01*
X116900Y189000D02*
X116300Y189346D01*
Y188654D01*
X116900Y189000D01*
X84400Y195000D02*
X83800Y195346D01*
Y194654D01*
X84400Y195000D01*
X63400Y212500D02*
X62800Y212846D01*
Y212154D01*
X63400Y212500D01*
X65400Y193000D02*
X64800Y193346D01*
Y192654D01*
X65400Y193000D01*
X58900Y189500D02*
X58300Y189846D01*
Y189154D01*
X58900Y189500D01*
X50900Y208500D02*
X50300Y208846D01*
Y208154D01*
X50900Y208500D01*
X28400Y207500D02*
X27800Y207846D01*
Y207154D01*
X28400Y207500D01*
X33900Y209000D02*
X33300Y209346D01*
Y208654D01*
X33900Y209000D01*
X30900Y156500D02*
X30300Y156846D01*
Y156154D01*
X30900Y156500D01*
X22400Y158000D02*
X21800Y158346D01*
Y157654D01*
X22400Y158000D01*
X16400Y169000D02*
X15800Y169346D01*
Y168654D01*
X16400Y169000D01*
X11400Y167000D02*
X10800Y167346D01*
Y166654D01*
X11400Y167000D01*
X13400Y161000D02*
X12800Y161346D01*
Y160654D01*
X13400Y161000D01*
X213900Y214000D02*
X213300Y214346D01*
Y213654D01*
X213900Y214000D01*
X220900Y220000D02*
X220300Y220346D01*
Y219654D01*
X220900Y220000D01*
X221900Y227500D02*
X221300Y227846D01*
Y227154D01*
X221900Y227500D01*
X220412Y206100D02*
X219812Y206446D01*
Y205754D01*
X220412Y206100D01*
X218412Y198533D02*
X217812Y198880D01*
Y198187D01*
X218412Y198533D01*
X208400Y212000D02*
X207800Y212346D01*
Y211654D01*
X208400Y212000D01*
X197900Y214000D02*
X197300Y214346D01*
Y213654D01*
X197900Y214000D01*
X193400Y205000D02*
X192800Y205346D01*
Y204654D01*
X193400Y205000D01*
X307900Y78000D02*
X307300Y78346D01*
Y77654D01*
X307900Y78000D01*
X298440Y79040D02*
X297840Y79387D01*
Y78694D01*
X298440Y79040D01*
X301400Y84500D02*
X300800Y84846D01*
Y84154D01*
X301400Y84500D01*
X176400Y239500D02*
X175800Y239846D01*
Y239154D01*
X176400Y239500D01*
X194029Y224629D02*
X193429Y224975D01*
Y224282D01*
X194029Y224629D01*
X192900Y230000D02*
X192300Y230346D01*
Y229654D01*
X192900Y230000D01*
X217400D02*
X216800Y230346D01*
Y229654D01*
X217400Y230000D01*
X178900Y219500D02*
X178300Y219846D01*
Y219154D01*
X178900Y219500D01*
X174907Y225993D02*
X174307Y226339D01*
Y225646D01*
X174907Y225993D01*
X180159Y210441D02*
X179559Y210787D01*
Y210095D01*
X180159Y210441D01*
X175900Y247500D02*
X175300Y247846D01*
Y247154D01*
X175900Y247500D01*
X59900Y153500D02*
X59300Y153846D01*
Y153154D01*
X59900Y153500D01*
X184900Y184500D02*
X184300Y184846D01*
Y184154D01*
X184900Y184500D01*
X178400Y195500D02*
X177800Y195846D01*
Y195154D01*
X178400Y195500D01*
X317900Y112500D02*
X317300Y112846D01*
Y112154D01*
X317900Y112500D01*
X295400Y106000D02*
X294800Y106346D01*
Y105654D01*
X295400Y106000D01*
X292400Y112500D02*
X291800Y112846D01*
Y112154D01*
X292400Y112500D01*
X33900Y248500D02*
X33300Y248846D01*
Y248154D01*
X33900Y248500D01*
X62400Y183000D02*
X61800Y183346D01*
Y182654D01*
X62400Y183000D01*
X23900Y248500D02*
X23300Y248846D01*
Y248154D01*
X23900Y248500D01*
X106900Y154000D02*
X106300Y154346D01*
Y153654D01*
X106900Y154000D01*
X109900Y133500D02*
X109300Y133846D01*
Y133154D01*
X109900Y133500D01*
X60900Y102000D02*
X60300Y102346D01*
Y101654D01*
X60900Y102000D01*
X17700Y133669D02*
X17100Y134016D01*
Y133323D01*
X17700Y133669D01*
X334900Y58500D02*
X334300Y58846D01*
Y58154D01*
X334900Y58500D01*
Y37500D02*
X334300Y37846D01*
Y37154D01*
X334900Y37500D01*
X238400Y56500D02*
X237800Y56846D01*
Y56154D01*
X238400Y56500D01*
X258400Y38000D02*
X257800Y38346D01*
Y37654D01*
X258400Y38000D01*
X236900Y62000D02*
X236300Y62346D01*
Y61654D01*
X236900Y62000D01*
X220900Y67500D02*
X220300Y67846D01*
Y67154D01*
X220900Y67500D01*
X215400Y47500D02*
X214800Y47846D01*
Y47154D01*
X215400Y47500D01*
X221400Y42500D02*
X220800Y42846D01*
Y42154D01*
X221400Y42500D01*
X251600Y211600D02*
X251000Y211946D01*
Y211254D01*
X251600Y211600D01*
X144100Y185900D02*
X143500Y186246D01*
Y185554D01*
X144100Y185900D01*
X233800Y166600D02*
X233200Y166946D01*
Y166254D01*
X233800Y166600D01*
X33700Y142400D02*
X33100Y142746D01*
Y142054D01*
X33700Y142400D01*
X342200Y178400D02*
X341600Y178746D01*
Y178054D01*
X342200Y178400D01*
X141100Y132900D02*
X140500Y133246D01*
Y132554D01*
X141100Y132900D01*
X246900Y189700D02*
X246300Y190046D01*
Y189354D01*
X246900Y189700D01*
X43900Y165000D02*
X43300Y165346D01*
Y164654D01*
X43900Y165000D01*
X33700Y170000D02*
X33100Y170346D01*
Y169654D01*
X33700Y170000D01*
X37700Y175500D02*
X37100Y175846D01*
Y175154D01*
X37700Y175500D01*
X309400Y113700D02*
X308800Y114046D01*
Y113354D01*
X309400Y113700D01*
X321900Y93100D02*
X321300Y93446D01*
Y92754D01*
X321900Y93100D01*
X317800Y101900D02*
X317200Y102246D01*
Y101554D01*
X317800Y101900D01*
X292950Y96400D02*
X292350Y96746D01*
Y96054D01*
X292950Y96400D01*
X324900Y79159D02*
X324300Y79506D01*
Y78813D01*
X324900Y79159D01*
X221600Y235900D02*
X221000Y236246D01*
Y235554D01*
X221600Y235900D01*
X88500Y187800D02*
X87900Y188146D01*
Y187454D01*
X88500Y187800D01*
X67700Y155100D02*
X67100Y155446D01*
Y154754D01*
X67700Y155100D01*
X85100Y200000D02*
X84500Y200346D01*
Y199654D01*
X85100Y200000D01*
X83900Y231500D02*
X83300Y231846D01*
Y231154D01*
X83900Y231500D01*
X70739Y163000D02*
X70139Y163346D01*
Y162654D01*
X70739Y163000D01*
X254727Y62000D02*
X254127Y62346D01*
Y61654D01*
X254727Y62000D01*
X95400Y98630D02*
X94800Y98976D01*
Y98283D01*
X95400Y98630D01*
X253400Y282994D02*
X252800Y283341D01*
Y282648D01*
X253400Y282994D01*
X328800Y248089D02*
X328200Y248435D01*
Y247742D01*
X328800Y248089D01*
M02*
