G04*
G04 #@! TF.GenerationSoftware,Altium Limited,Altium Designer,22.0.2 (36)*
G04*
G04 Layer_Color=8388736*
%FSLAX25Y25*%
%MOIN*%
G70*
G04*
G04 #@! TF.SameCoordinates,952CAA48-3728-48F0-9C98-E899784471C3*
G04*
G04*
G04 #@! TF.FilePolarity,Positive*
G04*
G01*
G75*
%ADD10C,0.00787*%
D10*
X111055Y52504D02*
X117945D01*
Y65496D01*
X111055D02*
X117945D01*
X111055Y52504D02*
Y65496D01*
X9925Y174189D02*
Y180291D01*
X13075D01*
Y174189D02*
Y180291D01*
X9925Y174189D02*
X13075D01*
X285024Y122701D02*
Y135299D01*
X291323D01*
Y122701D02*
Y135299D01*
X285024Y122701D02*
X291323D01*
X304709D02*
Y135299D01*
X311008D01*
Y122701D02*
Y135299D01*
X304709Y122701D02*
X311008D01*
X294709D02*
Y135299D01*
X301008D01*
Y122701D02*
Y135299D01*
X294709Y122701D02*
X301008D01*
X314350D02*
Y135299D01*
X320650D01*
Y122701D02*
Y135299D01*
X314350Y122701D02*
X320650D01*
X330350Y195922D02*
Y208520D01*
X336650D01*
Y195922D02*
Y208520D01*
X330350Y195922D02*
X336650D01*
X258850Y195701D02*
Y208299D01*
X265150D01*
Y195701D02*
Y208299D01*
X258850Y195701D02*
X265150D01*
X320850Y195922D02*
Y208520D01*
X327150D01*
Y195922D02*
Y208520D01*
X320850Y195922D02*
X327150D01*
X268850Y195701D02*
Y208299D01*
X275150D01*
Y195701D02*
Y208299D01*
X268850Y195701D02*
X275150D01*
X50055Y242004D02*
Y254996D01*
X56945D01*
Y242004D02*
Y254996D01*
X50055Y242004D02*
X56945D01*
X40055Y225004D02*
Y237996D01*
X46945D01*
Y225004D02*
Y237996D01*
X40055Y225004D02*
X46945D01*
X80055D02*
Y237996D01*
X86945D01*
Y225004D02*
Y237996D01*
X80055Y225004D02*
X86945D01*
X60055Y242004D02*
Y254996D01*
X66945D01*
Y242004D02*
Y254996D01*
X60055Y242004D02*
X66945D01*
X20055Y225004D02*
Y237996D01*
X26945D01*
Y225004D02*
Y237996D01*
X20055Y225004D02*
X26945D01*
X30055D02*
Y237996D01*
X36945D01*
Y225004D02*
Y237996D01*
X30055Y225004D02*
X36945D01*
X40055Y242004D02*
X46945D01*
Y254996D01*
X40055D02*
X46945D01*
X40055Y242004D02*
Y254996D01*
X20055Y242004D02*
X26945D01*
Y254996D01*
X20055D02*
X26945D01*
X20055Y242004D02*
Y254996D01*
X30055Y242004D02*
X36945D01*
Y254996D01*
X30055D02*
X36945D01*
X30055Y242004D02*
Y254996D01*
X90055Y225004D02*
X96945D01*
Y237996D01*
X90055D02*
X96945D01*
X90055Y225004D02*
Y237996D01*
X100055Y242004D02*
X106945D01*
Y254996D01*
X100055D02*
X106945D01*
X100055Y242004D02*
Y254996D01*
X80055Y242004D02*
X86945D01*
Y254996D01*
X80055D02*
X86945D01*
X80055Y242004D02*
Y254996D01*
X70055Y242004D02*
X76945D01*
Y254996D01*
X70055D02*
X76945D01*
X70055Y242004D02*
Y254996D01*
X90055Y242004D02*
X96945D01*
Y254996D01*
X90055D02*
X96945D01*
X90055Y242004D02*
Y254996D01*
X264767Y297583D02*
X268507D01*
X264767Y290693D02*
Y297583D01*
Y290693D02*
X268507D01*
Y297583D01*
X256267D02*
X260007D01*
X256267Y290693D02*
Y297583D01*
Y290693D02*
X260007D01*
Y297583D01*
M02*
