G04*
G04 #@! TF.GenerationSoftware,Altium Limited,Altium Designer,22.0.2 (36)*
G04*
G04 Layer_Color=32768*
%FSLAX25Y25*%
%MOIN*%
G70*
G04*
G04 #@! TF.SameCoordinates,8DF1FA55-F0BE-4FEE-A998-D7D1BBD61996*
G04*
G04*
G04 #@! TF.FilePolarity,Positive*
G04*
G01*
G75*
%ADD10C,0.00787*%
D10*
X466563Y246020D02*
X474437D01*
Y260980D01*
X466563D02*
X474437D01*
X466563Y246020D02*
Y260980D01*
X364629Y366015D02*
Y377465D01*
X370371D01*
Y366015D02*
Y377465D01*
X364629Y366015D02*
X370371D01*
X640335Y316004D02*
Y330997D01*
X648012D01*
Y316004D02*
Y330997D01*
X640335Y316004D02*
X648012D01*
X660020D02*
Y330997D01*
X667697D01*
Y316004D02*
Y330997D01*
X660020Y316004D02*
X667697D01*
X650020D02*
Y330997D01*
X657697D01*
Y316004D02*
Y330997D01*
X650020Y316004D02*
X657697D01*
X669661D02*
Y330997D01*
X677339D01*
Y316004D02*
Y330997D01*
X669661Y316004D02*
X677339D01*
X685661Y389224D02*
Y404217D01*
X693339D01*
Y389224D02*
Y404217D01*
X685661Y389224D02*
X693339D01*
X614161Y389004D02*
Y403997D01*
X621839D01*
Y389004D02*
Y403997D01*
X614161Y389004D02*
X621839D01*
X676161Y389224D02*
Y404217D01*
X683839D01*
Y389224D02*
Y404217D01*
X676161Y389224D02*
X683839D01*
X624161Y389004D02*
Y403997D01*
X631839D01*
Y389004D02*
Y403997D01*
X624161Y389004D02*
X631839D01*
X405563Y435520D02*
Y450480D01*
X413437D01*
Y435520D02*
Y450480D01*
X405563Y435520D02*
X413437D01*
X395563Y418520D02*
Y433480D01*
X403437D01*
Y418520D02*
Y433480D01*
X395563Y418520D02*
X403437D01*
X435563D02*
Y433480D01*
X443437D01*
Y418520D02*
Y433480D01*
X435563Y418520D02*
X443437D01*
X415563Y435520D02*
Y450480D01*
X423437D01*
Y435520D02*
Y450480D01*
X415563Y435520D02*
X423437D01*
X375563Y418520D02*
Y433480D01*
X383437D01*
Y418520D02*
Y433480D01*
X375563Y418520D02*
X383437D01*
X385563D02*
Y433480D01*
X393437D01*
Y418520D02*
Y433480D01*
X385563Y418520D02*
X393437D01*
X395563Y435520D02*
X403437D01*
Y450480D01*
X395563D02*
X403437D01*
X395563Y435520D02*
Y450480D01*
X375563Y435520D02*
X383437D01*
Y450480D01*
X375563D02*
X383437D01*
X375563Y435520D02*
Y450480D01*
X385563Y435520D02*
X393437D01*
Y450480D01*
X385563D02*
X393437D01*
X385563Y435520D02*
Y450480D01*
X445563Y418520D02*
X453437D01*
Y433480D01*
X445563D02*
X453437D01*
X445563Y418520D02*
Y433480D01*
X455563Y435520D02*
X463437D01*
Y450480D01*
X455563D02*
X463437D01*
X455563Y435520D02*
Y450480D01*
X435563Y435520D02*
X443437D01*
Y450480D01*
X435563D02*
X443437D01*
X435563Y435520D02*
Y450480D01*
X425563Y435520D02*
X433437D01*
Y450480D01*
X425563D02*
X433437D01*
X425563Y435520D02*
Y450480D01*
X445563Y435520D02*
X453437D01*
Y450480D01*
X445563D02*
X453437D01*
X445563Y435520D02*
Y450480D01*
X620275Y493362D02*
X624999D01*
X620275Y483913D02*
Y493362D01*
Y483913D02*
X624999D01*
Y493362D01*
X611775D02*
X616499D01*
X611775Y483913D02*
Y493362D01*
Y483913D02*
X616499D01*
Y493362D01*
M02*
