G04*
G04 #@! TF.GenerationSoftware,Altium Limited,Altium Designer,22.0.2 (36)*
G04*
G04 Layer_Physical_Order=2*
G04 Layer_Color=32768*
%FSLAX25Y25*%
%MOIN*%
G70*
G04*
G04 #@! TF.SameCoordinates,952CAA48-3728-48F0-9C98-E899784471C3*
G04*
G04*
G04 #@! TF.FilePolarity,Negative*
G04*
G01*
G75*
%ADD100C,0.04000*%
%ADD101C,0.23685*%
%ADD102C,0.07150*%
%ADD103C,0.07543*%
%ADD104C,0.09512*%
%ADD105C,0.08016*%
%ADD106C,0.07504*%
%ADD107C,0.07268*%
%ADD108C,0.08331*%
%ADD109O,0.05969X0.08724*%
%ADD110C,0.05000*%
D100*
X2000Y1000D02*
Y322000D01*
X358000D01*
Y1000D02*
Y322000D01*
X2000Y1000D02*
X358000D01*
D101*
X85000Y24500D02*
D03*
X337000Y293500D02*
D03*
D102*
X55000Y31000D02*
D03*
X45000D02*
D03*
X311500Y22000D02*
D03*
X321500D02*
D03*
D103*
X45000Y67157D02*
D03*
Y86843D02*
D03*
D104*
X197000Y272091D02*
D03*
X288173Y240500D02*
D03*
X307858D02*
D03*
D105*
X152800Y301000D02*
D03*
Y291000D02*
D03*
X132800Y301000D02*
D03*
Y291000D02*
D03*
X232137Y245846D02*
D03*
X242137D02*
D03*
X232137Y235846D02*
D03*
X242137D02*
D03*
X232137Y225846D02*
D03*
X242137D02*
D03*
X232137Y215846D02*
D03*
X242137D02*
D03*
X232137Y205846D02*
D03*
X288173Y162500D02*
D03*
Y172500D02*
D03*
X298173Y162500D02*
D03*
X308173D02*
D03*
X298173Y172500D02*
D03*
X308173D02*
D03*
X318173Y162500D02*
D03*
Y172500D02*
D03*
X287858Y197000D02*
D03*
X297858D02*
D03*
X307858D02*
D03*
X287858Y207000D02*
D03*
X297858D02*
D03*
X307858D02*
D03*
D106*
X263000Y111000D02*
D03*
Y121000D02*
D03*
Y131000D02*
D03*
D107*
X200500Y160500D02*
D03*
Y150500D02*
D03*
Y140500D02*
D03*
Y130500D02*
D03*
Y120500D02*
D03*
Y110500D02*
D03*
Y100500D02*
D03*
Y90500D02*
D03*
Y70500D02*
D03*
Y60500D02*
D03*
Y50500D02*
D03*
Y40500D02*
D03*
Y30500D02*
D03*
X169500D02*
D03*
Y40500D02*
D03*
Y50500D02*
D03*
Y60500D02*
D03*
Y70500D02*
D03*
Y80500D02*
D03*
Y90500D02*
D03*
Y110500D02*
D03*
Y120500D02*
D03*
Y130500D02*
D03*
Y140500D02*
D03*
Y150500D02*
D03*
Y160500D02*
D03*
D108*
X83500Y301000D02*
D03*
Y291000D02*
D03*
X53500Y301000D02*
D03*
Y291000D02*
D03*
X43500Y301000D02*
D03*
Y291000D02*
D03*
X23500D02*
D03*
Y301000D02*
D03*
X33500Y291000D02*
D03*
Y301000D02*
D03*
X63500Y291000D02*
D03*
Y301000D02*
D03*
X73500Y291000D02*
D03*
Y301000D02*
D03*
X93500Y291000D02*
D03*
X103500D02*
D03*
X93500Y301000D02*
D03*
X103500D02*
D03*
D109*
X313811Y296500D02*
D03*
X280189D02*
D03*
D110*
X223000Y110500D02*
D03*
X224000Y92000D02*
D03*
X150086Y198114D02*
D03*
X156393Y193107D02*
D03*
X148900Y204114D02*
D03*
X156000Y210000D02*
D03*
X42000Y132500D02*
D03*
X33500Y133000D02*
D03*
X179500Y53500D02*
D03*
X46000Y152500D02*
D03*
X116500Y212500D02*
D03*
X281500Y285000D02*
D03*
X308000Y285500D02*
D03*
X114500Y59000D02*
D03*
Y77000D02*
D03*
X88200Y119400D02*
D03*
X119500Y110500D02*
D03*
X107500Y114500D02*
D03*
X65000Y148500D02*
D03*
X64500Y133525D02*
D03*
X56000Y134000D02*
D03*
X164500Y247000D02*
D03*
X154000D02*
D03*
X133000Y247500D02*
D03*
X143500D02*
D03*
X318000Y279500D02*
D03*
X270000Y284500D02*
D03*
X262000Y285000D02*
D03*
X237500Y281500D02*
D03*
X242000Y284500D02*
D03*
X232500Y284000D02*
D03*
X101500Y236000D02*
D03*
X136000Y226500D02*
D03*
X150500Y226000D02*
D03*
X152500Y215000D02*
D03*
X135000Y207000D02*
D03*
X116500Y189000D02*
D03*
X84000Y195000D02*
D03*
X63000Y212500D02*
D03*
X58500Y189500D02*
D03*
X28000Y207500D02*
D03*
X33500Y209000D02*
D03*
X30500Y156500D02*
D03*
X22000Y158000D02*
D03*
X16000Y169000D02*
D03*
X11000Y167000D02*
D03*
X13000Y161000D02*
D03*
X213500Y214000D02*
D03*
X220500Y220000D02*
D03*
X221500Y227500D02*
D03*
X220012Y206100D02*
D03*
X218012Y198533D02*
D03*
X193000Y205000D02*
D03*
X307500Y78000D02*
D03*
X298040Y79040D02*
D03*
X301000Y84500D02*
D03*
X176000Y239500D02*
D03*
X193629Y224629D02*
D03*
X192500Y230000D02*
D03*
X217000D02*
D03*
X178500Y219500D02*
D03*
X174507Y225993D02*
D03*
X179759Y210441D02*
D03*
X175500Y247500D02*
D03*
X184500Y184500D02*
D03*
X178000Y195500D02*
D03*
X317500Y112500D02*
D03*
X295000Y106000D02*
D03*
X292000Y112500D02*
D03*
X33500Y248500D02*
D03*
X62000Y183000D02*
D03*
X23500Y248500D02*
D03*
X109500Y133500D02*
D03*
X17300Y133669D02*
D03*
X334500Y37500D02*
D03*
X238000Y56500D02*
D03*
X258000Y38000D02*
D03*
X236500Y62000D02*
D03*
X220500Y67500D02*
D03*
X251200Y211600D02*
D03*
X143700Y185900D02*
D03*
X233400Y166600D02*
D03*
X33300Y142400D02*
D03*
X341800Y178400D02*
D03*
X140700Y132900D02*
D03*
X246500Y189700D02*
D03*
X43500Y165000D02*
D03*
X33300Y170000D02*
D03*
X37300Y175500D02*
D03*
X309000Y113700D02*
D03*
X321500Y93100D02*
D03*
X317400Y101900D02*
D03*
X292550Y96400D02*
D03*
X324500Y79159D02*
D03*
X221200Y235900D02*
D03*
X88100Y187800D02*
D03*
X67300Y155100D02*
D03*
X84700Y200000D02*
D03*
X83500Y231500D02*
D03*
X70339Y163000D02*
D03*
X95000Y98630D02*
D03*
X253000Y282994D02*
D03*
X328400Y248089D02*
D03*
M02*
