G04*
G04 #@! TF.GenerationSoftware,Altium Limited,Altium Designer,22.0.2 (36)*
G04*
G04 Layer_Physical_Order=3*
G04 Layer_Color=128*
%FSLAX25Y25*%
%MOIN*%
G70*
G04*
G04 #@! TF.SameCoordinates,8DF1FA55-F0BE-4FEE-A998-D7D1BBD61996*
G04*
G04*
G04 #@! TF.FilePolarity,Negative*
G04*
G01*
G75*
%ADD100C,0.04000*%
%ADD101C,0.23685*%
%ADD102C,0.07150*%
%ADD103C,0.07543*%
%ADD104C,0.09512*%
%ADD105C,0.08016*%
%ADD106C,0.07504*%
%ADD107C,0.07268*%
%ADD108C,0.08331*%
%ADD110C,0.05000*%
D100*
X358000Y195500D02*
Y516500D01*
X714000D01*
Y195500D02*
Y516500D01*
X358000Y195500D02*
X714000D01*
D101*
X441000Y219000D02*
D03*
X693000Y488000D02*
D03*
D102*
X401000Y225500D02*
D03*
X391000D02*
D03*
X657500Y216500D02*
D03*
X667500D02*
D03*
D103*
X401000Y261657D02*
D03*
D104*
X553000Y466591D02*
D03*
Y486276D02*
D03*
X644173Y435000D02*
D03*
D105*
X518800Y495500D02*
D03*
Y485500D02*
D03*
X508800Y495500D02*
D03*
X498800D02*
D03*
X508800Y485500D02*
D03*
X498800D02*
D03*
X488800Y495500D02*
D03*
Y485500D02*
D03*
X588137Y440346D02*
D03*
Y430346D02*
D03*
Y420346D02*
D03*
Y410346D02*
D03*
Y400346D02*
D03*
X598137D02*
D03*
X654173Y357000D02*
D03*
Y367000D02*
D03*
X674173Y357000D02*
D03*
Y367000D02*
D03*
X643858Y391500D02*
D03*
X663858D02*
D03*
X643858Y401500D02*
D03*
X663858D02*
D03*
D106*
X619000Y295500D02*
D03*
Y305500D02*
D03*
Y315500D02*
D03*
D107*
X556500Y355000D02*
D03*
Y345000D02*
D03*
Y335000D02*
D03*
Y325000D02*
D03*
Y315000D02*
D03*
Y305000D02*
D03*
Y285000D02*
D03*
Y275000D02*
D03*
Y265000D02*
D03*
Y255000D02*
D03*
Y245000D02*
D03*
Y235000D02*
D03*
Y225000D02*
D03*
X525500D02*
D03*
Y235000D02*
D03*
Y245000D02*
D03*
Y255000D02*
D03*
Y265000D02*
D03*
Y275000D02*
D03*
Y295000D02*
D03*
Y305000D02*
D03*
Y315000D02*
D03*
Y325000D02*
D03*
Y335000D02*
D03*
Y345000D02*
D03*
Y355000D02*
D03*
D108*
X439500Y495500D02*
D03*
Y485500D02*
D03*
X409500Y495500D02*
D03*
Y485500D02*
D03*
X399500Y495500D02*
D03*
Y485500D02*
D03*
X379500D02*
D03*
Y495500D02*
D03*
X389500Y485500D02*
D03*
Y495500D02*
D03*
X419500Y485500D02*
D03*
X429500D02*
D03*
X449500D02*
D03*
X459500D02*
D03*
X449500Y495500D02*
D03*
X459500D02*
D03*
D110*
X483000Y362000D02*
D03*
X506086Y392614D02*
D03*
X505500Y404614D02*
D03*
X512393Y387607D02*
D03*
X504900Y398614D02*
D03*
X398000Y327000D02*
D03*
X389500Y327500D02*
D03*
X535500Y248000D02*
D03*
X402000Y347000D02*
D03*
X460500Y402500D02*
D03*
X635500Y278500D02*
D03*
X649500Y265500D02*
D03*
X650000Y254500D02*
D03*
X470500Y253500D02*
D03*
X445000Y271500D02*
D03*
X478000Y276500D02*
D03*
X451500Y309000D02*
D03*
X444200Y313900D02*
D03*
X421000Y343000D02*
D03*
X420500Y328025D02*
D03*
X541000Y448500D02*
D03*
X568500Y442000D02*
D03*
X614500Y440000D02*
D03*
X681500Y420500D02*
D03*
X690500Y384000D02*
D03*
X677500D02*
D03*
X634000D02*
D03*
X612500Y383500D02*
D03*
X629500Y496500D02*
D03*
X618500Y497000D02*
D03*
X609500Y496500D02*
D03*
X587500Y499500D02*
D03*
X601500Y505000D02*
D03*
X457500Y430500D02*
D03*
X506500Y420500D02*
D03*
X508500Y409500D02*
D03*
X484500Y402500D02*
D03*
X491000Y401500D02*
D03*
X472500Y383500D02*
D03*
X440000Y389500D02*
D03*
X421000Y387500D02*
D03*
X414500Y384000D02*
D03*
X406500Y403000D02*
D03*
X384000Y402000D02*
D03*
X389500Y403500D02*
D03*
X386500Y351000D02*
D03*
X378000Y352500D02*
D03*
X372000Y363500D02*
D03*
X576500Y414500D02*
D03*
X577500Y422000D02*
D03*
X576012Y400600D02*
D03*
X574012Y393034D02*
D03*
X564000Y406500D02*
D03*
X553500Y408500D02*
D03*
X549000Y399500D02*
D03*
X657000Y279000D02*
D03*
X549629Y419129D02*
D03*
X548500Y424500D02*
D03*
X530507Y420493D02*
D03*
X535759Y404941D02*
D03*
X415500Y348000D02*
D03*
X534000Y390000D02*
D03*
X651000Y300500D02*
D03*
X648000Y307000D02*
D03*
X389500Y443000D02*
D03*
X418000Y377500D02*
D03*
X379500Y443000D02*
D03*
X462500Y348500D02*
D03*
X416500Y296500D02*
D03*
X373300Y328169D02*
D03*
X690500Y253000D02*
D03*
X594000Y251000D02*
D03*
X614000Y232500D02*
D03*
X571000Y242000D02*
D03*
X577000Y237000D02*
D03*
X607200Y406100D02*
D03*
X499700Y380400D02*
D03*
X589400Y361100D02*
D03*
X389300Y336900D02*
D03*
X697800Y372900D02*
D03*
X496700Y327400D02*
D03*
X602500Y384200D02*
D03*
X399500Y359500D02*
D03*
X389300Y364500D02*
D03*
X393300Y370000D02*
D03*
X665000Y308200D02*
D03*
X677500Y287600D02*
D03*
X673400Y296400D02*
D03*
X648550Y290900D02*
D03*
X680500Y273659D02*
D03*
X577200Y430400D02*
D03*
X444100Y382300D02*
D03*
X423300Y349600D02*
D03*
X440700Y394500D02*
D03*
X439500Y426000D02*
D03*
X562724Y289000D02*
D03*
X610327Y256500D02*
D03*
M02*
