G04*
G04 #@! TF.GenerationSoftware,Altium Limited,Altium Designer,22.0.2 (36)*
G04*
G04 Layer_Physical_Order=1*
G04 Layer_Color=255*
%FSLAX25Y25*%
%MOIN*%
G70*
G04*
G04 #@! TF.SameCoordinates,8DF1FA55-F0BE-4FEE-A998-D7D1BBD61996*
G04*
G04*
G04 #@! TF.FilePolarity,Positive*
G04*
G01*
G75*
%ADD15C,0.01000*%
G04:AMPARAMS|DCode=16|XSize=61.81mil|YSize=15.75mil|CornerRadius=1.97mil|HoleSize=0mil|Usage=FLASHONLY|Rotation=0.000|XOffset=0mil|YOffset=0mil|HoleType=Round|Shape=RoundedRectangle|*
%AMROUNDEDRECTD16*
21,1,0.06181,0.01181,0,0,0.0*
21,1,0.05787,0.01575,0,0,0.0*
1,1,0.00394,0.02894,-0.00591*
1,1,0.00394,-0.02894,-0.00591*
1,1,0.00394,-0.02894,0.00591*
1,1,0.00394,0.02894,0.00591*
%
%ADD16ROUNDEDRECTD16*%
G04:AMPARAMS|DCode=17|XSize=61.81mil|YSize=16.14mil|CornerRadius=2.02mil|HoleSize=0mil|Usage=FLASHONLY|Rotation=180.000|XOffset=0mil|YOffset=0mil|HoleType=Round|Shape=RoundedRectangle|*
%AMROUNDEDRECTD17*
21,1,0.06181,0.01211,0,0,180.0*
21,1,0.05778,0.01614,0,0,180.0*
1,1,0.00404,-0.02889,0.00605*
1,1,0.00404,0.02889,0.00605*
1,1,0.00404,0.02889,-0.00605*
1,1,0.00404,-0.02889,-0.00605*
%
%ADD17ROUNDEDRECTD17*%
G04:AMPARAMS|DCode=18|XSize=61.81mil|YSize=16.14mil|CornerRadius=2.02mil|HoleSize=0mil|Usage=FLASHONLY|Rotation=270.000|XOffset=0mil|YOffset=0mil|HoleType=Round|Shape=RoundedRectangle|*
%AMROUNDEDRECTD18*
21,1,0.06181,0.01211,0,0,270.0*
21,1,0.05778,0.01614,0,0,270.0*
1,1,0.00404,-0.00605,-0.02889*
1,1,0.00404,-0.00605,0.02889*
1,1,0.00404,0.00605,0.02889*
1,1,0.00404,0.00605,-0.02889*
%
%ADD18ROUNDEDRECTD18*%
%ADD19R,0.07087X0.04134*%
%ADD20R,0.03661X0.03740*%
%ADD21R,0.05900X0.02200*%
%ADD22R,0.06969X0.04134*%
%ADD23R,0.02992X0.05000*%
%ADD24R,0.04567X0.05787*%
%ADD25R,0.04134X0.03937*%
%ADD26R,0.04134X0.06969*%
G04:AMPARAMS|DCode=27|XSize=77.56mil|YSize=23.62mil|CornerRadius=2.95mil|HoleSize=0mil|Usage=FLASHONLY|Rotation=0.000|XOffset=0mil|YOffset=0mil|HoleType=Round|Shape=RoundedRectangle|*
%AMROUNDEDRECTD27*
21,1,0.07756,0.01772,0,0,0.0*
21,1,0.07165,0.02362,0,0,0.0*
1,1,0.00591,0.03583,-0.00886*
1,1,0.00591,-0.03583,-0.00886*
1,1,0.00591,-0.03583,0.00886*
1,1,0.00591,0.03583,0.00886*
%
%ADD27ROUNDEDRECTD27*%
%ADD28R,0.03740X0.03661*%
%ADD29R,0.03819X0.03622*%
%ADD30R,0.09331X0.13268*%
%ADD31R,0.03773X0.03961*%
%ADD32R,0.06528X0.03764*%
G04:AMPARAMS|DCode=33|XSize=77.56mil|YSize=24.02mil|CornerRadius=3mil|HoleSize=0mil|Usage=FLASHONLY|Rotation=0.000|XOffset=0mil|YOffset=0mil|HoleType=Round|Shape=RoundedRectangle|*
%AMROUNDEDRECTD33*
21,1,0.07756,0.01801,0,0,0.0*
21,1,0.07156,0.02402,0,0,0.0*
1,1,0.00600,0.03578,-0.00901*
1,1,0.00600,-0.03578,-0.00901*
1,1,0.00600,-0.03578,0.00901*
1,1,0.00600,0.03578,0.00901*
%
%ADD33ROUNDEDRECTD33*%
%ADD34R,0.03661X0.03976*%
%ADD35R,0.03543X0.02953*%
%ADD36R,0.02756X0.07874*%
%ADD37R,0.03150X0.07874*%
%ADD38R,0.03543X0.07874*%
%ADD39R,0.09449X0.07480*%
%ADD79C,0.02000*%
%ADD80C,0.01500*%
%ADD81C,0.23622*%
%ADD82C,0.05118*%
%ADD83R,0.05118X0.05118*%
%ADD84C,0.05543*%
%ADD85C,0.08268*%
%ADD86R,0.08268X0.08268*%
%ADD87R,0.06102X0.06102*%
%ADD88C,0.06102*%
%ADD89C,0.04882*%
%ADD90R,0.04882X0.04882*%
%ADD91C,0.05394*%
%ADD92R,0.05394X0.05394*%
%ADD93R,0.08268X0.08268*%
%ADD94C,0.04921*%
%ADD95R,0.04921X0.04921*%
%ADD96C,0.06496*%
%ADD97R,0.06496X0.06496*%
%ADD98O,0.02756X0.05512*%
%ADD99C,0.03000*%
G36*
X636086Y487656D02*
X635983Y487664D01*
X635881Y487678D01*
X635780Y487697D01*
X635679Y487721D01*
X635581Y487750D01*
X635484Y487784D01*
X635388Y487824D01*
X635295Y487868D01*
X635205Y487917D01*
X635117Y487971D01*
X635032Y488029D01*
X634950Y488092D01*
X634872Y488159D01*
X634797Y488230D01*
X634726Y488305D01*
X634659Y488383D01*
X634596Y488465D01*
X634538Y488550D01*
X634484Y488638D01*
X634435Y488728D01*
X634391Y488821D01*
X634351Y488917D01*
X634317Y489014D01*
X634288Y489113D01*
X634264Y489213D01*
X634245Y489314D01*
X634231Y489416D01*
X634223Y489519D01*
X634221Y489622D01*
Y492378D01*
X634223Y492481D01*
X634231Y492584D01*
X634245Y492686D01*
X634264Y492787D01*
X634288Y492887D01*
X634317Y492986D01*
X634351Y493083D01*
X634391Y493179D01*
X634435Y493272D01*
X634484Y493362D01*
X634538Y493450D01*
X634596Y493535D01*
X634659Y493617D01*
X634726Y493695D01*
X634797Y493770D01*
X634872Y493841D01*
X634950Y493908D01*
X635032Y493970D01*
X635117Y494029D01*
X635205Y494083D01*
X635295Y494132D01*
X635388Y494176D01*
X635484Y494216D01*
X635581Y494250D01*
X635679Y494279D01*
X635780Y494303D01*
X635881Y494322D01*
X635983Y494336D01*
X636086Y494344D01*
X636189Y494347D01*
X636292Y494344D01*
X636395Y494336D01*
X636497Y494322D01*
X636598Y494303D01*
X636698Y494279D01*
X636797Y494250D01*
X636894Y494216D01*
X636990Y494176D01*
X637083Y494132D01*
X637173Y494083D01*
X637261Y494029D01*
X637346Y493970D01*
X637428Y493908D01*
X637506Y493841D01*
X637581Y493770D01*
X637652Y493695D01*
X637719Y493617D01*
X637781Y493535D01*
X637840Y493450D01*
X637894Y493362D01*
X637943Y493272D01*
X637987Y493179D01*
X638027Y493083D01*
X638061Y492986D01*
X638090Y492887D01*
X638115Y492787D01*
X638133Y492686D01*
X638147Y492584D01*
X638155Y492481D01*
X638158Y492378D01*
Y489622D01*
X638155Y489519D01*
X638147Y489416D01*
X638133Y489314D01*
X638115Y489213D01*
X638090Y489113D01*
X638061Y489014D01*
X638027Y488917D01*
X637987Y488821D01*
X637943Y488728D01*
X637894Y488638D01*
X637840Y488550D01*
X637781Y488465D01*
X637719Y488383D01*
X637652Y488305D01*
X637581Y488230D01*
X637506Y488159D01*
X637428Y488092D01*
X637346Y488029D01*
X637261Y487971D01*
X637173Y487917D01*
X637083Y487868D01*
X636990Y487824D01*
X636894Y487784D01*
X636797Y487750D01*
X636698Y487721D01*
X636598Y487697D01*
X636497Y487678D01*
X636395Y487664D01*
X636292Y487656D01*
X636189Y487653D01*
X636086Y487656D01*
D02*
G37*
G36*
X669708D02*
X669605Y487664D01*
X669503Y487678D01*
X669402Y487697D01*
X669302Y487721D01*
X669203Y487750D01*
X669106Y487784D01*
X669010Y487824D01*
X668917Y487868D01*
X668827Y487917D01*
X668739Y487971D01*
X668654Y488029D01*
X668572Y488092D01*
X668494Y488159D01*
X668419Y488230D01*
X668348Y488305D01*
X668281Y488383D01*
X668219Y488465D01*
X668160Y488550D01*
X668106Y488638D01*
X668057Y488728D01*
X668013Y488821D01*
X667973Y488917D01*
X667939Y489014D01*
X667910Y489113D01*
X667885Y489213D01*
X667867Y489314D01*
X667853Y489416D01*
X667845Y489519D01*
X667842Y489622D01*
Y492378D01*
X667845Y492481D01*
X667853Y492584D01*
X667867Y492686D01*
X667885Y492787D01*
X667910Y492887D01*
X667939Y492986D01*
X667973Y493083D01*
X668013Y493179D01*
X668057Y493272D01*
X668106Y493362D01*
X668160Y493450D01*
X668219Y493535D01*
X668281Y493617D01*
X668348Y493695D01*
X668419Y493770D01*
X668494Y493841D01*
X668572Y493908D01*
X668654Y493970D01*
X668739Y494029D01*
X668827Y494083D01*
X668917Y494132D01*
X669010Y494176D01*
X669106Y494216D01*
X669203Y494250D01*
X669302Y494279D01*
X669402Y494303D01*
X669503Y494322D01*
X669605Y494336D01*
X669708Y494344D01*
X669811Y494347D01*
X669914Y494344D01*
X670017Y494336D01*
X670119Y494322D01*
X670220Y494303D01*
X670321Y494279D01*
X670419Y494250D01*
X670516Y494216D01*
X670612Y494176D01*
X670705Y494132D01*
X670795Y494083D01*
X670883Y494029D01*
X670968Y493970D01*
X671050Y493908D01*
X671128Y493841D01*
X671203Y493770D01*
X671274Y493695D01*
X671341Y493617D01*
X671404Y493535D01*
X671462Y493450D01*
X671516Y493362D01*
X671565Y493272D01*
X671609Y493179D01*
X671649Y493083D01*
X671683Y492986D01*
X671712Y492887D01*
X671736Y492787D01*
X671755Y492686D01*
X671769Y492584D01*
X671777Y492481D01*
X671779Y492378D01*
Y489622D01*
X671777Y489519D01*
X671769Y489416D01*
X671755Y489314D01*
X671736Y489213D01*
X671712Y489113D01*
X671683Y489014D01*
X671649Y488917D01*
X671609Y488821D01*
X671565Y488728D01*
X671516Y488638D01*
X671462Y488550D01*
X671404Y488465D01*
X671341Y488383D01*
X671274Y488305D01*
X671203Y488230D01*
X671128Y488159D01*
X671050Y488092D01*
X670968Y488029D01*
X670883Y487971D01*
X670795Y487917D01*
X670705Y487868D01*
X670612Y487824D01*
X670516Y487784D01*
X670419Y487750D01*
X670321Y487721D01*
X670220Y487697D01*
X670119Y487678D01*
X670017Y487664D01*
X669914Y487656D01*
X669811Y487653D01*
X669708Y487656D01*
D02*
G37*
D15*
X459243Y317500D02*
X486000Y344257D01*
X481500Y385329D02*
Y421900D01*
X486000Y344257D02*
Y380829D01*
X481500Y385329D02*
X486000Y380829D01*
X481500Y421900D02*
X489482Y429882D01*
X507214Y389500D02*
X509393Y391678D01*
Y392807D01*
X502500Y389500D02*
X507214D01*
X509393Y392807D02*
X511086Y394500D01*
X508075Y394868D02*
Y395575D01*
X506086Y392879D02*
X508075Y394868D01*
X504900Y398200D02*
Y398614D01*
X501200Y394500D02*
X504900Y398200D01*
X506086Y392614D02*
Y392879D01*
X512393Y387607D02*
X512457D01*
X514350Y389500D01*
X518800D01*
X508075Y395575D02*
X512000Y399500D01*
X507500Y384500D02*
X518800D01*
X511086Y394500D02*
X518800D01*
X526759Y387241D02*
Y389297D01*
Y387241D02*
X538500Y375500D01*
X546000D01*
X519212Y384088D02*
X525584D01*
X518800Y384500D02*
X519212Y384088D01*
X525584D02*
X535500Y374172D01*
X399709Y328168D02*
X404297D01*
X404299Y328169D01*
X398541Y327000D02*
X399709Y328168D01*
X398000Y327000D02*
X398541D01*
X394500Y324000D02*
X398000Y320500D01*
X394500Y324000D02*
Y328228D01*
X392500Y323172D02*
Y331000D01*
X397172Y318500D02*
X417232D01*
X398000Y320500D02*
X415328D01*
X394000Y316800D02*
X396436Y319236D01*
X397172Y318500D01*
X392500Y323172D02*
X396436Y319236D01*
X392500Y331000D02*
X393000Y331500D01*
X389500Y327500D02*
X389700Y327700D01*
X394500Y328228D02*
X397000Y330728D01*
X389700Y327700D02*
Y331800D01*
X393000Y331500D02*
Y338800D01*
X395954Y335846D01*
X390835Y340965D02*
X393000Y338800D01*
X397000Y330728D02*
X404299D01*
X525500Y235000D02*
X535500Y245000D01*
X547300Y255557D02*
Y373972D01*
X536743Y245000D02*
X547300Y255557D01*
X535500Y248000D02*
Y374172D01*
Y245000D02*
X536743D01*
X402000Y346915D02*
Y347000D01*
X400987Y338693D02*
X401709D01*
X401996Y338406D02*
X404299D01*
X399921Y339759D02*
Y344836D01*
X401709Y338693D02*
X401996Y338406D01*
X399921Y344836D02*
X402000Y346915D01*
X399921Y339759D02*
X400987Y338693D01*
X475500Y391800D02*
Y408243D01*
X470200Y442500D02*
X479500Y433200D01*
X444600Y427300D02*
X456443D01*
X479500Y375960D02*
Y433200D01*
Y375960D02*
X480772Y374689D01*
X470900Y387200D02*
X475500Y391800D01*
X477500Y375132D02*
Y424993D01*
Y375132D02*
X478772Y373860D01*
X456443Y427300D02*
X475500Y408243D01*
X464513Y437980D02*
X477500Y424993D01*
X631000Y477200D02*
Y493700D01*
X635300Y498000D01*
X625800Y472000D02*
X631000Y477200D01*
X674500Y483900D02*
Y495000D01*
X660000Y497300D02*
X672200D01*
X674500Y495000D01*
X667600Y477000D02*
X674500Y483900D01*
X635300Y498000D02*
X649243D01*
X651031Y496211D01*
X654536Y477000D02*
X667600D01*
X645236Y467700D02*
X654536Y477000D01*
X651031Y487850D02*
Y496211D01*
X632000Y276257D02*
X637757Y270500D01*
X632000Y276257D02*
Y281600D01*
X637757Y270500D02*
X655243D01*
X470500Y253500D02*
Y258520D01*
X447800Y290100D02*
Y309800D01*
X442600Y277000D02*
Y307428D01*
X447800Y309800D02*
X453500Y315500D01*
X472000D01*
X452672Y317500D02*
X459243D01*
X442600Y307428D02*
X452672Y317500D01*
X433200Y262000D02*
Y302900D01*
X444200Y313900D01*
X472000Y315500D02*
X478500Y309000D01*
X469610Y298311D02*
X476811D01*
X478500Y300000D01*
Y309000D01*
X468299Y297000D02*
X469610Y298311D01*
X460500Y297000D02*
X462600D01*
X466884Y292716D01*
X501000D01*
X507784D01*
X423364Y341177D02*
X429900D01*
X421000Y343000D02*
X421541D01*
X423364Y341177D01*
X423500Y326782D02*
Y332400D01*
X425500Y328653D02*
X427788Y330941D01*
X417232Y318500D02*
X422847Y324115D01*
X424847Y325300D02*
X425500Y325954D01*
Y328653D01*
X422847Y324115D02*
Y326129D01*
X415328Y320500D02*
X420117Y325289D01*
X422847Y326129D02*
X423500Y326782D01*
X420117Y325289D02*
Y327642D01*
X420500Y328025D01*
X424847Y306000D02*
Y325300D01*
X415500Y332360D02*
X415618Y332478D01*
X412243Y324500D02*
X415500Y327757D01*
Y332360D01*
X414500Y322500D02*
X417500Y325500D01*
Y331532D01*
X417618Y331650D01*
X409000Y326000D02*
X410500Y324500D01*
X409000Y326000D02*
Y331628D01*
X407647Y332980D02*
X409000Y331628D01*
X410500Y324500D02*
X412243D01*
X449500Y431020D02*
X450020Y430500D01*
X457500D01*
X503961Y417961D02*
X506500Y420500D01*
X503961Y416656D02*
Y417961D01*
X501804Y414500D02*
X503961Y416656D01*
X508500Y409500D02*
X518800D01*
X507257Y412500D02*
X513500D01*
X497200Y409500D02*
X504257D01*
X497200Y414500D02*
X501804D01*
X513500Y412500D02*
X514100Y411900D01*
X493000D02*
X503375D01*
X504257Y409500D02*
X507257Y412500D01*
X503375Y411900D02*
X505975Y414500D01*
X518800D01*
X459500Y374500D02*
X462177D01*
X468600Y363700D02*
X478414D01*
X462177Y374500D02*
X468771Y367906D01*
X479000Y364286D02*
Y366060D01*
X478772Y368660D02*
Y373860D01*
X468771Y367906D02*
X478018D01*
X478414Y363700D02*
X479000Y364286D01*
Y366060D02*
X480772Y367832D01*
X478018Y367906D02*
X478772Y368660D01*
X480772Y367832D02*
Y374689D01*
X491000Y401500D02*
X491300Y401800D01*
Y410200D01*
X493000Y411900D01*
X472500Y382959D02*
X474000Y381459D01*
Y371260D02*
Y381459D01*
X472500Y382959D02*
Y383500D01*
X432217Y389500D02*
X440000D01*
X419043Y374300D02*
X424000Y379257D01*
X409500Y429200D02*
X424000Y414700D01*
Y379257D02*
Y414700D01*
X418000Y377500D02*
Y385000D01*
X413500Y389500D02*
X418000Y385000D01*
X406783Y389500D02*
X413500D01*
X414250Y384250D02*
X414500Y384000D01*
X406783Y384500D02*
X407033Y384250D01*
X414250D01*
X379500Y397500D02*
X384000Y402000D01*
X379500Y394500D02*
Y397500D01*
X389500Y403500D02*
Y420980D01*
X382609Y347109D02*
X386500Y351000D01*
X380809Y347109D02*
X382609D01*
X377300Y343600D02*
X380809Y347109D01*
X378000Y352500D02*
X380941Y355441D01*
X382441D01*
X385000Y358000D01*
X372000Y363500D02*
X372383Y363883D01*
Y365060D01*
X376823Y369500D01*
X379500D01*
X363000Y386500D02*
X366000Y389500D01*
X363000Y326500D02*
X367200Y322300D01*
X363000Y326500D02*
Y386500D01*
X573012Y401843D02*
X577506Y406337D01*
X571012Y402671D02*
X575256Y406915D01*
X571000Y412000D02*
X575256Y407744D01*
X577500Y421770D02*
Y422000D01*
X579506Y391457D02*
Y419764D01*
X580717Y341684D02*
X583200Y339200D01*
X577500Y421770D02*
X579506Y419764D01*
X581506Y390628D02*
Y426094D01*
X577506Y406337D02*
Y409645D01*
X575256Y406915D02*
Y407744D01*
X580717Y389838D02*
X581506Y390628D01*
X561086Y412000D02*
X571000D01*
X583921Y436130D02*
X588137Y440346D01*
X577200Y430400D02*
X581506Y426094D01*
X582717Y389010D02*
X583921Y390214D01*
X578717Y390667D02*
X579506Y391457D01*
X576500Y410651D02*
X577506Y409645D01*
X583921Y390214D02*
Y436130D01*
X576500Y410651D02*
Y414500D01*
X560500Y411414D02*
X561086Y412000D01*
X560500Y405601D02*
Y411414D01*
X582717Y343183D02*
X584700Y341200D01*
X571056Y397656D02*
Y398485D01*
X576000Y400588D02*
X576012Y400600D01*
X567530Y394130D02*
X571056Y397656D01*
X571012Y398529D02*
Y402671D01*
X573012Y399357D02*
X573056Y399313D01*
X573012Y399357D02*
Y401843D01*
X573056Y396320D02*
Y399313D01*
X568000Y391264D02*
X573056Y396320D01*
X576000Y396431D02*
Y400588D01*
X571012Y398529D02*
X571056Y398485D01*
X570848Y391248D02*
X571686D01*
X584717Y355584D02*
Y377974D01*
X568305Y388705D02*
X570848Y391248D01*
X575255Y390034D02*
X577012Y391791D01*
Y395419D01*
X582717Y343183D02*
Y389010D01*
X571686Y391248D02*
X573471Y393034D01*
X580717Y341684D02*
Y389838D01*
X588137Y381395D02*
Y400346D01*
X578717Y389117D02*
Y390667D01*
X584717Y355584D02*
X587500Y352800D01*
X573187Y383587D02*
X578717Y389117D01*
X574434Y390034D02*
X575255D01*
X584717Y377974D02*
X588137Y381395D01*
X570546Y386146D02*
X574434Y390034D01*
X576000Y396431D02*
X577012Y395419D01*
X573471Y393034D02*
X574012D01*
X564000Y388705D02*
X568305D01*
X556500Y407257D02*
Y411438D01*
X559622Y400522D02*
Y404723D01*
X560500Y405601D01*
X555990Y411948D02*
X556500Y411438D01*
X557500Y405429D02*
X558500Y406429D01*
X557500Y403905D02*
Y405429D01*
X555500Y405654D02*
Y406257D01*
X556500Y407257D01*
X558500Y406429D02*
Y418757D01*
X555900Y396800D02*
X559622Y400522D01*
X555990Y411948D02*
Y417753D01*
X564307Y394130D02*
X567530D01*
X564000Y393823D02*
X564307Y394130D01*
X553500Y420243D02*
X555990Y417753D01*
X552000Y402154D02*
X555500Y405654D01*
X552000Y398257D02*
Y402154D01*
X547939Y394197D02*
X552000Y398257D01*
X554000Y400405D02*
X557500Y403905D01*
X550766Y394195D02*
X554000Y397429D01*
X547939Y393839D02*
Y394197D01*
X541402Y396382D02*
X541709Y396689D01*
X554000Y397429D02*
Y400405D01*
X550766Y393471D02*
Y394195D01*
X541709Y396689D02*
X546189D01*
X549000Y399500D01*
X555500Y421757D02*
X558500Y418757D01*
X667264Y264098D02*
Y273736D01*
X665000Y276000D02*
X667264Y273736D01*
X660000Y276000D02*
X665000D01*
X657000Y279000D02*
X660000Y276000D01*
X672382Y264098D02*
Y271790D01*
X662443Y281728D02*
X672382Y271790D01*
X655100Y289900D02*
Y293300D01*
Y289900D02*
X656323Y288677D01*
Y285470D02*
X660065Y281728D01*
X656323Y285470D02*
Y288677D01*
X660065Y281728D02*
X662443D01*
X658450Y286172D02*
Y288550D01*
X660450Y287000D02*
Y292350D01*
X658450Y286172D02*
X660893Y283728D01*
X661627Y285823D02*
X665299D01*
X660893Y283728D02*
X663272D01*
X660450Y287000D02*
X661627Y285823D01*
X672382Y261000D02*
Y264098D01*
X658323Y288677D02*
X658450Y288550D01*
X674941Y264098D02*
Y272059D01*
X658323Y288677D02*
Y294000D01*
X663272Y283728D02*
X674941Y272059D01*
X655823Y276000D02*
X657500Y274323D01*
Y272757D02*
Y274323D01*
X655757Y276000D02*
X655823D01*
X655217Y276540D02*
X655757Y276000D01*
X655243Y270500D02*
X657500Y272757D01*
X654958Y276540D02*
X655217D01*
X651500Y279998D02*
X654958Y276540D01*
X651500Y279998D02*
Y285714D01*
X645484Y262516D02*
X648742D01*
X651486Y259772D01*
X658210D01*
X643917Y264083D02*
Y265500D01*
Y264083D02*
X645484Y262516D01*
X658210Y259772D02*
X662200Y255782D01*
Y255182D02*
Y255782D01*
X632000Y281600D02*
X636300Y285900D01*
X662200Y255182D02*
X672382Y245000D01*
X652200Y286414D02*
Y292200D01*
X651500Y285714D02*
X652200Y286414D01*
X530300Y437800D02*
X546100D01*
X524500Y432000D02*
X530300Y437800D01*
X484004Y432000D02*
X524500D01*
X549629Y419629D02*
X551500Y421500D01*
X549629Y419129D02*
Y419629D01*
X513800Y483500D02*
X555500Y441800D01*
X541402Y427323D02*
X545677D01*
X548500Y424500D01*
X551500Y421500D02*
Y429500D01*
X548559Y432441D02*
X551500Y429500D01*
X555500Y421757D02*
Y441800D01*
X553500Y420243D02*
Y430400D01*
X546100Y437800D02*
X553500Y430400D01*
X528500Y407658D02*
Y418257D01*
X526500Y406830D02*
Y420728D01*
Y406830D02*
X526759Y406571D01*
Y392125D02*
Y406571D01*
Y392125D02*
X528759Y390125D01*
X524759Y391297D02*
X526759Y389297D01*
X524500Y406002D02*
X524759Y405743D01*
X524500Y406002D02*
Y411314D01*
X523914Y411900D02*
X524500Y411314D01*
X534772Y395523D02*
X535600D01*
X534186Y394937D02*
X534772Y395523D01*
X534186Y394056D02*
Y394937D01*
Y394056D02*
X537000Y391243D01*
X530759Y388998D02*
Y390954D01*
X528500Y418257D02*
X530507Y420265D01*
X528500Y407658D02*
X528759Y407400D01*
X530507Y420265D02*
Y420493D01*
X537000Y388757D02*
Y391243D01*
X526500Y420728D02*
X530536Y424764D01*
X528759Y388170D02*
Y390125D01*
X536071Y385000D02*
X537217Y386146D01*
X514100Y411900D02*
X523914D01*
X532757Y387000D02*
X535243D01*
X530759Y388998D02*
X532757Y387000D01*
X535600Y395523D02*
X537300Y393823D01*
X535243Y387000D02*
X537000Y388757D01*
X531929Y385000D02*
X536071D01*
X528759Y392954D02*
Y407400D01*
X524759Y391297D02*
Y405743D01*
X530536Y424764D02*
X541402D01*
X528759Y388170D02*
X531929Y385000D01*
X537217Y386146D02*
X541402D01*
X528759Y392954D02*
X530759Y390954D01*
X530500Y413757D02*
Y416243D01*
X533903Y419646D02*
X541402D01*
X530500Y416243D02*
X533903Y419646D01*
X530759Y401368D02*
Y413498D01*
X530500Y413757D02*
X530759Y413498D01*
X535759Y404941D02*
X536355Y404345D01*
Y400586D02*
Y404345D01*
Y400586D02*
X538000Y398941D01*
X513800Y483500D02*
Y490500D01*
X415618Y343876D02*
X419321Y347579D01*
X415618Y332478D02*
Y343876D01*
X419321Y356921D02*
X426900Y364500D01*
X417618Y332766D02*
X423470Y338618D01*
X419321Y347579D02*
Y356921D01*
X417618Y331650D02*
Y332766D01*
X423500Y332400D02*
X427159Y336059D01*
X404606Y332980D02*
X407647D01*
X404299Y333287D02*
X404606Y332980D01*
X407409Y322500D02*
X414500D01*
X404299Y325610D02*
X407409Y322500D01*
X426900Y364500D02*
X432217D01*
X532186Y392355D02*
X534000Y390541D01*
Y390000D02*
Y390541D01*
X532186Y392355D02*
Y399941D01*
X546000Y375500D02*
X555900Y385400D01*
X558225Y384896D02*
Y395683D01*
X555900Y385400D02*
Y396800D01*
X547300Y373972D02*
X558225Y384896D01*
X648639Y298618D02*
X650521Y300500D01*
X642701Y298618D02*
X648639D01*
X650521Y300500D02*
X651000D01*
X645090Y304090D02*
X648000Y307000D01*
X642701Y301177D02*
X644782D01*
X645090Y301484D01*
Y304090D01*
X638300Y288382D02*
Y306800D01*
X641500Y310000D02*
X652500D01*
X638300Y306800D02*
X641500Y310000D01*
X652500D02*
X657182Y305318D01*
X662281Y296366D02*
X664992D01*
X660382Y296059D02*
X661794D01*
X661172Y296618D02*
X661699D01*
X664992Y296366D02*
X665299Y296059D01*
X661794Y296524D02*
X662123D01*
X661699Y296618D02*
X661794Y296524D01*
X662123D02*
X662281Y296366D01*
X657182Y300608D02*
X661172Y296618D01*
X657182Y300608D02*
Y305318D01*
X662000Y298618D02*
X665299D01*
X659182Y301436D02*
X662000Y298618D01*
X659182Y301436D02*
Y316409D01*
X389500Y437980D02*
Y443000D01*
X409100Y374300D02*
X419043D01*
X406783Y374500D02*
X408900D01*
X409100Y374300D01*
X379500Y437980D02*
Y443000D01*
X443500Y330941D02*
X454799D01*
X432201D02*
X443500D01*
X448618Y336059D01*
X454799D01*
X367200Y322300D02*
X384000D01*
X386100Y324400D01*
X373300Y328169D02*
X381701D01*
X394000Y314400D02*
X395700Y312700D01*
X394000Y314400D02*
Y316800D01*
X672000Y233400D02*
X684021D01*
X688921Y228500D01*
X667264Y238136D02*
X672000Y233400D01*
X677500Y238000D02*
Y241500D01*
X675500Y236000D02*
X677500Y238000D01*
X672382D02*
X674382Y236000D01*
X675500D01*
X692500Y228500D02*
X696000Y232000D01*
X688921Y228500D02*
X692500D01*
X696000Y232000D02*
Y262500D01*
X685500Y260500D02*
Y368100D01*
Y260500D02*
X689500Y264500D01*
X685500Y260000D02*
Y260500D01*
X689500Y264500D02*
X694000D01*
X696000Y262500D01*
X585250Y251250D02*
X593750D01*
X594000Y251000D01*
X585000Y251500D02*
X585250Y251250D01*
X597000Y246500D02*
X599283Y248783D01*
X602732Y258968D02*
X603318Y259554D01*
X600211Y258968D02*
X602732D01*
X585000Y246500D02*
X597000D01*
X599283Y258041D02*
X600211Y258968D01*
X599283Y248783D02*
Y258041D01*
X603318Y259554D02*
Y289818D01*
X614000Y232500D02*
X616500Y235000D01*
X622200D01*
X603318Y289818D02*
X619000Y305500D01*
X602500Y384200D02*
Y414754D01*
Y374941D02*
Y384200D01*
X600000Y368100D02*
X609300Y358800D01*
X597500Y370600D02*
X600000Y368100D01*
X518600Y447744D02*
Y475700D01*
X665000Y308200D02*
Y318279D01*
X613469Y472000D02*
X625800D01*
X452300Y437980D02*
Y441000D01*
X442700Y420980D02*
Y423500D01*
X440050Y384350D02*
X442100Y382300D01*
X439900Y384500D02*
X440050Y384350D01*
X496700Y327400D02*
Y384500D01*
X429900Y341177D02*
Y343000D01*
X391000Y428300D02*
Y431020D01*
X380363Y448020D02*
Y463100D01*
X459500Y266000D02*
X463500D01*
X443700D02*
X448700D01*
X437900D02*
X443700D01*
X434400Y256000D02*
X437900D01*
X431500D02*
X434400D01*
X667264Y238136D02*
Y241500D01*
X680000Y373600D02*
X685500Y368100D01*
X659700Y373600D02*
X680000D01*
X649300Y384000D02*
X659700Y373600D01*
X649300Y384000D02*
Y429873D01*
X644173Y435000D02*
X649300Y429873D01*
X683100Y257600D02*
X685500Y260000D01*
X670500Y257600D02*
X683100D01*
X669823Y264098D02*
X670500Y257600D01*
X556500Y255000D02*
X607300Y305800D01*
Y356300D01*
X592500Y371100D02*
X607300Y356300D01*
X592500Y371100D02*
Y374941D01*
Y444000D01*
X590300Y446200D02*
X592500Y444000D01*
X584318Y446200D02*
X590300D01*
X568000Y429882D02*
X584318Y446200D01*
X564000Y429882D02*
X568000D01*
X597500Y370600D02*
Y374941D01*
X609300Y300600D02*
Y358800D01*
X559700Y251000D02*
X609300Y300600D01*
X554300Y251000D02*
X559700D01*
X552539Y252761D02*
X554300Y251000D01*
X552539Y252761D02*
Y261039D01*
X556500Y265000D01*
X541402Y432441D02*
X548559D01*
X607200Y371300D02*
Y406100D01*
X604000Y368100D02*
X607200Y371300D01*
X600000Y368100D02*
X604000D01*
X642701Y296059D02*
X652341D01*
X655100Y293300D01*
X537300Y393823D02*
X541402D01*
X564000Y391264D02*
X568000D01*
X521500Y229000D02*
X525500Y225000D01*
X521500Y229000D02*
Y258500D01*
X524000Y261000D01*
X528461D01*
X529461Y262000D01*
Y277039D01*
X525500Y281000D02*
X529461Y277039D01*
X522500Y281000D02*
X525500D01*
X521000Y282500D02*
X522500Y281000D01*
X521000Y282500D02*
Y359100D01*
X499700Y380400D02*
X521000Y359100D01*
X538000Y398941D02*
X541402D01*
X530759Y401368D02*
X532186Y399941D01*
X564000Y383587D02*
X573187D01*
X657312Y318279D02*
X659182Y316409D01*
X653858Y318279D02*
X657312D01*
X379500Y374500D02*
X383800D01*
X391300Y367000D01*
X417400D01*
X424900Y374500D01*
X432217D01*
X599800Y241500D02*
X604449D01*
X597300Y244000D02*
X599800Y241500D01*
X580700Y244000D02*
X597300D01*
X579700Y245000D02*
X580700Y244000D01*
X579700Y245000D02*
Y258200D01*
X581000Y259500D01*
X586445D01*
X589945Y263000D01*
Y266000D01*
X613469Y465000D02*
Y472000D01*
X654173Y338406D02*
Y357000D01*
Y338406D02*
X663858Y328721D01*
X604449Y251500D02*
X636917D01*
X643917Y244500D01*
X366000Y389500D02*
X379500D01*
X386100Y324400D02*
Y329628D01*
X385000Y330728D02*
X386100Y329628D01*
X381701Y330728D02*
X385000D01*
X584700Y341200D02*
X592500D01*
Y345059D01*
X560659Y432441D02*
X564000D01*
X559100Y434000D02*
X560659Y432441D01*
X559100Y434000D02*
Y452000D01*
X523400Y487700D02*
X559100Y452000D01*
X523400Y487700D02*
Y500200D01*
X522000Y501600D02*
X523400Y500200D01*
X428000Y501600D02*
X522000D01*
X424600Y498200D02*
X428000Y501600D01*
X424600Y434600D02*
Y498200D01*
Y434600D02*
X432200Y427000D01*
Y407500D02*
Y427000D01*
Y407500D02*
X443700Y396000D01*
Y388000D02*
Y396000D01*
X440050Y384350D02*
X443700Y388000D01*
X432217Y384500D02*
X440050Y384350D01*
X507784Y292716D02*
X525500Y275000D01*
X427159Y336059D02*
X432201D01*
X395954Y335846D02*
X404299D01*
X381701Y340965D02*
X390835D01*
X395700Y223700D02*
Y312700D01*
Y223700D02*
X398000Y221400D01*
X414000D01*
X428800Y236200D01*
X474800D01*
X492000Y219000D01*
X648195D01*
X664705Y235510D01*
Y241500D01*
X379500Y463963D02*
Y485500D01*
Y463963D02*
X380363Y463100D01*
X379500Y448020D02*
X380363D01*
X602500Y345059D02*
Y348000D01*
X589400Y361100D02*
X602500Y348000D01*
X387794Y338406D02*
X389300Y336900D01*
X381701Y338406D02*
X387794D01*
X459500Y448020D02*
Y464400D01*
X454700Y469200D02*
X459500Y464400D01*
X454700Y469200D02*
Y490700D01*
X459500Y495500D01*
X409500Y448020D02*
Y464400D01*
X404700Y469200D02*
X409500Y464400D01*
X404700Y469200D02*
Y490700D01*
X409500Y495500D01*
X423470Y338618D02*
X432201D01*
X501000Y275000D02*
X515500D01*
X525500Y265000D01*
X672382Y241500D02*
Y245000D01*
X453000Y364500D02*
X459500D01*
X447300Y370200D02*
X453000Y364500D01*
X447300Y370200D02*
Y402532D01*
X434600Y415232D02*
X447300Y402532D01*
X434600Y415232D02*
Y437980D01*
X429500D02*
X434600D01*
X673500Y328721D02*
Y339700D01*
X679700Y345900D01*
Y361473D01*
X674173Y367000D02*
X679700Y361473D01*
X489000Y447744D02*
Y463700D01*
X483200Y469500D02*
X489000Y463700D01*
X483200Y469500D02*
Y489900D01*
X488800Y495500D01*
X665299Y288382D02*
X673000D01*
X675218Y290600D01*
X680900D01*
X683500Y288000D01*
Y261700D02*
Y288000D01*
X681500Y259700D02*
X683500Y261700D01*
X673682Y259700D02*
X681500D01*
X672382Y261000D02*
X673682Y259700D01*
X622637Y428654D02*
X637827D01*
X644173Y435000D01*
X602500Y414754D02*
X616400Y428654D01*
X622637D01*
X379500Y364500D02*
X383600D01*
X385000Y363100D01*
Y358000D02*
Y363100D01*
X385654Y335846D02*
X389700Y331800D01*
X381701Y335846D02*
X385654D01*
X470500Y248480D02*
X494059D01*
X521500Y221039D01*
X542539D01*
X556500Y235000D01*
X489482Y429882D02*
X541402D01*
X441600Y276000D02*
X442600Y277000D01*
X437900Y276000D02*
X441600D01*
X434200Y261000D02*
X437900D01*
X433200Y262000D02*
X434200Y261000D01*
X485700Y275000D02*
X501000D01*
X474800Y285900D02*
X485700Y275000D01*
X452000Y285900D02*
X474800D01*
X447800Y290100D02*
X452000Y285900D01*
X654968Y487850D02*
Y492268D01*
X660000Y497300D01*
X645236Y463500D02*
Y467700D01*
X680000Y401942D02*
Y405700D01*
X682000Y407700D01*
X692000D01*
X697800Y401900D01*
Y372900D02*
Y401900D01*
X496700Y384500D02*
X497200D01*
X402000Y379500D02*
X406783D01*
X400705Y380795D02*
X402000Y379500D01*
X400705Y380795D02*
Y388166D01*
X399500Y389371D02*
X400705Y388166D01*
X399500Y389371D02*
Y420980D01*
X403600Y369500D02*
X406783D01*
X398705Y374395D02*
X403600Y369500D01*
X398705Y374395D02*
Y384966D01*
X394500Y389171D02*
X398705Y384966D01*
X394500Y389171D02*
Y424800D01*
X402000D01*
X404400Y427200D01*
Y437980D01*
X399500D02*
X404400D01*
X399500Y359500D02*
X406783D01*
X389300Y364500D02*
X406783D01*
X409500Y429200D02*
Y437980D01*
X374300Y420980D02*
X379500D01*
X374300Y392000D02*
Y420980D01*
Y392000D02*
X383900D01*
X393300Y382600D01*
Y370000D02*
Y382600D01*
X649600Y362427D02*
X654173Y367000D01*
X649600Y329321D02*
Y362427D01*
Y329321D02*
X650200Y328721D01*
X653858D01*
X669573Y361600D02*
X674173Y357000D01*
X661124Y361600D02*
X669573D01*
X658724Y364000D02*
X661124Y361600D01*
X658724Y364000D02*
Y370000D01*
X657173Y371551D02*
X658724Y370000D01*
X642000Y371551D02*
X657173D01*
X639600Y369151D02*
X642000Y371551D01*
X639600Y330000D02*
Y369151D01*
Y330000D02*
X640879Y328721D01*
X644173D01*
X638300Y288382D02*
X642701D01*
X663858Y318279D02*
X665000D01*
X658323Y294000D02*
X660382Y296059D01*
X665299Y290941D02*
X670841D01*
X672500Y292600D01*
X676100D01*
X679500Y296000D01*
Y316000D01*
X677221Y318279D02*
X679500Y316000D01*
X673500Y318279D02*
X677221D01*
X677500Y264098D02*
Y287600D01*
X670500Y293500D02*
X673400Y296400D01*
X665299Y293500D02*
X670500D01*
X642701Y290941D02*
X648509D01*
X648550Y290900D01*
X680059Y273218D02*
X680500Y273659D01*
X680059Y264098D02*
Y273218D01*
X661600Y293500D02*
X665299D01*
X660450Y292350D02*
X661600Y293500D01*
X497200Y389500D02*
X502500D01*
X507500Y384500D01*
X512000Y399500D02*
X518800D01*
X597500Y342200D02*
Y345059D01*
X594500Y339200D02*
X597500Y342200D01*
X583200Y339200D02*
X594500D01*
X564000Y386146D02*
X570546D01*
X497200Y394500D02*
X501200D01*
X587500Y369700D02*
Y374941D01*
Y369700D02*
X605300Y351900D01*
Y342000D02*
Y351900D01*
X600500Y337200D02*
X605300Y342000D01*
X580854Y337200D02*
X600500D01*
X579054Y339000D02*
X580854Y337200D01*
X553500Y339000D02*
X579054D01*
X550539Y336039D02*
X553500Y339000D01*
X550539Y250961D02*
Y336039D01*
Y250961D02*
X556500Y245000D01*
X377300Y333287D02*
X381701D01*
X377300D02*
Y343600D01*
X442100Y382300D02*
X444100D01*
X432217Y384500D02*
X439900D01*
X429900Y341177D02*
X432201D01*
X423300Y349600D02*
X429900Y343000D01*
X432217Y394500D02*
X440700D01*
X439500Y426000D02*
Y431020D01*
X419500Y427233D02*
Y437980D01*
Y427233D02*
X427000Y419733D01*
Y377000D02*
Y419733D01*
Y377000D02*
X437604D01*
X455104Y359500D01*
X459500D01*
X638579Y318279D02*
X644173D01*
X636300Y316000D02*
X638579Y318279D01*
X636300Y285900D02*
Y316000D01*
X650500Y293900D02*
X652200Y292200D01*
X645300Y293900D02*
X650500D01*
X644900Y293500D02*
X645300Y293900D01*
X642701Y293500D02*
X644900D01*
X459500Y369500D02*
X462800D01*
X468600Y363700D01*
X453800Y442500D02*
X470200D01*
X452300Y441000D02*
X453800Y442500D01*
X449500Y437980D02*
X452300D01*
X439500D02*
X441920D01*
X444600Y435300D01*
Y427300D02*
Y435300D01*
X466300Y387200D02*
X470900D01*
X464000Y389500D02*
X466300Y387200D01*
X459500Y389500D02*
X464000D01*
X541402Y391264D02*
X545364D01*
X547939Y393839D01*
X479304Y436700D02*
X484004Y432000D01*
X479304Y436700D02*
Y443048D01*
X484000Y447744D01*
X489000D01*
X508800Y495500D02*
X513800Y490500D01*
X546000Y388705D02*
X550766Y393471D01*
X541402Y388705D02*
X546000D01*
X587500Y345059D02*
Y352800D01*
X455000Y384500D02*
X459500D01*
X453800Y385700D02*
X455000Y384500D01*
X453800Y385700D02*
Y406800D01*
X455600Y408600D01*
Y423200D01*
X454000Y424800D02*
X455600Y423200D01*
X444000Y424800D02*
X454000D01*
X442700Y423500D02*
X444000Y424800D01*
X439500Y420980D02*
X442700D01*
X558924Y396382D02*
X564000D01*
X558225Y395683D02*
X558924Y396382D01*
X427788Y330941D02*
X432201D01*
X432217Y369500D02*
X437382D01*
Y340000D02*
Y369500D01*
X436000Y338618D02*
X437382Y340000D01*
X432201Y338618D02*
X436000D01*
X459500Y437980D02*
X464513D01*
X518600Y447744D02*
X520500D01*
X508800Y485500D02*
X518600Y475700D01*
X433400Y255000D02*
X434400Y256000D01*
X433400Y248000D02*
Y255000D01*
Y248000D02*
X437800Y243600D01*
X441700D01*
X449100Y251000D01*
X459500D01*
Y256000D02*
X463500D01*
X465500Y258000D01*
Y264000D01*
X463500Y266000D02*
X465500Y264000D01*
X439500Y448020D02*
Y464400D01*
X434700Y469200D02*
X439500Y464400D01*
X434700Y469200D02*
Y490700D01*
X439500Y495500D01*
X453700Y261000D02*
X459500D01*
X448700Y266000D02*
X453700Y261000D01*
X394600Y431020D02*
X399500D01*
X394600D02*
Y490600D01*
X399500Y495500D01*
X389500Y431020D02*
X391000D01*
X390000Y427300D02*
X391000Y428300D01*
X375300Y427300D02*
X390000D01*
X372600Y430000D02*
X375300Y427300D01*
X372600Y430000D02*
Y496000D01*
X376900Y500300D01*
X392000D01*
X394300Y498000D01*
Y493585D02*
Y498000D01*
X389500Y488785D02*
X394300Y493585D01*
X389500Y485500D02*
Y488785D01*
X401000Y225500D02*
X431500Y256000D01*
X389500Y448020D02*
Y464400D01*
X384700Y469200D02*
X389500Y464400D01*
X384700Y469200D02*
Y490700D01*
X389500Y495500D01*
X672382Y238000D02*
Y241500D01*
X655610Y250910D02*
Y255000D01*
X654000Y249300D02*
X655610Y250910D01*
X652800Y249300D02*
X654000D01*
X648000Y244500D02*
X652800Y249300D01*
X643917Y244500D02*
X648000D01*
X556500Y285000D02*
Y288000D01*
X566594Y298094D01*
Y300500D01*
X675514Y401942D02*
X680000D01*
X675073Y401500D02*
X675514Y401942D01*
X663858Y401500D02*
X675073D01*
X686000Y401942D02*
X689500D01*
X684800Y400742D02*
X686000Y401942D01*
X684800Y399500D02*
Y400742D01*
X682000Y396700D02*
X684800Y399500D01*
X669058Y396700D02*
X682000D01*
X663858Y391500D02*
X669058Y396700D01*
X618000Y399700D02*
Y401721D01*
Y399700D02*
X620000Y397700D01*
X637658D01*
X643858Y391500D01*
X604449Y246500D02*
X610700D01*
X622200Y235000D01*
X644547D01*
X496000Y447744D02*
X499500D01*
X495000Y448744D02*
X496000Y447744D01*
X495000Y448744D02*
Y479300D01*
X488800Y485500D02*
X495000Y479300D01*
X454000Y379500D02*
X459500D01*
X449500Y384000D02*
X454000Y379500D01*
X449500Y384000D02*
Y420980D01*
X506456Y447744D02*
X510000D01*
X505200Y449000D02*
X506456Y447744D01*
X505200Y449000D02*
Y474000D01*
X504200Y475000D02*
X505200Y474000D01*
X504200Y475000D02*
Y490900D01*
X508800Y495500D01*
X374600Y490600D02*
X379500Y495500D01*
X374600Y431020D02*
Y490600D01*
Y431020D02*
X379500D01*
X443700Y266000D02*
X445700Y264000D01*
Y260000D02*
Y264000D01*
X441700Y256000D02*
X445700Y260000D01*
X437900Y256000D02*
X441700D01*
X493800Y389500D02*
X497200D01*
X491300Y392000D02*
X493800Y389500D01*
X491300Y392000D02*
Y396800D01*
X494000Y399500D01*
X497200D01*
X636021Y401500D02*
X643858D01*
X635800Y401721D02*
X636021Y401500D01*
X628000Y401721D02*
X635800D01*
X655610Y242257D02*
Y244500D01*
X650453Y237100D02*
X655610Y242257D01*
X650453Y235000D02*
Y237100D01*
X367500Y374500D02*
X379500D01*
Y379500D02*
Y384500D01*
X432217Y379500D02*
Y384500D01*
X432201Y330941D02*
Y333500D01*
X454799Y336059D02*
Y338618D01*
Y328382D02*
Y330941D01*
X399500Y448020D02*
Y485500D01*
X449500Y448020D02*
Y485500D01*
X429500Y448020D02*
Y485500D01*
X419500Y448020D02*
Y485500D01*
X451200Y256000D02*
X459500D01*
X446200Y251000D02*
X451200Y256000D01*
X437900Y251000D02*
X446200D01*
X463500Y266000D02*
X470500D01*
D16*
X432201Y325823D02*
D03*
Y328382D02*
D03*
Y330941D02*
D03*
Y333500D02*
D03*
Y336059D02*
D03*
Y338618D02*
D03*
Y341177D02*
D03*
X454799D02*
D03*
Y338618D02*
D03*
Y336059D02*
D03*
Y333500D02*
D03*
Y330941D02*
D03*
Y328382D02*
D03*
Y325823D02*
D03*
X404299Y325610D02*
D03*
Y328169D02*
D03*
Y330728D02*
D03*
Y333287D02*
D03*
Y335846D02*
D03*
Y338406D02*
D03*
Y340965D02*
D03*
X381701D02*
D03*
Y338406D02*
D03*
Y335846D02*
D03*
Y333287D02*
D03*
Y330728D02*
D03*
Y328169D02*
D03*
Y325610D02*
D03*
D17*
X642701Y285823D02*
D03*
Y288382D02*
D03*
Y290941D02*
D03*
Y293500D02*
D03*
Y296059D02*
D03*
Y298618D02*
D03*
Y301177D02*
D03*
X665299D02*
D03*
Y298618D02*
D03*
Y296059D02*
D03*
Y293500D02*
D03*
Y290941D02*
D03*
Y288382D02*
D03*
Y285823D02*
D03*
X564000Y435000D02*
D03*
Y432441D02*
D03*
Y429882D02*
D03*
Y427323D02*
D03*
Y424764D02*
D03*
Y422205D02*
D03*
Y419646D02*
D03*
Y417087D02*
D03*
X541402D02*
D03*
Y419646D02*
D03*
Y422205D02*
D03*
Y424764D02*
D03*
Y427323D02*
D03*
Y429882D02*
D03*
Y432441D02*
D03*
Y435000D02*
D03*
X564000Y401500D02*
D03*
Y398941D02*
D03*
Y396382D02*
D03*
Y393823D02*
D03*
Y391264D02*
D03*
Y388705D02*
D03*
Y386146D02*
D03*
Y383587D02*
D03*
X541402D02*
D03*
Y386146D02*
D03*
Y388705D02*
D03*
Y391264D02*
D03*
Y393823D02*
D03*
Y396382D02*
D03*
Y398941D02*
D03*
Y401500D02*
D03*
D18*
X680059Y264098D02*
D03*
X677500D02*
D03*
X674941D02*
D03*
X672382D02*
D03*
X669823D02*
D03*
X667264D02*
D03*
X664705D02*
D03*
Y241500D02*
D03*
X667264D02*
D03*
X669823D02*
D03*
X672382D02*
D03*
X674941D02*
D03*
X677500D02*
D03*
X680059D02*
D03*
D19*
X470500Y258520D02*
D03*
Y248480D02*
D03*
X409500Y437980D02*
D03*
Y448020D02*
D03*
X399500Y420980D02*
D03*
Y431020D02*
D03*
X439500Y420980D02*
D03*
Y431020D02*
D03*
X419500Y437980D02*
D03*
Y448020D02*
D03*
X379500Y420980D02*
D03*
Y431020D02*
D03*
X389500Y420980D02*
D03*
Y431020D02*
D03*
X399500Y448020D02*
D03*
Y437980D02*
D03*
X379500Y448020D02*
D03*
Y437980D02*
D03*
X389500Y448020D02*
D03*
Y437980D02*
D03*
X449500Y431020D02*
D03*
Y420980D02*
D03*
X459500Y448020D02*
D03*
Y437980D02*
D03*
X439500Y448020D02*
D03*
Y437980D02*
D03*
X429500Y448020D02*
D03*
Y437980D02*
D03*
X449500Y448020D02*
D03*
Y437980D02*
D03*
D20*
X451000Y297000D02*
D03*
Y302811D02*
D03*
X574000Y255500D02*
D03*
Y249689D02*
D03*
X690500Y245905D02*
D03*
Y240094D02*
D03*
X487000Y414500D02*
D03*
Y408689D02*
D03*
X412500Y334882D02*
D03*
Y340693D02*
D03*
X464000Y340906D02*
D03*
Y335094D02*
D03*
X418000Y399906D02*
D03*
Y394094D02*
D03*
X470500Y399906D02*
D03*
Y394094D02*
D03*
X598137Y485732D02*
D03*
Y491543D02*
D03*
D21*
X437900Y281000D02*
D03*
Y276000D02*
D03*
Y271000D02*
D03*
Y266000D02*
D03*
Y261000D02*
D03*
Y256000D02*
D03*
Y251000D02*
D03*
X459500D02*
D03*
Y256000D02*
D03*
Y261000D02*
D03*
Y266000D02*
D03*
Y271000D02*
D03*
Y276000D02*
D03*
Y281000D02*
D03*
X518800Y414500D02*
D03*
Y409500D02*
D03*
Y404500D02*
D03*
Y399500D02*
D03*
Y394500D02*
D03*
Y389500D02*
D03*
Y384500D02*
D03*
X497200D02*
D03*
Y389500D02*
D03*
Y394500D02*
D03*
Y399500D02*
D03*
Y404500D02*
D03*
Y409500D02*
D03*
Y414500D02*
D03*
D22*
X470500Y266000D02*
D03*
Y277693D02*
D03*
X520500Y447744D02*
D03*
Y436051D02*
D03*
X499500Y447744D02*
D03*
Y436051D02*
D03*
X510000Y447744D02*
D03*
Y436051D02*
D03*
X489000Y447744D02*
D03*
Y436051D02*
D03*
X474000Y359567D02*
D03*
Y371260D02*
D03*
X622637Y440346D02*
D03*
Y428654D02*
D03*
D23*
X587500Y345059D02*
D03*
Y374941D02*
D03*
X592500Y345059D02*
D03*
Y374941D02*
D03*
X597500Y345059D02*
D03*
X602500D02*
D03*
X597500Y374941D02*
D03*
X602500D02*
D03*
D24*
X583055Y266000D02*
D03*
X589945D02*
D03*
D25*
X650453Y235000D02*
D03*
X644547D02*
D03*
D26*
X655610Y244500D02*
D03*
X643917D02*
D03*
X655610Y265500D02*
D03*
X643917D02*
D03*
Y255000D02*
D03*
X655610D02*
D03*
X424847Y306000D02*
D03*
X413154D02*
D03*
D27*
X604449Y256500D02*
D03*
Y251500D02*
D03*
Y246500D02*
D03*
Y241500D02*
D03*
X585000D02*
D03*
Y246500D02*
D03*
Y251500D02*
D03*
Y256500D02*
D03*
D28*
X541095Y441500D02*
D03*
X546906D02*
D03*
X642595Y277500D02*
D03*
X648406D02*
D03*
X541402Y408154D02*
D03*
X547213D02*
D03*
X572406Y291000D02*
D03*
X566594D02*
D03*
X572406Y300500D02*
D03*
X566594D02*
D03*
D29*
X460500Y303102D02*
D03*
Y297000D02*
D03*
X468299Y303102D02*
D03*
Y297000D02*
D03*
D30*
X613469Y465000D02*
D03*
X594532D02*
D03*
X645236Y463500D02*
D03*
X664173D02*
D03*
D31*
X367500Y368980D02*
D03*
Y374500D02*
D03*
D32*
X644173Y318279D02*
D03*
Y328721D02*
D03*
X663858Y318279D02*
D03*
Y328721D02*
D03*
X653858Y318279D02*
D03*
Y328721D02*
D03*
X673500Y318279D02*
D03*
Y328721D02*
D03*
X689500Y391500D02*
D03*
Y401942D02*
D03*
X618000Y391279D02*
D03*
Y401721D02*
D03*
X680000Y391500D02*
D03*
Y401942D02*
D03*
X628000Y391279D02*
D03*
Y401721D02*
D03*
D33*
X432217Y394500D02*
D03*
Y389500D02*
D03*
Y384500D02*
D03*
Y379500D02*
D03*
Y374500D02*
D03*
Y369500D02*
D03*
Y364500D02*
D03*
Y359500D02*
D03*
X459500D02*
D03*
Y364500D02*
D03*
Y369500D02*
D03*
Y374500D02*
D03*
Y379500D02*
D03*
Y384500D02*
D03*
Y389500D02*
D03*
Y394500D02*
D03*
X379500D02*
D03*
Y389500D02*
D03*
Y384500D02*
D03*
Y379500D02*
D03*
Y374500D02*
D03*
Y369500D02*
D03*
Y364500D02*
D03*
Y359500D02*
D03*
X406783D02*
D03*
Y364500D02*
D03*
Y369500D02*
D03*
Y374500D02*
D03*
Y379500D02*
D03*
Y384500D02*
D03*
Y389500D02*
D03*
Y394500D02*
D03*
D34*
X591137Y491429D02*
D03*
Y485846D02*
D03*
X605637D02*
D03*
Y491429D02*
D03*
X681500Y428654D02*
D03*
Y434236D02*
D03*
D35*
X622637Y486276D02*
D03*
Y491000D02*
D03*
X614137Y486276D02*
D03*
Y491000D02*
D03*
D36*
X654968Y487850D02*
D03*
X651031D02*
D03*
D37*
X658984D02*
D03*
X647016D02*
D03*
D38*
X663827D02*
D03*
X642173D02*
D03*
D39*
X501000Y275000D02*
D03*
Y292716D02*
D03*
D79*
X480484Y359567D02*
X482917Y362000D01*
X474000Y359567D02*
X480484D01*
X482917Y362000D02*
X483000D01*
X505443Y404557D02*
X505500Y404614D01*
X497257Y404557D02*
X505443D01*
X497200Y404500D02*
X497257Y404557D01*
X512000Y404500D02*
X518800D01*
X470500Y399906D02*
Y404776D01*
X472500Y406776D01*
Y407000D01*
X459500Y394500D02*
Y401229D01*
X460500Y402229D01*
Y402500D01*
X637691Y481203D02*
X642173Y485685D01*
X637691Y479691D02*
Y481203D01*
X642173Y485685D02*
Y487850D01*
X637500Y479500D02*
X637691Y479691D01*
X663913Y480087D02*
X664000Y480000D01*
X663913Y480087D02*
Y487764D01*
X663827Y487850D02*
X663913Y487764D01*
X647016Y482100D02*
X658984D01*
Y487850D01*
X635500Y278500D02*
X635771D01*
X636771Y277500D01*
X642595D01*
X649500Y265500D02*
X655610D01*
X643917Y255000D02*
X644417Y254500D01*
X650000D01*
X470229Y271500D02*
X470500D01*
X459500Y271000D02*
X469729D01*
X470229Y271500D01*
X437900Y271000D02*
X444229D01*
X444729Y271500D01*
X445000D01*
X470500Y277693D02*
X476537D01*
X477729Y276500D01*
X478000D01*
X451000Y308229D02*
X451500Y308729D01*
Y309000D01*
X451000Y302811D02*
Y308229D01*
X475229Y305000D02*
X475500D01*
X473332Y303102D02*
X475229Y305000D01*
X468299Y303102D02*
X473332D01*
X460890Y306119D02*
X463500Y308729D01*
X460500Y303102D02*
X460890Y303492D01*
Y306119D01*
X463500Y308729D02*
Y309000D01*
X412000Y328771D02*
X412500Y329271D01*
X412000Y328500D02*
Y328771D01*
X412500Y329271D02*
Y334882D01*
X520500Y436051D02*
Y441500D01*
X510000Y436051D02*
Y441500D01*
X489000Y436051D02*
Y442000D01*
X499500Y436051D02*
Y442000D01*
X544752Y443614D02*
X546866Y441500D01*
X544752Y443614D02*
Y444748D01*
X541000Y448500D02*
X544752Y444748D01*
X614771Y440000D02*
X615117Y440346D01*
X622637D01*
X614500Y440000D02*
X614771D01*
X681500Y420500D02*
Y428654D01*
X689500Y385271D02*
Y391500D01*
Y385271D02*
X690500Y384271D01*
Y384000D02*
Y384271D01*
X680000Y386618D02*
Y391500D01*
X677500Y384118D02*
X680000Y386618D01*
X677500Y384000D02*
Y384118D01*
X633809Y384191D02*
X634000Y384000D01*
X633809Y384191D02*
Y386853D01*
X629382Y391279D02*
X633809Y386853D01*
X628000Y391279D02*
X629382D01*
X612500Y383500D02*
X612691Y383691D01*
X616618Y391279D02*
X618000D01*
X612691Y387353D02*
X616618Y391279D01*
X612691Y383691D02*
Y387353D01*
X664173Y465469D02*
X672513Y473809D01*
X673809D01*
X664173Y463500D02*
Y465469D01*
X673809Y473809D02*
X674000Y474000D01*
X628273Y481543D02*
Y484500D01*
X626497Y486276D02*
X628273Y484500D01*
X626000Y479000D02*
Y479271D01*
X628273Y481543D01*
X614137Y486276D02*
X614432D01*
X617809Y482899D01*
Y479691D02*
Y482899D01*
Y479691D02*
X618000Y479500D01*
X622637Y491000D02*
X622932D01*
X628241Y496309D02*
X629309D01*
X622932Y491000D02*
X628241Y496309D01*
X629309D02*
X629500Y496500D01*
X614137Y491000D02*
X614432D01*
X618309Y494876D01*
Y496809D01*
X618500Y497000D01*
X605637Y491429D02*
Y491586D01*
X609309Y495258D01*
Y496309D01*
X609500Y496500D01*
X587500Y499500D02*
X591137Y495863D01*
Y491429D02*
Y495863D01*
X598137Y491543D02*
Y501637D01*
X601500Y505000D01*
X593500Y475729D02*
Y476000D01*
X594532Y465000D02*
Y474698D01*
X593500Y475729D02*
X594532Y474698D01*
X598069Y479069D02*
Y485664D01*
X598000Y479000D02*
X598069Y479069D01*
Y485664D02*
X598137Y485732D01*
X588500Y478500D02*
X591137Y481137D01*
Y485846D01*
X487000Y414500D02*
Y414539D01*
X491809Y419348D01*
Y420809D01*
X492000Y421000D01*
X486169Y404440D02*
Y407858D01*
X484500Y402500D02*
Y402771D01*
X486169Y404440D01*
Y407858D02*
X487000Y408689D01*
X419000Y406729D02*
Y407000D01*
X418000Y399906D02*
Y405729D01*
X419000Y406729D01*
X421000Y387500D02*
Y387771D01*
X418831Y389940D02*
Y393264D01*
X418000Y394094D02*
X418831Y393264D01*
Y389940D02*
X421000Y387771D01*
X406500Y394701D02*
Y403000D01*
X406701Y394500D02*
X406783D01*
X406500Y394701D02*
X406701Y394500D01*
X367000Y361771D02*
X367500Y362271D01*
Y368980D01*
X367000Y361500D02*
Y361771D01*
X373000Y359500D02*
X379500D01*
X369000Y355500D02*
X373000Y359500D01*
X547386Y408327D02*
X553327D01*
X553500Y408500D01*
X547213Y408154D02*
X547386Y408327D01*
X648445Y277500D02*
X652213Y273731D01*
X653849D02*
X654040Y273540D01*
X652213Y273731D02*
X653849D01*
X648406Y277500D02*
X648445D01*
X535707Y413809D02*
X541362Y408154D01*
X541402D01*
X546866Y441500D02*
X546906D01*
X532271D02*
X541095D01*
X531771Y442000D02*
X532271Y441500D01*
X531500Y442000D02*
X531771D01*
X412500Y340693D02*
Y345000D01*
X415500Y348000D01*
X463500Y341406D02*
X464000Y340906D01*
X463500Y341406D02*
Y347229D01*
X462500Y348229D02*
X463500Y347229D01*
X462500Y348229D02*
Y348500D01*
X413154Y299846D02*
X416500Y296500D01*
X413154Y299846D02*
Y306000D01*
X690500Y245905D02*
Y253000D01*
Y232000D02*
Y240094D01*
X585000Y256500D02*
X592500D01*
X574000Y255500D02*
Y259500D01*
X576500Y262000D01*
X571000Y242000D02*
X574000Y245000D01*
Y249689D01*
X582303Y241500D02*
X585000D01*
X577191Y237191D02*
X577994D01*
X582303Y241500D01*
X577000Y237000D02*
X577191Y237191D01*
X647016Y481416D02*
Y482100D01*
X622637Y486276D02*
X626497D01*
X553000Y466591D02*
X564491Y455100D01*
X620700D01*
X647016Y481416D01*
X426339Y357500D02*
X428339Y359500D01*
X432217D01*
X562724Y289000D02*
X564724Y291000D01*
X566594D01*
X647016Y482100D02*
Y487850D01*
X604449Y256500D02*
X610327D01*
X451000Y293130D02*
Y297000D01*
X572406Y291000D02*
X576276D01*
X572406Y300500D02*
X576276D01*
X609000Y477494D02*
Y479038D01*
X605637Y482401D02*
X609000Y479038D01*
X605637Y482401D02*
Y485846D01*
X684400Y440814D02*
Y442589D01*
X681500Y437914D02*
X684400Y440814D01*
X681500Y434236D02*
Y437914D01*
D80*
X537895Y379287D02*
X540213D01*
X540500Y379000D01*
X536978Y380204D02*
Y381447D01*
X539061Y383530D01*
X536978Y380204D02*
X537895Y379287D01*
X460500Y402500D02*
X466502Y396498D01*
X470500Y394094D02*
Y394134D01*
X468136Y396498D02*
X470500Y394134D01*
X466502Y396498D02*
X468136D01*
X427097Y320629D02*
X427975Y319750D01*
X457250D01*
X427097Y320629D02*
Y323984D01*
X457250Y319750D02*
X465500Y328000D01*
X568500Y441594D02*
X569379Y440715D01*
Y435879D02*
Y440715D01*
X568500Y441594D02*
Y442000D01*
X367000Y341484D02*
X369000Y343484D01*
Y355500D01*
X367000Y329873D02*
Y341484D01*
Y329873D02*
X371954Y324919D01*
X569500Y404341D02*
Y408500D01*
X568762Y403603D02*
X569500Y404341D01*
X568762Y399820D02*
Y403603D01*
X567884Y398941D02*
X568762Y399820D01*
X564000Y398941D02*
X567884D01*
X568500Y435000D02*
X569379Y435879D01*
X564000Y435000D02*
X568500D01*
X564000Y419646D02*
X564002Y419648D01*
X567742D01*
X570299Y422205D01*
X572594Y424500D01*
X573000D01*
X564000Y422205D02*
X570299D01*
X572738Y424762D02*
X573000Y424500D01*
X570177Y427323D02*
X572738Y424762D01*
X564002D02*
X572738D01*
X564000Y424764D02*
X564002Y424762D01*
X564000Y427323D02*
X570177D01*
X564000Y401500D02*
Y406500D01*
X662526Y268560D02*
X664648Y266439D01*
X662526Y271121D02*
X663500Y272094D01*
Y272500D01*
X662526Y268560D02*
Y271121D01*
X664648Y264156D02*
Y266439D01*
Y264156D02*
X664705Y264098D01*
X643715Y278581D02*
Y280457D01*
X646644Y283387D02*
Y284887D01*
X645766Y285766D02*
X646644Y284887D01*
X642758Y285766D02*
X645766D01*
X642595Y277500D02*
X642634D01*
X643715Y278581D01*
Y280457D02*
X646644Y283387D01*
X642701Y285823D02*
X642758Y285766D01*
X532000Y434000D02*
X532406D01*
X533406Y435000D02*
X541402D01*
X532406Y434000D02*
X533406Y435000D01*
X541402Y422205D02*
X541459Y422148D01*
X544853D01*
X546030Y420971D01*
X541402Y408154D02*
X541407Y408159D01*
Y412234D01*
X546030Y416857D01*
Y420971D01*
X536318Y414287D02*
X539118Y417087D01*
X534787Y414287D02*
X536318D01*
X534500Y414000D02*
X534787Y414287D01*
X539118Y417087D02*
X541402D01*
X539061Y383530D02*
X541344D01*
X541402Y383587D01*
X404356Y340908D02*
X412286D01*
X404299Y340965D02*
X404356Y340908D01*
X412286D02*
X412500Y340693D01*
X541402Y401500D02*
Y408154D01*
X673500Y302556D02*
Y307000D01*
X665299Y301177D02*
X672121D01*
X673500Y302556D01*
X428879Y325766D02*
X432144D01*
X427097Y323984D02*
X428879Y325766D01*
X432144D02*
X432201Y325823D01*
X464000Y329906D02*
X465500Y328406D01*
Y328000D02*
Y328406D01*
X464000Y329906D02*
Y335094D01*
X454799Y341177D02*
X462228D01*
X376003Y325610D02*
X381701D01*
X375311Y324919D02*
X376003Y325610D01*
X371954Y324919D02*
X375311D01*
X685000Y247500D02*
X690500Y253000D01*
X685000Y238000D02*
Y247500D01*
X683000Y236000D02*
X685000Y238000D01*
X680059Y237172D02*
Y241500D01*
Y237172D02*
X681231Y236000D01*
X683000D01*
D81*
X441000Y219000D02*
D03*
X693000Y488000D02*
D03*
D82*
X411000Y225500D02*
D03*
X401000D02*
D03*
X667500Y216500D02*
D03*
X677500D02*
D03*
D83*
X391000Y225500D02*
D03*
X657500Y216500D02*
D03*
D84*
X401000Y261657D02*
D03*
Y281343D02*
D03*
D85*
X553000Y466591D02*
D03*
X644173Y435000D02*
D03*
D86*
X553000Y486276D02*
D03*
D87*
X518800Y495500D02*
D03*
X674173Y367000D02*
D03*
X663858Y401500D02*
D03*
D88*
X518800Y485500D02*
D03*
X508800Y495500D02*
D03*
X498800D02*
D03*
X508800Y485500D02*
D03*
X498800D02*
D03*
X488800Y495500D02*
D03*
Y485500D02*
D03*
X644173Y357000D02*
D03*
Y367000D02*
D03*
X654173Y357000D02*
D03*
X664173D02*
D03*
X654173Y367000D02*
D03*
X664173D02*
D03*
X674173Y357000D02*
D03*
X643858Y391500D02*
D03*
X653858D02*
D03*
X663858D02*
D03*
X643858Y401500D02*
D03*
X653858D02*
D03*
D89*
X619000Y295500D02*
D03*
Y305500D02*
D03*
Y315500D02*
D03*
D90*
Y325500D02*
D03*
D91*
X588137Y440346D02*
D03*
X598137D02*
D03*
X588137Y430346D02*
D03*
X598137D02*
D03*
X588137Y420346D02*
D03*
X598137D02*
D03*
X588137Y410346D02*
D03*
X598137D02*
D03*
X588137Y400346D02*
D03*
D92*
X598137D02*
D03*
D93*
X663858Y435000D02*
D03*
D94*
X556500Y355000D02*
D03*
Y345000D02*
D03*
Y335000D02*
D03*
Y325000D02*
D03*
Y315000D02*
D03*
Y305000D02*
D03*
Y295000D02*
D03*
Y285000D02*
D03*
Y275000D02*
D03*
Y265000D02*
D03*
Y255000D02*
D03*
Y245000D02*
D03*
Y235000D02*
D03*
Y225000D02*
D03*
X525500D02*
D03*
Y235000D02*
D03*
Y245000D02*
D03*
Y255000D02*
D03*
Y265000D02*
D03*
Y275000D02*
D03*
Y285000D02*
D03*
Y295000D02*
D03*
Y305000D02*
D03*
Y315000D02*
D03*
Y325000D02*
D03*
Y335000D02*
D03*
Y345000D02*
D03*
D95*
Y355000D02*
D03*
D96*
X439500Y495500D02*
D03*
Y485500D02*
D03*
X409500Y495500D02*
D03*
Y485500D02*
D03*
X399500Y495500D02*
D03*
Y485500D02*
D03*
X379500Y495500D02*
D03*
X389500Y485500D02*
D03*
Y495500D02*
D03*
X419500Y485500D02*
D03*
Y495500D02*
D03*
X429500Y485500D02*
D03*
Y495500D02*
D03*
X449500Y485500D02*
D03*
X459500D02*
D03*
X449500Y495500D02*
D03*
X459500D02*
D03*
D97*
X379500Y485500D02*
D03*
D98*
X669811Y491000D02*
D03*
X636189D02*
D03*
D99*
X483000Y362000D02*
D03*
X506086Y392614D02*
D03*
X505500Y404614D02*
D03*
X512393Y387607D02*
D03*
X504900Y398614D02*
D03*
X512000Y404500D02*
D03*
X398000Y327000D02*
D03*
X389500Y327500D02*
D03*
X535500Y248000D02*
D03*
X402000Y347000D02*
D03*
X472500Y407000D02*
D03*
X460500Y402500D02*
D03*
X637500Y479500D02*
D03*
X664000Y480000D02*
D03*
X635500Y278500D02*
D03*
X649500Y265500D02*
D03*
X650000Y254500D02*
D03*
X470500Y253500D02*
D03*
Y271500D02*
D03*
X445000D02*
D03*
X478000Y276500D02*
D03*
X451500Y309000D02*
D03*
X444200Y313900D02*
D03*
X475500Y305000D02*
D03*
X463500Y309000D02*
D03*
X421000Y343000D02*
D03*
X420500Y328025D02*
D03*
X412000Y328500D02*
D03*
X520500Y441500D02*
D03*
X510000D02*
D03*
X489000Y442000D02*
D03*
X499500D02*
D03*
X541000Y448500D02*
D03*
X568500Y442000D02*
D03*
X614500Y440000D02*
D03*
X681500Y420500D02*
D03*
X690500Y384000D02*
D03*
X677500D02*
D03*
X634000D02*
D03*
X612500Y383500D02*
D03*
X674000Y474000D02*
D03*
X626000Y479000D02*
D03*
X618000Y479500D02*
D03*
X629500Y496500D02*
D03*
X618500Y497000D02*
D03*
X609500Y496500D02*
D03*
X587500Y499500D02*
D03*
X601500Y505000D02*
D03*
X593500Y476000D02*
D03*
X598000Y479000D02*
D03*
X588500Y478500D02*
D03*
X457500Y430500D02*
D03*
X492000Y421000D02*
D03*
X506500Y420500D02*
D03*
X508500Y409500D02*
D03*
X484500Y402500D02*
D03*
X491000Y401500D02*
D03*
X472500Y383500D02*
D03*
X440000Y389500D02*
D03*
X419000Y407000D02*
D03*
X421000Y387500D02*
D03*
X414500Y384000D02*
D03*
X406500Y403000D02*
D03*
X384000Y402000D02*
D03*
X389500Y403500D02*
D03*
X386500Y351000D02*
D03*
X378000Y352500D02*
D03*
X372000Y363500D02*
D03*
X367000Y361500D02*
D03*
X369000Y355500D02*
D03*
X569500Y408500D02*
D03*
X576500Y414500D02*
D03*
X577500Y422000D02*
D03*
X576012Y400600D02*
D03*
X574012Y393034D02*
D03*
X564000Y406500D02*
D03*
X553500Y408500D02*
D03*
X549000Y399500D02*
D03*
X663500Y272500D02*
D03*
X654040Y273540D02*
D03*
X657000Y279000D02*
D03*
X532000Y434000D02*
D03*
X549629Y419129D02*
D03*
X548500Y424500D02*
D03*
X573000D02*
D03*
X534500Y414000D02*
D03*
X530507Y420493D02*
D03*
X535759Y404941D02*
D03*
X531500Y442000D02*
D03*
X415500Y348000D02*
D03*
X540500Y379000D02*
D03*
X534000Y390000D02*
D03*
X673500Y307000D02*
D03*
X651000Y300500D02*
D03*
X648000Y307000D02*
D03*
X389500Y443000D02*
D03*
X418000Y377500D02*
D03*
X379500Y443000D02*
D03*
X462500Y348500D02*
D03*
X465500Y328000D02*
D03*
X416500Y296500D02*
D03*
X373300Y328169D02*
D03*
X690500Y253000D02*
D03*
Y232000D02*
D03*
X594000Y251000D02*
D03*
X614000Y232500D02*
D03*
X592500Y256500D02*
D03*
X576500Y262000D02*
D03*
X571000Y242000D02*
D03*
X577000Y237000D02*
D03*
X607200Y406100D02*
D03*
X499700Y380400D02*
D03*
X589400Y361100D02*
D03*
X389300Y336900D02*
D03*
X697800Y372900D02*
D03*
X496700Y327400D02*
D03*
X602500Y384200D02*
D03*
X399500Y359500D02*
D03*
X389300Y364500D02*
D03*
X393300Y370000D02*
D03*
X665000Y308200D02*
D03*
X677500Y287600D02*
D03*
X673400Y296400D02*
D03*
X648550Y290900D02*
D03*
X680500Y273659D02*
D03*
X577200Y430400D02*
D03*
X444100Y382300D02*
D03*
X423300Y349600D02*
D03*
X440700Y394500D02*
D03*
X439500Y426000D02*
D03*
X426339Y357500D02*
D03*
X562724Y289000D02*
D03*
X610327Y256500D02*
D03*
X451000Y293130D02*
D03*
X576276Y291000D02*
D03*
Y300500D02*
D03*
X609000Y477494D02*
D03*
X684400Y442589D02*
D03*
M02*
