G04*
G04 #@! TF.GenerationSoftware,Altium Limited,Altium Designer,22.0.2 (36)*
G04*
G04 Layer_Color=0*
%FSLAX25Y25*%
%MOIN*%
G70*
G04*
G04 #@! TF.SameCoordinates,8DF1FA55-F0BE-4FEE-A998-D7D1BBD61996*
G04*
G04*
G04 #@! TF.FilePolarity,Positive*
G04*
G01*
G75*
%ADD112C,0.00394*%
D112*
X468532Y253500D02*
X472469D01*
X470500Y251532D02*
Y255469D01*
X367500Y369771D02*
Y373708D01*
X365532Y371740D02*
X369469D01*
X644173Y321532D02*
Y325469D01*
X642205Y323500D02*
X646142D01*
X663858Y321532D02*
Y325469D01*
X661890Y323500D02*
X665827D01*
X653858Y321532D02*
Y325469D01*
X651890Y323500D02*
X655827D01*
X673500Y321532D02*
Y325469D01*
X671532Y323500D02*
X675469D01*
X689500Y394752D02*
Y398689D01*
X687532Y396721D02*
X691469D01*
X618000Y394532D02*
Y398469D01*
X616032Y396500D02*
X619969D01*
X680000Y394752D02*
Y398689D01*
X678032Y396721D02*
X681969D01*
X628000Y394532D02*
Y398469D01*
X626032Y396500D02*
X629969D01*
X409500Y441032D02*
Y444969D01*
X407532Y443000D02*
X411469D01*
X399500Y424032D02*
Y427969D01*
X397532Y426000D02*
X401469D01*
X439500Y424032D02*
Y427969D01*
X437532Y426000D02*
X441469D01*
X419500Y441032D02*
Y444969D01*
X417532Y443000D02*
X421469D01*
X379500Y424032D02*
Y427969D01*
X377532Y426000D02*
X381469D01*
X389500Y424032D02*
Y427969D01*
X387532Y426000D02*
X391469D01*
X397532Y443000D02*
X401469D01*
X399500Y441032D02*
Y444969D01*
X377532Y443000D02*
X381469D01*
X379500Y441032D02*
Y444969D01*
X387532Y443000D02*
X391469D01*
X389500Y441032D02*
Y444969D01*
X447532Y426000D02*
X451469D01*
X449500Y424032D02*
Y427969D01*
X457532Y443000D02*
X461469D01*
X459500Y441032D02*
Y444969D01*
X437532Y443000D02*
X441469D01*
X439500Y441032D02*
Y444969D01*
X427532Y443000D02*
X431469D01*
X429500Y441032D02*
Y444969D01*
X447532Y443000D02*
X451469D01*
X449500Y441032D02*
Y444969D01*
X620669Y488638D02*
X624606D01*
X622637Y486669D02*
Y490606D01*
X612169Y488638D02*
X616106D01*
X614137Y486669D02*
Y490606D01*
M02*
