G04*
G04 #@! TF.GenerationSoftware,Altium Limited,Altium Designer,22.0.2 (36)*
G04*
G04 Layer_Color=8388736*
%FSLAX25Y25*%
%MOIN*%
G70*
G04*
G04 #@! TF.SameCoordinates,952CAA48-3728-48F0-9C98-E899784471C3*
G04*
G04*
G04 #@! TF.FilePolarity,Negative*
G04*
G01*
G75*
%ADD19R,0.07087X0.04134*%
%ADD31R,0.03773X0.03961*%
%ADD32R,0.06528X0.03764*%
%ADD35R,0.03543X0.02953*%
G04:AMPARAMS|DCode=40|XSize=65.75mil|YSize=19.68mil|CornerRadius=3.94mil|HoleSize=0mil|Usage=FLASHONLY|Rotation=0.000|XOffset=0mil|YOffset=0mil|HoleType=Round|Shape=RoundedRectangle|*
%AMROUNDEDRECTD40*
21,1,0.06575,0.01181,0,0,0.0*
21,1,0.05787,0.01968,0,0,0.0*
1,1,0.00787,0.02894,-0.00591*
1,1,0.00787,-0.02894,-0.00591*
1,1,0.00787,-0.02894,0.00591*
1,1,0.00787,0.02894,0.00591*
%
%ADD40ROUNDEDRECTD40*%
G04:AMPARAMS|DCode=41|XSize=65.75mil|YSize=20.08mil|CornerRadius=3.99mil|HoleSize=0mil|Usage=FLASHONLY|Rotation=180.000|XOffset=0mil|YOffset=0mil|HoleType=Round|Shape=RoundedRectangle|*
%AMROUNDEDRECTD41*
21,1,0.06575,0.01211,0,0,180.0*
21,1,0.05778,0.02008,0,0,180.0*
1,1,0.00797,-0.02889,0.00605*
1,1,0.00797,0.02889,0.00605*
1,1,0.00797,0.02889,-0.00605*
1,1,0.00797,-0.02889,-0.00605*
%
%ADD41ROUNDEDRECTD41*%
G04:AMPARAMS|DCode=42|XSize=65.75mil|YSize=20.08mil|CornerRadius=3.99mil|HoleSize=0mil|Usage=FLASHONLY|Rotation=270.000|XOffset=0mil|YOffset=0mil|HoleType=Round|Shape=RoundedRectangle|*
%AMROUNDEDRECTD42*
21,1,0.06575,0.01211,0,0,270.0*
21,1,0.05778,0.02008,0,0,270.0*
1,1,0.00797,-0.00605,-0.02889*
1,1,0.00797,-0.00605,0.02889*
1,1,0.00797,0.00605,0.02889*
1,1,0.00797,0.00605,-0.02889*
%
%ADD42ROUNDEDRECTD42*%
%ADD43R,0.04461X0.04540*%
%ADD44R,0.06700X0.03000*%
%ADD45R,0.07769X0.04934*%
%ADD46R,0.03386X0.05394*%
%ADD47R,0.03792X0.05800*%
%ADD48R,0.05367X0.06587*%
%ADD49R,0.04934X0.04737*%
%ADD50R,0.04934X0.07769*%
G04:AMPARAMS|DCode=51|XSize=85.56mil|YSize=31.62mil|CornerRadius=6.95mil|HoleSize=0mil|Usage=FLASHONLY|Rotation=0.000|XOffset=0mil|YOffset=0mil|HoleType=Round|Shape=RoundedRectangle|*
%AMROUNDEDRECTD51*
21,1,0.08556,0.01772,0,0,0.0*
21,1,0.07165,0.03162,0,0,0.0*
1,1,0.01391,0.03583,-0.00886*
1,1,0.01391,-0.03583,-0.00886*
1,1,0.01391,-0.03583,0.00886*
1,1,0.01391,0.03583,0.00886*
%
%ADD51ROUNDEDRECTD51*%
%ADD52R,0.04540X0.04461*%
%ADD53R,0.04619X0.04422*%
%ADD54R,0.10131X0.14068*%
G04:AMPARAMS|DCode=55|XSize=85.56mil|YSize=32.02mil|CornerRadius=7mil|HoleSize=0mil|Usage=FLASHONLY|Rotation=0.000|XOffset=0mil|YOffset=0mil|HoleType=Round|Shape=RoundedRectangle|*
%AMROUNDEDRECTD55*
21,1,0.08556,0.01801,0,0,0.0*
21,1,0.07156,0.03202,0,0,0.0*
1,1,0.01400,0.03578,-0.00901*
1,1,0.01400,-0.03578,-0.00901*
1,1,0.01400,-0.03578,0.00901*
1,1,0.01400,0.03578,0.00901*
%
%ADD55ROUNDEDRECTD55*%
%ADD56R,0.04461X0.04776*%
%ADD57R,0.03150X0.08268*%
%ADD58R,0.03543X0.08268*%
%ADD59R,0.04343X0.08674*%
%ADD60R,0.10249X0.08280*%
%ADD61C,0.24422*%
%ADD62C,0.05918*%
%ADD63R,0.05918X0.05918*%
%ADD64C,0.06343*%
%ADD65C,0.09068*%
%ADD66R,0.09068X0.09068*%
%ADD67R,0.06902X0.06902*%
%ADD68C,0.06902*%
%ADD69C,0.05682*%
%ADD70R,0.05682X0.05682*%
%ADD71C,0.06194*%
%ADD72R,0.06194X0.06194*%
%ADD73R,0.09068X0.09068*%
%ADD74C,0.05721*%
%ADD75R,0.05721X0.05721*%
%ADD76C,0.07296*%
%ADD77R,0.07296X0.07296*%
%ADD78C,0.03800*%
G36*
X280065Y292763D02*
X279942Y292773D01*
X279819Y292789D01*
X279698Y292811D01*
X279578Y292840D01*
X279459Y292876D01*
X279342Y292917D01*
X279228Y292964D01*
X279117Y293017D01*
X279008Y293076D01*
X278902Y293141D01*
X278801Y293211D01*
X278702Y293286D01*
X278608Y293367D01*
X278519Y293452D01*
X278433Y293541D01*
X278353Y293636D01*
X278278Y293734D01*
X278208Y293835D01*
X278143Y293941D01*
X278084Y294050D01*
X278031Y294161D01*
X277984Y294275D01*
X277942Y294392D01*
X277907Y294511D01*
X277878Y294631D01*
X277856Y294753D01*
X277840Y294875D01*
X277830Y294998D01*
X277827Y295122D01*
Y297878D01*
X277830Y298002D01*
X277840Y298125D01*
X277856Y298248D01*
X277878Y298369D01*
X277907Y298489D01*
X277942Y298608D01*
X277984Y298725D01*
X278031Y298839D01*
X278084Y298950D01*
X278143Y299059D01*
X278208Y299165D01*
X278278Y299266D01*
X278353Y299364D01*
X278433Y299459D01*
X278519Y299548D01*
X278608Y299633D01*
X278702Y299714D01*
X278801Y299789D01*
X278902Y299859D01*
X279008Y299924D01*
X279117Y299983D01*
X279228Y300036D01*
X279342Y300083D01*
X279459Y300125D01*
X279578Y300160D01*
X279698Y300188D01*
X279819Y300211D01*
X279942Y300227D01*
X280065Y300237D01*
X280189Y300240D01*
X280313Y300237D01*
X280436Y300227D01*
X280558Y300211D01*
X280680Y300188D01*
X280800Y300160D01*
X280919Y300125D01*
X281035Y300083D01*
X281150Y300036D01*
X281261Y299983D01*
X281370Y299924D01*
X281475Y299859D01*
X281577Y299789D01*
X281676Y299714D01*
X281770Y299633D01*
X281859Y299548D01*
X281944Y299459D01*
X282025Y299364D01*
X282100Y299266D01*
X282170Y299165D01*
X282235Y299059D01*
X282294Y298950D01*
X282347Y298839D01*
X282394Y298725D01*
X282436Y298608D01*
X282471Y298489D01*
X282500Y298369D01*
X282522Y298248D01*
X282538Y298125D01*
X282548Y298002D01*
X282551Y297878D01*
Y295122D01*
X282548Y294998D01*
X282538Y294875D01*
X282522Y294753D01*
X282500Y294631D01*
X282471Y294511D01*
X282436Y294392D01*
X282394Y294275D01*
X282347Y294161D01*
X282294Y294050D01*
X282235Y293941D01*
X282170Y293835D01*
X282100Y293734D01*
X282025Y293636D01*
X281944Y293541D01*
X281859Y293452D01*
X281770Y293367D01*
X281676Y293286D01*
X281577Y293211D01*
X281475Y293141D01*
X281370Y293076D01*
X281261Y293017D01*
X281150Y292964D01*
X281035Y292917D01*
X280919Y292876D01*
X280800Y292840D01*
X280680Y292811D01*
X280558Y292789D01*
X280436Y292773D01*
X280313Y292763D01*
X280189Y292760D01*
X280065Y292763D01*
D02*
G37*
G36*
X313687D02*
X313564Y292773D01*
X313441Y292789D01*
X313320Y292811D01*
X313200Y292840D01*
X313081Y292876D01*
X312965Y292917D01*
X312850Y292964D01*
X312739Y293017D01*
X312630Y293076D01*
X312525Y293141D01*
X312423Y293211D01*
X312324Y293286D01*
X312230Y293367D01*
X312141Y293452D01*
X312056Y293541D01*
X311975Y293636D01*
X311900Y293734D01*
X311830Y293835D01*
X311765Y293941D01*
X311706Y294050D01*
X311653Y294161D01*
X311606Y294275D01*
X311564Y294392D01*
X311529Y294511D01*
X311500Y294631D01*
X311478Y294753D01*
X311462Y294875D01*
X311452Y294998D01*
X311449Y295122D01*
Y297878D01*
X311452Y298002D01*
X311462Y298125D01*
X311478Y298248D01*
X311500Y298369D01*
X311529Y298489D01*
X311564Y298608D01*
X311606Y298725D01*
X311653Y298839D01*
X311706Y298950D01*
X311765Y299059D01*
X311830Y299165D01*
X311900Y299266D01*
X311975Y299364D01*
X312056Y299459D01*
X312141Y299548D01*
X312230Y299633D01*
X312324Y299714D01*
X312423Y299789D01*
X312525Y299859D01*
X312630Y299924D01*
X312739Y299983D01*
X312850Y300036D01*
X312965Y300083D01*
X313081Y300125D01*
X313200Y300160D01*
X313320Y300188D01*
X313441Y300211D01*
X313564Y300227D01*
X313687Y300237D01*
X313811Y300240D01*
X313935Y300237D01*
X314058Y300227D01*
X314180Y300211D01*
X314302Y300188D01*
X314422Y300160D01*
X314541Y300125D01*
X314658Y300083D01*
X314772Y300036D01*
X314883Y299983D01*
X314992Y299924D01*
X315098Y299859D01*
X315199Y299789D01*
X315298Y299714D01*
X315392Y299633D01*
X315481Y299548D01*
X315566Y299459D01*
X315647Y299364D01*
X315722Y299266D01*
X315792Y299165D01*
X315857Y299059D01*
X315916Y298950D01*
X315969Y298839D01*
X316016Y298725D01*
X316058Y298608D01*
X316093Y298489D01*
X316122Y298369D01*
X316144Y298248D01*
X316160Y298125D01*
X316170Y298002D01*
X316173Y297878D01*
Y295122D01*
X316170Y294998D01*
X316160Y294875D01*
X316144Y294753D01*
X316122Y294631D01*
X316093Y294511D01*
X316058Y294392D01*
X316016Y294275D01*
X315969Y294161D01*
X315916Y294050D01*
X315857Y293941D01*
X315792Y293835D01*
X315722Y293734D01*
X315647Y293636D01*
X315566Y293541D01*
X315481Y293452D01*
X315392Y293367D01*
X315298Y293286D01*
X315199Y293211D01*
X315098Y293141D01*
X314992Y293076D01*
X314883Y293017D01*
X314772Y292964D01*
X314658Y292917D01*
X314541Y292876D01*
X314422Y292840D01*
X314302Y292811D01*
X314180Y292789D01*
X314058Y292773D01*
X313935Y292763D01*
X313811Y292760D01*
X313687Y292763D01*
D02*
G37*
D19*
X114500Y64020D02*
D03*
Y53980D02*
D03*
X53500Y243480D02*
D03*
Y253520D02*
D03*
X43500Y226480D02*
D03*
Y236520D02*
D03*
X83500Y226480D02*
D03*
Y236520D02*
D03*
X63500Y243480D02*
D03*
Y253520D02*
D03*
X23500Y226480D02*
D03*
Y236520D02*
D03*
X33500Y226480D02*
D03*
Y236520D02*
D03*
X43500Y253520D02*
D03*
Y243480D02*
D03*
X23500Y253520D02*
D03*
Y243480D02*
D03*
X33500Y253520D02*
D03*
Y243480D02*
D03*
X93500Y236520D02*
D03*
Y226480D02*
D03*
X103500Y253520D02*
D03*
Y243480D02*
D03*
X83500Y253520D02*
D03*
Y243480D02*
D03*
X73500Y253520D02*
D03*
Y243480D02*
D03*
X93500Y253520D02*
D03*
Y243480D02*
D03*
D31*
X11500Y174480D02*
D03*
Y180000D02*
D03*
D32*
X288173Y123779D02*
D03*
Y134221D02*
D03*
X307858Y123779D02*
D03*
Y134221D02*
D03*
X297858Y123779D02*
D03*
Y134221D02*
D03*
X317500Y123779D02*
D03*
Y134221D02*
D03*
X333500Y197000D02*
D03*
Y207442D02*
D03*
X262000Y196779D02*
D03*
Y207221D02*
D03*
X324000Y197000D02*
D03*
Y207442D02*
D03*
X272000Y196779D02*
D03*
Y207221D02*
D03*
D35*
X266637Y291776D02*
D03*
Y296500D02*
D03*
X258137Y291776D02*
D03*
Y296500D02*
D03*
D40*
X76201Y131323D02*
D03*
Y133882D02*
D03*
Y136441D02*
D03*
Y139000D02*
D03*
Y141559D02*
D03*
Y144118D02*
D03*
Y146677D02*
D03*
X98799D02*
D03*
Y144118D02*
D03*
Y141559D02*
D03*
Y139000D02*
D03*
Y136441D02*
D03*
Y133882D02*
D03*
Y131323D02*
D03*
X48299Y131110D02*
D03*
Y133669D02*
D03*
Y136228D02*
D03*
Y138787D02*
D03*
Y141346D02*
D03*
Y143906D02*
D03*
Y146465D02*
D03*
X25701D02*
D03*
Y143906D02*
D03*
Y141346D02*
D03*
Y138787D02*
D03*
Y136228D02*
D03*
Y133669D02*
D03*
Y131110D02*
D03*
D41*
X286701Y91323D02*
D03*
Y93882D02*
D03*
Y96441D02*
D03*
Y99000D02*
D03*
Y101559D02*
D03*
Y104118D02*
D03*
Y106677D02*
D03*
X309299D02*
D03*
Y104118D02*
D03*
Y101559D02*
D03*
Y99000D02*
D03*
Y96441D02*
D03*
Y93882D02*
D03*
Y91323D02*
D03*
X208000Y240500D02*
D03*
Y237941D02*
D03*
Y235382D02*
D03*
Y232823D02*
D03*
Y230264D02*
D03*
Y227705D02*
D03*
Y225146D02*
D03*
Y222587D02*
D03*
X185402D02*
D03*
Y225146D02*
D03*
Y227705D02*
D03*
Y230264D02*
D03*
Y232823D02*
D03*
Y235382D02*
D03*
Y237941D02*
D03*
Y240500D02*
D03*
X208000Y207000D02*
D03*
Y204441D02*
D03*
Y201882D02*
D03*
Y199323D02*
D03*
Y196764D02*
D03*
Y194205D02*
D03*
Y191646D02*
D03*
Y189087D02*
D03*
X185402D02*
D03*
Y191646D02*
D03*
Y194205D02*
D03*
Y196764D02*
D03*
Y199323D02*
D03*
Y201882D02*
D03*
Y204441D02*
D03*
Y207000D02*
D03*
D42*
X324059Y69598D02*
D03*
X321500D02*
D03*
X318941D02*
D03*
X316382D02*
D03*
X313823D02*
D03*
X311264D02*
D03*
X308705D02*
D03*
Y47000D02*
D03*
X311264D02*
D03*
X313823D02*
D03*
X316382D02*
D03*
X318941D02*
D03*
X321500D02*
D03*
X324059D02*
D03*
D43*
X95000Y102500D02*
D03*
Y108311D02*
D03*
X218000Y61000D02*
D03*
Y55189D02*
D03*
X334500Y51405D02*
D03*
Y45594D02*
D03*
X131000Y220000D02*
D03*
Y214189D02*
D03*
X56500Y140382D02*
D03*
Y146193D02*
D03*
X108000Y146406D02*
D03*
Y140594D02*
D03*
X62000Y205406D02*
D03*
Y199594D02*
D03*
X114500Y205406D02*
D03*
Y199594D02*
D03*
X242137Y291232D02*
D03*
Y297043D02*
D03*
D44*
X81900Y86500D02*
D03*
Y81500D02*
D03*
Y76500D02*
D03*
Y71500D02*
D03*
Y66500D02*
D03*
Y61500D02*
D03*
Y56500D02*
D03*
X103500D02*
D03*
Y61500D02*
D03*
Y66500D02*
D03*
Y71500D02*
D03*
Y76500D02*
D03*
Y81500D02*
D03*
Y86500D02*
D03*
X162800Y220000D02*
D03*
Y215000D02*
D03*
Y210000D02*
D03*
Y205000D02*
D03*
Y200000D02*
D03*
Y195000D02*
D03*
Y190000D02*
D03*
X141200D02*
D03*
Y195000D02*
D03*
Y200000D02*
D03*
Y205000D02*
D03*
Y210000D02*
D03*
Y215000D02*
D03*
Y220000D02*
D03*
D45*
X114500Y71500D02*
D03*
Y83193D02*
D03*
X164500Y253244D02*
D03*
Y241551D02*
D03*
X143500Y253244D02*
D03*
Y241551D02*
D03*
X154000Y253244D02*
D03*
Y241551D02*
D03*
X133000Y253244D02*
D03*
Y241551D02*
D03*
X118000Y165067D02*
D03*
Y176760D02*
D03*
X266637Y245846D02*
D03*
Y234154D02*
D03*
D46*
X231500Y150559D02*
D03*
Y180441D02*
D03*
X246500Y150559D02*
D03*
Y180441D02*
D03*
D47*
X236500Y150559D02*
D03*
Y180441D02*
D03*
X241500Y150559D02*
D03*
Y180441D02*
D03*
D48*
X227055Y71500D02*
D03*
X233945D02*
D03*
D49*
X294453Y40500D02*
D03*
X288547D02*
D03*
D50*
X299610Y50000D02*
D03*
X287917D02*
D03*
X299610Y71000D02*
D03*
X287917D02*
D03*
Y60500D02*
D03*
X299610D02*
D03*
X68847Y111500D02*
D03*
X57154D02*
D03*
D51*
X248449Y62000D02*
D03*
Y57000D02*
D03*
Y52000D02*
D03*
Y47000D02*
D03*
X229000D02*
D03*
Y52000D02*
D03*
Y57000D02*
D03*
Y62000D02*
D03*
D52*
X185095Y247000D02*
D03*
X190906D02*
D03*
X286595Y83000D02*
D03*
X292406D02*
D03*
X185402Y213654D02*
D03*
X191213D02*
D03*
X216406Y96500D02*
D03*
X210594D02*
D03*
X216406Y106000D02*
D03*
X210594D02*
D03*
D53*
X104500Y108602D02*
D03*
Y102500D02*
D03*
X112299Y108602D02*
D03*
Y102500D02*
D03*
D54*
X257469Y270500D02*
D03*
X238532D02*
D03*
X289236Y269000D02*
D03*
X308173D02*
D03*
D55*
X76217Y200000D02*
D03*
Y195000D02*
D03*
Y190000D02*
D03*
Y185000D02*
D03*
Y180000D02*
D03*
Y175000D02*
D03*
Y170000D02*
D03*
Y165000D02*
D03*
X103500D02*
D03*
Y170000D02*
D03*
Y175000D02*
D03*
Y180000D02*
D03*
Y185000D02*
D03*
Y190000D02*
D03*
Y195000D02*
D03*
Y200000D02*
D03*
X23500D02*
D03*
Y195000D02*
D03*
Y190000D02*
D03*
Y185000D02*
D03*
Y180000D02*
D03*
Y175000D02*
D03*
Y170000D02*
D03*
Y165000D02*
D03*
X50783D02*
D03*
Y170000D02*
D03*
Y175000D02*
D03*
Y180000D02*
D03*
Y185000D02*
D03*
Y190000D02*
D03*
Y195000D02*
D03*
Y200000D02*
D03*
D56*
X235137Y296929D02*
D03*
Y291346D02*
D03*
X249637D02*
D03*
Y296929D02*
D03*
X325500Y234154D02*
D03*
Y239736D02*
D03*
D57*
X298968Y293350D02*
D03*
X295031D02*
D03*
D58*
X302984D02*
D03*
X291016D02*
D03*
D59*
X307827D02*
D03*
X286173D02*
D03*
D60*
X145000Y80500D02*
D03*
Y98216D02*
D03*
D61*
X85000Y24500D02*
D03*
X337000Y293500D02*
D03*
D62*
X55000Y31000D02*
D03*
X45000D02*
D03*
X311500Y22000D02*
D03*
X321500D02*
D03*
D63*
X35000Y31000D02*
D03*
X301500Y22000D02*
D03*
D64*
X45000Y67157D02*
D03*
Y86843D02*
D03*
D65*
X197000Y272091D02*
D03*
X288173Y240500D02*
D03*
D66*
X197000Y291776D02*
D03*
D67*
X162800Y301000D02*
D03*
X318173Y172500D02*
D03*
X307858Y207000D02*
D03*
D68*
X162800Y291000D02*
D03*
X152800Y301000D02*
D03*
X142800D02*
D03*
X152800Y291000D02*
D03*
X142800D02*
D03*
X132800Y301000D02*
D03*
Y291000D02*
D03*
X288173Y162500D02*
D03*
Y172500D02*
D03*
X298173Y162500D02*
D03*
X308173D02*
D03*
X298173Y172500D02*
D03*
X308173D02*
D03*
X318173Y162500D02*
D03*
X287858Y197000D02*
D03*
X297858D02*
D03*
X307858D02*
D03*
X287858Y207000D02*
D03*
X297858D02*
D03*
D69*
X263000Y101000D02*
D03*
Y111000D02*
D03*
Y121000D02*
D03*
D70*
Y131000D02*
D03*
D71*
X232137Y245846D02*
D03*
X242137D02*
D03*
X232137Y235846D02*
D03*
X242137D02*
D03*
X232137Y225846D02*
D03*
X242137D02*
D03*
X232137Y215846D02*
D03*
X242137D02*
D03*
X232137Y205846D02*
D03*
D72*
X242137D02*
D03*
D73*
X307858Y240500D02*
D03*
D74*
X200500Y160500D02*
D03*
Y150500D02*
D03*
Y140500D02*
D03*
Y130500D02*
D03*
Y120500D02*
D03*
Y110500D02*
D03*
Y100500D02*
D03*
Y90500D02*
D03*
Y80500D02*
D03*
Y70500D02*
D03*
Y60500D02*
D03*
Y50500D02*
D03*
Y40500D02*
D03*
Y30500D02*
D03*
X169500D02*
D03*
Y40500D02*
D03*
Y50500D02*
D03*
Y60500D02*
D03*
Y70500D02*
D03*
Y80500D02*
D03*
Y90500D02*
D03*
Y100500D02*
D03*
Y110500D02*
D03*
Y120500D02*
D03*
Y130500D02*
D03*
Y140500D02*
D03*
Y150500D02*
D03*
D75*
Y160500D02*
D03*
D76*
X83500Y301000D02*
D03*
Y291000D02*
D03*
X53500Y301000D02*
D03*
Y291000D02*
D03*
X43500Y301000D02*
D03*
Y291000D02*
D03*
X23500Y301000D02*
D03*
X33500Y291000D02*
D03*
Y301000D02*
D03*
X63500Y291000D02*
D03*
Y301000D02*
D03*
X73500Y291000D02*
D03*
Y301000D02*
D03*
X93500Y291000D02*
D03*
X103500D02*
D03*
X93500Y301000D02*
D03*
X103500D02*
D03*
D77*
X23500Y291000D02*
D03*
D78*
X223000Y110500D02*
D03*
X224000Y92000D02*
D03*
X209000Y88500D02*
D03*
X127000Y167500D02*
D03*
X150086Y198114D02*
D03*
X149500Y210114D02*
D03*
X156393Y193107D02*
D03*
X148900Y204114D02*
D03*
X156000Y210000D02*
D03*
X42000Y132500D02*
D03*
X33500Y133000D02*
D03*
X179500Y53500D02*
D03*
X46000Y152500D02*
D03*
X116500Y212500D02*
D03*
X104500Y208000D02*
D03*
X281500Y285000D02*
D03*
X308000Y285500D02*
D03*
X279500Y84000D02*
D03*
X293500Y71000D02*
D03*
X294000Y60000D02*
D03*
X114500Y59000D02*
D03*
Y77000D02*
D03*
X89000D02*
D03*
X122000Y82000D02*
D03*
X95500Y114500D02*
D03*
X88200Y119400D02*
D03*
X119500Y110500D02*
D03*
X107500Y114500D02*
D03*
X65000Y148500D02*
D03*
X64500Y133525D02*
D03*
X56000Y134000D02*
D03*
X164500Y247000D02*
D03*
X154000D02*
D03*
X133000Y247500D02*
D03*
X143500D02*
D03*
X185000Y254000D02*
D03*
X212500Y247500D02*
D03*
X258500Y245500D02*
D03*
X325500Y226000D02*
D03*
X334500Y189500D02*
D03*
X321500D02*
D03*
X278000D02*
D03*
X256500Y189000D02*
D03*
X318000Y279500D02*
D03*
X270000Y284500D02*
D03*
X262000Y285000D02*
D03*
X273500Y302000D02*
D03*
X262500Y302500D02*
D03*
X253500Y302000D02*
D03*
X231500Y305000D02*
D03*
X245500Y310500D02*
D03*
X237500Y281500D02*
D03*
X242000Y284500D02*
D03*
X232500Y284000D02*
D03*
X101500Y236000D02*
D03*
X136000Y226500D02*
D03*
X150500Y226000D02*
D03*
X152500Y215000D02*
D03*
X128500Y208000D02*
D03*
X135000Y207000D02*
D03*
X116500Y189000D02*
D03*
X84000Y195000D02*
D03*
X63000Y212500D02*
D03*
X65000Y193000D02*
D03*
X58500Y189500D02*
D03*
X50500Y208500D02*
D03*
X28000Y207500D02*
D03*
X33500Y209000D02*
D03*
X30500Y156500D02*
D03*
X22000Y158000D02*
D03*
X16000Y169000D02*
D03*
X11000Y167000D02*
D03*
X13000Y161000D02*
D03*
X213500Y214000D02*
D03*
X220500Y220000D02*
D03*
X221500Y227500D02*
D03*
X220012Y206100D02*
D03*
X218012Y198533D02*
D03*
X208000Y212000D02*
D03*
X197500Y214000D02*
D03*
X193000Y205000D02*
D03*
X307500Y78000D02*
D03*
X298040Y79040D02*
D03*
X301000Y84500D02*
D03*
X176000Y239500D02*
D03*
X193629Y224629D02*
D03*
X192500Y230000D02*
D03*
X217000D02*
D03*
X178500Y219500D02*
D03*
X174507Y225993D02*
D03*
X179759Y210441D02*
D03*
X175500Y247500D02*
D03*
X59500Y153500D02*
D03*
X184500Y184500D02*
D03*
X178000Y195500D02*
D03*
X317500Y112500D02*
D03*
X295000Y106000D02*
D03*
X292000Y112500D02*
D03*
X33500Y248500D02*
D03*
X62000Y183000D02*
D03*
X23500Y248500D02*
D03*
X106500Y154000D02*
D03*
X109500Y133500D02*
D03*
X60500Y102000D02*
D03*
X17300Y133669D02*
D03*
X334500Y58500D02*
D03*
Y37500D02*
D03*
X238000Y56500D02*
D03*
X258000Y38000D02*
D03*
X236500Y62000D02*
D03*
X220500Y67500D02*
D03*
X215000Y47500D02*
D03*
X221000Y42500D02*
D03*
X251200Y211600D02*
D03*
X143700Y185900D02*
D03*
X233400Y166600D02*
D03*
X33300Y142400D02*
D03*
X341800Y178400D02*
D03*
X140700Y132900D02*
D03*
X246500Y189700D02*
D03*
X43500Y165000D02*
D03*
X33300Y170000D02*
D03*
X37300Y175500D02*
D03*
X309000Y113700D02*
D03*
X321500Y93100D02*
D03*
X317400Y101900D02*
D03*
X292550Y96400D02*
D03*
X324500Y79159D02*
D03*
X221200Y235900D02*
D03*
X88100Y187800D02*
D03*
X67300Y155100D02*
D03*
X84700Y200000D02*
D03*
X83500Y231500D02*
D03*
X70339Y163000D02*
D03*
X254327Y62000D02*
D03*
X95000Y98630D02*
D03*
X253000Y282994D02*
D03*
X328400Y248089D02*
D03*
M02*
