G04*
G04 #@! TF.GenerationSoftware,Altium Limited,Altium Designer,22.3.1 (43)*
G04*
G04 Layer_Color=32768*
%FSLAX25Y25*%
%MOIN*%
G70*
G04*
G04 #@! TF.SameCoordinates,CB90502A-CAD2-466A-8923-7FAB541583EB*
G04*
G04*
G04 #@! TF.FilePolarity,Positive*
G04*
G01*
G75*
%ADD10C,0.00787*%
D10*
X110563Y51520D02*
X118437D01*
Y66480D01*
X110563D02*
X118437D01*
X110563Y51520D02*
Y66480D01*
X8629Y171515D02*
Y182965D01*
X14371D01*
Y171515D02*
Y182965D01*
X8629Y171515D02*
X14371D01*
X284335Y121504D02*
Y136497D01*
X292012D01*
Y121504D02*
Y136497D01*
X284335Y121504D02*
X292012D01*
X304020D02*
Y136497D01*
X311697D01*
Y121504D02*
Y136497D01*
X304020Y121504D02*
X311697D01*
X294020D02*
Y136497D01*
X301697D01*
Y121504D02*
Y136497D01*
X294020Y121504D02*
X301697D01*
X313661D02*
Y136497D01*
X321339D01*
Y121504D02*
Y136497D01*
X313661Y121504D02*
X321339D01*
X329661Y194724D02*
Y209717D01*
X337339D01*
Y194724D02*
Y209717D01*
X329661Y194724D02*
X337339D01*
X258161Y194504D02*
Y209497D01*
X265839D01*
Y194504D02*
Y209497D01*
X258161Y194504D02*
X265839D01*
X320161Y194724D02*
Y209717D01*
X327839D01*
Y194724D02*
Y209717D01*
X320161Y194724D02*
X327839D01*
X268161Y194504D02*
Y209497D01*
X275839D01*
Y194504D02*
Y209497D01*
X268161Y194504D02*
X275839D01*
X49563Y241020D02*
Y255980D01*
X57437D01*
Y241020D02*
Y255980D01*
X49563Y241020D02*
X57437D01*
X39563Y224020D02*
Y238980D01*
X47437D01*
Y224020D02*
Y238980D01*
X39563Y224020D02*
X47437D01*
X79563D02*
Y238980D01*
X87437D01*
Y224020D02*
Y238980D01*
X79563Y224020D02*
X87437D01*
X59563Y241020D02*
Y255980D01*
X67437D01*
Y241020D02*
Y255980D01*
X59563Y241020D02*
X67437D01*
X19563Y224020D02*
Y238980D01*
X27437D01*
Y224020D02*
Y238980D01*
X19563Y224020D02*
X27437D01*
X29563D02*
Y238980D01*
X37437D01*
Y224020D02*
Y238980D01*
X29563Y224020D02*
X37437D01*
X39563Y241020D02*
X47437D01*
Y255980D01*
X39563D02*
X47437D01*
X39563Y241020D02*
Y255980D01*
X19563Y241020D02*
X27437D01*
Y255980D01*
X19563D02*
X27437D01*
X19563Y241020D02*
Y255980D01*
X29563Y241020D02*
X37437D01*
Y255980D01*
X29563D02*
X37437D01*
X29563Y241020D02*
Y255980D01*
X89563Y224020D02*
X97437D01*
Y238980D01*
X89563D02*
X97437D01*
X89563Y224020D02*
Y238980D01*
X99563Y241020D02*
X107437D01*
Y255980D01*
X99563D02*
X107437D01*
X99563Y241020D02*
Y255980D01*
X79563Y241020D02*
X87437D01*
Y255980D01*
X79563D02*
X87437D01*
X79563Y241020D02*
Y255980D01*
X69563Y241020D02*
X77437D01*
Y255980D01*
X69563D02*
X77437D01*
X69563Y241020D02*
Y255980D01*
X89563Y241020D02*
X97437D01*
Y255980D01*
X89563D02*
X97437D01*
X89563Y241020D02*
Y255980D01*
X264275Y298862D02*
X268999D01*
X264275Y289413D02*
Y298862D01*
Y289413D02*
X268999D01*
Y298862D01*
X255775D02*
X260499D01*
X255775Y289413D02*
Y298862D01*
Y289413D02*
X260499D01*
Y298862D01*
M02*
