G04*
G04 #@! TF.GenerationSoftware,Altium Limited,Altium Designer,22.3.1 (43)*
G04*
G04 Layer_Color=8421504*
%FSLAX25Y25*%
%MOIN*%
G70*
G04*
G04 #@! TF.SameCoordinates,AA1F58D6-6309-4DF9-896B-C1726250565B*
G04*
G04*
G04 #@! TF.FilePolarity,Positive*
G04*
G01*
G75*
G04:AMPARAMS|DCode=16|XSize=61.81mil|YSize=15.75mil|CornerRadius=1.97mil|HoleSize=0mil|Usage=FLASHONLY|Rotation=0.000|XOffset=0mil|YOffset=0mil|HoleType=Round|Shape=RoundedRectangle|*
%AMROUNDEDRECTD16*
21,1,0.06181,0.01181,0,0,0.0*
21,1,0.05787,0.01575,0,0,0.0*
1,1,0.00394,0.02894,-0.00591*
1,1,0.00394,-0.02894,-0.00591*
1,1,0.00394,-0.02894,0.00591*
1,1,0.00394,0.02894,0.00591*
%
%ADD16ROUNDEDRECTD16*%
G04:AMPARAMS|DCode=17|XSize=61.81mil|YSize=16.14mil|CornerRadius=2.02mil|HoleSize=0mil|Usage=FLASHONLY|Rotation=180.000|XOffset=0mil|YOffset=0mil|HoleType=Round|Shape=RoundedRectangle|*
%AMROUNDEDRECTD17*
21,1,0.06181,0.01211,0,0,180.0*
21,1,0.05778,0.01614,0,0,180.0*
1,1,0.00404,-0.02889,0.00605*
1,1,0.00404,0.02889,0.00605*
1,1,0.00404,0.02889,-0.00605*
1,1,0.00404,-0.02889,-0.00605*
%
%ADD17ROUNDEDRECTD17*%
G04:AMPARAMS|DCode=18|XSize=61.81mil|YSize=16.14mil|CornerRadius=2.02mil|HoleSize=0mil|Usage=FLASHONLY|Rotation=270.000|XOffset=0mil|YOffset=0mil|HoleType=Round|Shape=RoundedRectangle|*
%AMROUNDEDRECTD18*
21,1,0.06181,0.01211,0,0,270.0*
21,1,0.05778,0.01614,0,0,270.0*
1,1,0.00404,-0.00605,-0.02889*
1,1,0.00404,-0.00605,0.02889*
1,1,0.00404,0.00605,0.02889*
1,1,0.00404,0.00605,-0.02889*
%
%ADD18ROUNDEDRECTD18*%
%ADD19R,0.07087X0.04134*%
%ADD20R,0.03661X0.03740*%
%ADD21R,0.05900X0.02200*%
%ADD22R,0.06969X0.04134*%
%ADD23R,0.02992X0.05000*%
%ADD24R,0.04567X0.05787*%
%ADD25R,0.04134X0.03937*%
%ADD26R,0.04134X0.06969*%
G04:AMPARAMS|DCode=27|XSize=77.56mil|YSize=23.62mil|CornerRadius=2.95mil|HoleSize=0mil|Usage=FLASHONLY|Rotation=0.000|XOffset=0mil|YOffset=0mil|HoleType=Round|Shape=RoundedRectangle|*
%AMROUNDEDRECTD27*
21,1,0.07756,0.01772,0,0,0.0*
21,1,0.07165,0.02362,0,0,0.0*
1,1,0.00591,0.03583,-0.00886*
1,1,0.00591,-0.03583,-0.00886*
1,1,0.00591,-0.03583,0.00886*
1,1,0.00591,0.03583,0.00886*
%
%ADD27ROUNDEDRECTD27*%
%ADD28R,0.03740X0.03661*%
%ADD29R,0.03819X0.03622*%
%ADD30R,0.09331X0.13268*%
%ADD31R,0.03773X0.03961*%
%ADD32R,0.06528X0.03764*%
G04:AMPARAMS|DCode=33|XSize=77.56mil|YSize=24.02mil|CornerRadius=3mil|HoleSize=0mil|Usage=FLASHONLY|Rotation=0.000|XOffset=0mil|YOffset=0mil|HoleType=Round|Shape=RoundedRectangle|*
%AMROUNDEDRECTD33*
21,1,0.07756,0.01801,0,0,0.0*
21,1,0.07156,0.02402,0,0,0.0*
1,1,0.00600,0.03578,-0.00901*
1,1,0.00600,-0.03578,-0.00901*
1,1,0.00600,-0.03578,0.00901*
1,1,0.00600,0.03578,0.00901*
%
%ADD33ROUNDEDRECTD33*%
%ADD34R,0.03661X0.03976*%
%ADD35R,0.03543X0.02953*%
%ADD36R,0.02756X0.07874*%
%ADD37R,0.03150X0.07874*%
%ADD38R,0.03543X0.07874*%
%ADD39R,0.09449X0.07480*%
D16*
X76201Y131323D02*
D03*
Y133882D02*
D03*
Y136441D02*
D03*
Y139000D02*
D03*
Y141559D02*
D03*
Y144118D02*
D03*
Y146677D02*
D03*
X98799D02*
D03*
Y144118D02*
D03*
Y141559D02*
D03*
Y139000D02*
D03*
Y136441D02*
D03*
Y133882D02*
D03*
Y131323D02*
D03*
X48299Y131110D02*
D03*
Y133669D02*
D03*
Y136228D02*
D03*
Y138787D02*
D03*
Y141346D02*
D03*
Y143906D02*
D03*
Y146465D02*
D03*
X25701D02*
D03*
Y143906D02*
D03*
Y141346D02*
D03*
Y138787D02*
D03*
Y136228D02*
D03*
Y133669D02*
D03*
Y131110D02*
D03*
D17*
X286701Y91323D02*
D03*
Y93882D02*
D03*
Y96441D02*
D03*
Y99000D02*
D03*
Y101559D02*
D03*
Y104118D02*
D03*
Y106677D02*
D03*
X309299D02*
D03*
Y104118D02*
D03*
Y101559D02*
D03*
Y99000D02*
D03*
Y96441D02*
D03*
Y93882D02*
D03*
Y91323D02*
D03*
X208000Y240500D02*
D03*
Y237941D02*
D03*
Y235382D02*
D03*
Y232823D02*
D03*
Y230264D02*
D03*
Y227705D02*
D03*
Y225146D02*
D03*
Y222587D02*
D03*
X185402D02*
D03*
Y225146D02*
D03*
Y227705D02*
D03*
Y230264D02*
D03*
Y232823D02*
D03*
Y235382D02*
D03*
Y237941D02*
D03*
Y240500D02*
D03*
X208000Y207000D02*
D03*
Y204441D02*
D03*
Y201882D02*
D03*
Y199323D02*
D03*
Y196764D02*
D03*
Y194205D02*
D03*
Y191646D02*
D03*
Y189087D02*
D03*
X185402D02*
D03*
Y191646D02*
D03*
Y194205D02*
D03*
Y196764D02*
D03*
Y199323D02*
D03*
Y201882D02*
D03*
Y204441D02*
D03*
Y207000D02*
D03*
D18*
X324059Y69598D02*
D03*
X321500D02*
D03*
X318941D02*
D03*
X316382D02*
D03*
X313823D02*
D03*
X311264D02*
D03*
X308705D02*
D03*
Y47000D02*
D03*
X311264D02*
D03*
X313823D02*
D03*
X316382D02*
D03*
X318941D02*
D03*
X321500D02*
D03*
X324059D02*
D03*
D19*
X114500Y64020D02*
D03*
Y53980D02*
D03*
X53500Y243480D02*
D03*
Y253520D02*
D03*
X43500Y226480D02*
D03*
Y236520D02*
D03*
X83500Y226480D02*
D03*
Y236520D02*
D03*
X63500Y243480D02*
D03*
Y253520D02*
D03*
X23500Y226480D02*
D03*
Y236520D02*
D03*
X33500Y226480D02*
D03*
Y236520D02*
D03*
X43500Y253520D02*
D03*
Y243480D02*
D03*
X23500Y253520D02*
D03*
Y243480D02*
D03*
X33500Y253520D02*
D03*
Y243480D02*
D03*
X93500Y236520D02*
D03*
Y226480D02*
D03*
X103500Y253520D02*
D03*
Y243480D02*
D03*
X83500Y253520D02*
D03*
Y243480D02*
D03*
X73500Y253520D02*
D03*
Y243480D02*
D03*
X93500Y253520D02*
D03*
Y243480D02*
D03*
D20*
X95000Y102500D02*
D03*
Y108311D02*
D03*
X218000Y61000D02*
D03*
Y55189D02*
D03*
X334500Y51405D02*
D03*
Y45594D02*
D03*
X131000Y220000D02*
D03*
Y214189D02*
D03*
X56500Y140382D02*
D03*
Y146193D02*
D03*
X108000Y146406D02*
D03*
Y140594D02*
D03*
X62000Y205406D02*
D03*
Y199594D02*
D03*
X114500Y205406D02*
D03*
Y199594D02*
D03*
X242137Y291232D02*
D03*
Y297043D02*
D03*
D21*
X81900Y86500D02*
D03*
Y81500D02*
D03*
Y76500D02*
D03*
Y71500D02*
D03*
Y66500D02*
D03*
Y61500D02*
D03*
Y56500D02*
D03*
X103500D02*
D03*
Y61500D02*
D03*
Y66500D02*
D03*
Y71500D02*
D03*
Y76500D02*
D03*
Y81500D02*
D03*
Y86500D02*
D03*
X162800Y220000D02*
D03*
Y215000D02*
D03*
Y210000D02*
D03*
Y205000D02*
D03*
Y200000D02*
D03*
Y195000D02*
D03*
Y190000D02*
D03*
X141200D02*
D03*
Y195000D02*
D03*
Y200000D02*
D03*
Y205000D02*
D03*
Y210000D02*
D03*
Y215000D02*
D03*
Y220000D02*
D03*
D22*
X114500Y71500D02*
D03*
Y83193D02*
D03*
X164500Y253244D02*
D03*
Y241551D02*
D03*
X143500Y253244D02*
D03*
Y241551D02*
D03*
X154000Y253244D02*
D03*
Y241551D02*
D03*
X133000Y253244D02*
D03*
Y241551D02*
D03*
X118000Y165067D02*
D03*
Y176760D02*
D03*
X266637Y245846D02*
D03*
Y234154D02*
D03*
D23*
X231500Y150559D02*
D03*
Y180441D02*
D03*
X236500Y150559D02*
D03*
Y180441D02*
D03*
X241500Y150559D02*
D03*
X246500D02*
D03*
X241500Y180441D02*
D03*
X246500D02*
D03*
D24*
X227055Y71500D02*
D03*
X233945D02*
D03*
D25*
X294453Y40500D02*
D03*
X288547D02*
D03*
D26*
X299610Y50000D02*
D03*
X287917D02*
D03*
X299610Y71000D02*
D03*
X287917D02*
D03*
Y60500D02*
D03*
X299610D02*
D03*
X68847Y111500D02*
D03*
X57154D02*
D03*
D27*
X248449Y62000D02*
D03*
Y57000D02*
D03*
Y52000D02*
D03*
Y47000D02*
D03*
X229000D02*
D03*
Y52000D02*
D03*
Y57000D02*
D03*
Y62000D02*
D03*
D28*
X185095Y247000D02*
D03*
X190906D02*
D03*
X286595Y83000D02*
D03*
X292406D02*
D03*
X185402Y213654D02*
D03*
X191213D02*
D03*
X216406Y96500D02*
D03*
X210594D02*
D03*
X216406Y106000D02*
D03*
X210594D02*
D03*
D29*
X104500Y108602D02*
D03*
Y102500D02*
D03*
X112299Y108602D02*
D03*
Y102500D02*
D03*
D30*
X257469Y270500D02*
D03*
X238532D02*
D03*
X289236Y269000D02*
D03*
X308173D02*
D03*
D31*
X11500Y174480D02*
D03*
Y180000D02*
D03*
D32*
X288173Y123779D02*
D03*
Y134221D02*
D03*
X307858Y123779D02*
D03*
Y134221D02*
D03*
X297858Y123779D02*
D03*
Y134221D02*
D03*
X317500Y123779D02*
D03*
Y134221D02*
D03*
X333500Y197000D02*
D03*
Y207442D02*
D03*
X262000Y196779D02*
D03*
Y207221D02*
D03*
X324000Y197000D02*
D03*
Y207442D02*
D03*
X272000Y196779D02*
D03*
Y207221D02*
D03*
D33*
X76217Y200000D02*
D03*
Y195000D02*
D03*
Y190000D02*
D03*
Y185000D02*
D03*
Y180000D02*
D03*
Y175000D02*
D03*
Y170000D02*
D03*
Y165000D02*
D03*
X103500D02*
D03*
Y170000D02*
D03*
Y175000D02*
D03*
Y180000D02*
D03*
Y185000D02*
D03*
Y190000D02*
D03*
Y195000D02*
D03*
Y200000D02*
D03*
X23500D02*
D03*
Y195000D02*
D03*
Y190000D02*
D03*
Y185000D02*
D03*
Y180000D02*
D03*
Y175000D02*
D03*
Y170000D02*
D03*
Y165000D02*
D03*
X50783D02*
D03*
Y170000D02*
D03*
Y175000D02*
D03*
Y180000D02*
D03*
Y185000D02*
D03*
Y190000D02*
D03*
Y195000D02*
D03*
Y200000D02*
D03*
D34*
X235137Y296929D02*
D03*
Y291346D02*
D03*
X249637D02*
D03*
Y296929D02*
D03*
X325500Y234154D02*
D03*
Y239736D02*
D03*
D35*
X266637Y291776D02*
D03*
Y296500D02*
D03*
X258137Y291776D02*
D03*
Y296500D02*
D03*
D36*
X298968Y293350D02*
D03*
X295031D02*
D03*
D37*
X302984D02*
D03*
X291016D02*
D03*
D38*
X307827D02*
D03*
X286173D02*
D03*
D39*
X145000Y80500D02*
D03*
Y98216D02*
D03*
M02*
