G04*
G04 #@! TF.GenerationSoftware,Altium Limited,Altium Designer,22.0.2 (36)*
G04*
G04 Layer_Color=128*
%FSLAX25Y25*%
%MOIN*%
G70*
G04*
G04 #@! TF.SameCoordinates,952CAA48-3728-48F0-9C98-E899784471C3*
G04*
G04*
G04 #@! TF.FilePolarity,Positive*
G04*
G01*
G75*
%ADD113C,0.00200*%
D113*
X75157Y24500D02*
X94842D01*
X85000Y14658D02*
Y34343D01*
X327157Y293500D02*
X346843D01*
X337000Y283658D02*
Y303343D01*
X53425Y31000D02*
X56575D01*
X55000Y29425D02*
Y32575D01*
X43425Y31000D02*
X46575D01*
X45000Y29425D02*
Y32575D01*
X33425Y31000D02*
X36575D01*
X35000Y29425D02*
Y32575D01*
X43228Y67157D02*
X46772D01*
X45000Y65386D02*
Y68929D01*
X43228Y86843D02*
X46772D01*
X45000Y85071D02*
Y88614D01*
X194244Y272091D02*
X199756D01*
X197000Y269335D02*
Y274847D01*
X194244Y291776D02*
X199756D01*
X197000Y289020D02*
Y294531D01*
X160792Y301000D02*
X164808D01*
X162800Y298992D02*
Y303008D01*
X160792Y291000D02*
X164808D01*
X162800Y288992D02*
Y293008D01*
X150792Y301000D02*
X154808D01*
X152800Y298992D02*
Y303008D01*
X140792Y301000D02*
X144808D01*
X142800Y298992D02*
Y303008D01*
X150792Y291000D02*
X154808D01*
X152800Y288992D02*
Y293008D01*
X140792Y291000D02*
X144808D01*
X142800Y288992D02*
Y293008D01*
X130792Y301000D02*
X134808D01*
X132800Y298992D02*
Y303008D01*
X130792Y291000D02*
X134808D01*
X132800Y288992D02*
Y293008D01*
X299925Y22000D02*
X303075D01*
X301500Y20425D02*
Y23575D01*
X309925Y22000D02*
X313075D01*
X311500Y20425D02*
Y23575D01*
X319925Y22000D02*
X323075D01*
X321500Y20425D02*
Y23575D01*
X261248Y101000D02*
X264752D01*
X263000Y99248D02*
Y102752D01*
X261248Y111000D02*
X264752D01*
X263000Y109248D02*
Y112752D01*
X261248Y121000D02*
X264752D01*
X263000Y119248D02*
Y122752D01*
X261248Y131000D02*
X264752D01*
X263000Y129248D02*
Y132752D01*
X230129Y245846D02*
X234145D01*
X232137Y243839D02*
Y247854D01*
X240129Y245846D02*
X244145D01*
X242137Y243839D02*
Y247854D01*
X230129Y235846D02*
X234145D01*
X232137Y233839D02*
Y237854D01*
X240129Y235846D02*
X244145D01*
X242137Y233839D02*
Y237854D01*
X230129Y225846D02*
X234145D01*
X232137Y223838D02*
Y227854D01*
X240129Y225846D02*
X244145D01*
X242137Y223838D02*
Y227854D01*
X230129Y215846D02*
X234145D01*
X232137Y213839D02*
Y217854D01*
X240129Y215846D02*
X244145D01*
X242137Y213839D02*
Y217854D01*
X230129Y205846D02*
X234145D01*
X232137Y203838D02*
Y207854D01*
X240129Y205846D02*
X244145D01*
X242137Y203838D02*
Y207854D01*
X285417Y240500D02*
X290929D01*
X288173Y237744D02*
Y243256D01*
X305102Y240500D02*
X310614D01*
X307858Y237744D02*
Y243256D01*
X198866Y160500D02*
X202134D01*
X200500Y158866D02*
Y162134D01*
X198866Y150500D02*
X202134D01*
X200500Y148866D02*
Y152134D01*
X198866Y140500D02*
X202134D01*
X200500Y138866D02*
Y142134D01*
X198866Y130500D02*
X202134D01*
X200500Y128866D02*
Y132134D01*
X198866Y120500D02*
X202134D01*
X200500Y118866D02*
Y122134D01*
X198866Y110500D02*
X202134D01*
X200500Y108866D02*
Y112134D01*
X198866Y100500D02*
X202134D01*
X200500Y98866D02*
Y102134D01*
X198866Y90500D02*
X202134D01*
X200500Y88866D02*
Y92134D01*
X198866Y80500D02*
X202134D01*
X200500Y78866D02*
Y82134D01*
X198866Y70500D02*
X202134D01*
X200500Y68866D02*
Y72134D01*
X198866Y60500D02*
X202134D01*
X200500Y58866D02*
Y62134D01*
X198866Y50500D02*
X202134D01*
X200500Y48866D02*
Y52134D01*
X198866Y40500D02*
X202134D01*
X200500Y38866D02*
Y42134D01*
X198866Y30500D02*
X202134D01*
X200500Y28866D02*
Y32134D01*
X167866Y30500D02*
X171134D01*
X169500Y28866D02*
Y32134D01*
X167866Y40500D02*
X171134D01*
X169500Y38866D02*
Y42134D01*
X167866Y50500D02*
X171134D01*
X169500Y48866D02*
Y52134D01*
X167866Y60500D02*
X171134D01*
X169500Y58866D02*
Y62134D01*
X167866Y70500D02*
X171134D01*
X169500Y68866D02*
Y72134D01*
X167866Y80500D02*
X171134D01*
X169500Y78866D02*
Y82134D01*
X167866Y90500D02*
X171134D01*
X169500Y88866D02*
Y92134D01*
X167866Y100500D02*
X171134D01*
X169500Y98866D02*
Y102134D01*
X167866Y110500D02*
X171134D01*
X169500Y108866D02*
Y112134D01*
X167866Y120500D02*
X171134D01*
X169500Y118866D02*
Y122134D01*
X167866Y130500D02*
X171134D01*
X169500Y128866D02*
Y132134D01*
X167866Y140500D02*
X171134D01*
X169500Y138866D02*
Y142134D01*
X167866Y150500D02*
X171134D01*
X169500Y148866D02*
Y152134D01*
X167866Y160500D02*
X171134D01*
X169500Y158866D02*
Y162134D01*
X81335Y301000D02*
X85665D01*
X83500Y298835D02*
Y303165D01*
X81335Y291000D02*
X85665D01*
X83500Y288835D02*
Y293165D01*
X51335Y301000D02*
X55665D01*
X53500Y298835D02*
Y303165D01*
X51335Y291000D02*
X55665D01*
X53500Y288835D02*
Y293165D01*
X41335Y301000D02*
X45665D01*
X43500Y298835D02*
Y303165D01*
X41335Y291000D02*
X45665D01*
X43500Y288835D02*
Y293165D01*
X21335Y291000D02*
X25665D01*
X23500Y288835D02*
Y293165D01*
X21335Y301000D02*
X25665D01*
X23500Y298835D02*
Y303165D01*
X31335Y291000D02*
X35665D01*
X33500Y288835D02*
Y293165D01*
X31335Y301000D02*
X35665D01*
X33500Y298835D02*
Y303165D01*
X61335Y291000D02*
X65665D01*
X63500Y288835D02*
Y293165D01*
X61335Y301000D02*
X65665D01*
X63500Y298835D02*
Y303165D01*
X71335Y291000D02*
X75665D01*
X73500Y288835D02*
Y293165D01*
X71335Y301000D02*
X75665D01*
X73500Y298835D02*
Y303165D01*
X91335Y291000D02*
X95665D01*
X93500Y288835D02*
Y293165D01*
X101335Y291000D02*
X105665D01*
X103500Y288835D02*
Y293165D01*
X91335Y301000D02*
X95665D01*
X93500Y298835D02*
Y303165D01*
X101335Y301000D02*
X105665D01*
X103500Y298835D02*
Y303165D01*
X312827Y296500D02*
X314795D01*
X313811Y295516D02*
Y297484D01*
X279205Y296500D02*
X281173D01*
X280189Y295516D02*
Y297484D01*
X286165Y162500D02*
X290181D01*
X288173Y160492D02*
Y164508D01*
X286165Y172500D02*
X290181D01*
X288173Y170492D02*
Y174508D01*
X296165Y162500D02*
X300181D01*
X298173Y160492D02*
Y164508D01*
X306165Y162500D02*
X310181D01*
X308173Y160492D02*
Y164508D01*
X296165Y172500D02*
X300181D01*
X298173Y170492D02*
Y174508D01*
X306165Y172500D02*
X310181D01*
X308173Y170492D02*
Y174508D01*
X316165Y162500D02*
X320181D01*
X318173Y160492D02*
Y164508D01*
X316165Y172500D02*
X320181D01*
X318173Y170492D02*
Y174508D01*
X285850Y197000D02*
X289866D01*
X287858Y194992D02*
Y199008D01*
X295850Y197000D02*
X299866D01*
X297858Y194992D02*
Y199008D01*
X305850Y197000D02*
X309866D01*
X307858Y194992D02*
Y199008D01*
X285850Y207000D02*
X289866D01*
X287858Y204992D02*
Y209008D01*
X295850Y207000D02*
X299866D01*
X297858Y204992D02*
Y209008D01*
X305850Y207000D02*
X309866D01*
X307858Y204992D02*
Y209008D01*
X222500Y110500D02*
X223500D01*
X223000Y110000D02*
Y111000D01*
X223500Y92000D02*
X224500D01*
X224000Y91500D02*
Y92500D01*
X208500Y88500D02*
X209500D01*
X209000Y88000D02*
Y89000D01*
X126500Y167500D02*
X127500D01*
X127000Y167000D02*
Y168000D01*
X149586Y198114D02*
X150586D01*
X150086Y197614D02*
Y198614D01*
X149000Y210114D02*
X150000D01*
X149500Y209614D02*
Y210614D01*
X155893Y193107D02*
X156893D01*
X156393Y192607D02*
Y193607D01*
X148400Y204114D02*
X149400D01*
X148900Y203614D02*
Y204614D01*
X155500Y210000D02*
X156500D01*
X156000Y209500D02*
Y210500D01*
X41500Y132500D02*
X42500D01*
X42000Y132000D02*
Y133000D01*
X33000D02*
X34000D01*
X33500Y132500D02*
Y133500D01*
X179000Y53500D02*
X180000D01*
X179500Y53000D02*
Y54000D01*
X45500Y152500D02*
X46500D01*
X46000Y152000D02*
Y153000D01*
X116000Y212500D02*
X117000D01*
X116500Y212000D02*
Y213000D01*
X104000Y208000D02*
X105000D01*
X104500Y207500D02*
Y208500D01*
X281000Y285000D02*
X282000D01*
X281500Y284500D02*
Y285500D01*
X307500D02*
X308500D01*
X308000Y285000D02*
Y286000D01*
X279000Y84000D02*
X280000D01*
X279500Y83500D02*
Y84500D01*
X293000Y71000D02*
X294000D01*
X293500Y70500D02*
Y71500D01*
Y60000D02*
X294500D01*
X294000Y59500D02*
Y60500D01*
X114000Y59000D02*
X115000D01*
X114500Y58500D02*
Y59500D01*
X114000Y77000D02*
X115000D01*
X114500Y76500D02*
Y77500D01*
X88500Y77000D02*
X89500D01*
X89000Y76500D02*
Y77500D01*
X121500Y82000D02*
X122500D01*
X122000Y81500D02*
Y82500D01*
X95000Y114500D02*
X96000D01*
X95500Y114000D02*
Y115000D01*
X87700Y119400D02*
X88700D01*
X88200Y118900D02*
Y119900D01*
X119000Y110500D02*
X120000D01*
X119500Y110000D02*
Y111000D01*
X107000Y114500D02*
X108000D01*
X107500Y114000D02*
Y115000D01*
X64500Y148500D02*
X65500D01*
X65000Y148000D02*
Y149000D01*
X64000Y133525D02*
X65000D01*
X64500Y133025D02*
Y134025D01*
X55500Y134000D02*
X56500D01*
X56000Y133500D02*
Y134500D01*
X164000Y247000D02*
X165000D01*
X164500Y246500D02*
Y247500D01*
X153500Y247000D02*
X154500D01*
X154000Y246500D02*
Y247500D01*
X132500D02*
X133500D01*
X133000Y247000D02*
Y248000D01*
X143000Y247500D02*
X144000D01*
X143500Y247000D02*
Y248000D01*
X184500Y254000D02*
X185500D01*
X185000Y253500D02*
Y254500D01*
X212000Y247500D02*
X213000D01*
X212500Y247000D02*
Y248000D01*
X258000Y245500D02*
X259000D01*
X258500Y245000D02*
Y246000D01*
X325000Y226000D02*
X326000D01*
X325500Y225500D02*
Y226500D01*
X334000Y189500D02*
X335000D01*
X334500Y189000D02*
Y190000D01*
X321000Y189500D02*
X322000D01*
X321500Y189000D02*
Y190000D01*
X277500Y189500D02*
X278500D01*
X278000Y189000D02*
Y190000D01*
X256000Y189000D02*
X257000D01*
X256500Y188500D02*
Y189500D01*
X317500Y279500D02*
X318500D01*
X318000Y279000D02*
Y280000D01*
X269500Y284500D02*
X270500D01*
X270000Y284000D02*
Y285000D01*
X261500D02*
X262500D01*
X262000Y284500D02*
Y285500D01*
X273000Y302000D02*
X274000D01*
X273500Y301500D02*
Y302500D01*
X262000D02*
X263000D01*
X262500Y302000D02*
Y303000D01*
X253000Y302000D02*
X254000D01*
X253500Y301500D02*
Y302500D01*
X231000Y305000D02*
X232000D01*
X231500Y304500D02*
Y305500D01*
X245000Y310500D02*
X246000D01*
X245500Y310000D02*
Y311000D01*
X237000Y281500D02*
X238000D01*
X237500Y281000D02*
Y282000D01*
X241500Y284500D02*
X242500D01*
X242000Y284000D02*
Y285000D01*
X232000Y284000D02*
X233000D01*
X232500Y283500D02*
Y284500D01*
X101000Y236000D02*
X102000D01*
X101500Y235500D02*
Y236500D01*
X135500Y226500D02*
X136500D01*
X136000Y226000D02*
Y227000D01*
X150000Y226000D02*
X151000D01*
X150500Y225500D02*
Y226500D01*
X152000Y215000D02*
X153000D01*
X152500Y214500D02*
Y215500D01*
X128000Y208000D02*
X129000D01*
X128500Y207500D02*
Y208500D01*
X134500Y207000D02*
X135500D01*
X135000Y206500D02*
Y207500D01*
X116000Y189000D02*
X117000D01*
X116500Y188500D02*
Y189500D01*
X83500Y195000D02*
X84500D01*
X84000Y194500D02*
Y195500D01*
X62500Y212500D02*
X63500D01*
X63000Y212000D02*
Y213000D01*
X64500Y193000D02*
X65500D01*
X65000Y192500D02*
Y193500D01*
X58000Y189500D02*
X59000D01*
X58500Y189000D02*
Y190000D01*
X50000Y208500D02*
X51000D01*
X50500Y208000D02*
Y209000D01*
X27500Y207500D02*
X28500D01*
X28000Y207000D02*
Y208000D01*
X33000Y209000D02*
X34000D01*
X33500Y208500D02*
Y209500D01*
X30000Y156500D02*
X31000D01*
X30500Y156000D02*
Y157000D01*
X21500Y158000D02*
X22500D01*
X22000Y157500D02*
Y158500D01*
X15500Y169000D02*
X16500D01*
X16000Y168500D02*
Y169500D01*
X10500Y167000D02*
X11500D01*
X11000Y166500D02*
Y167500D01*
X12500Y161000D02*
X13500D01*
X13000Y160500D02*
Y161500D01*
X213000Y214000D02*
X214000D01*
X213500Y213500D02*
Y214500D01*
X220000Y220000D02*
X221000D01*
X220500Y219500D02*
Y220500D01*
X221000Y227500D02*
X222000D01*
X221500Y227000D02*
Y228000D01*
X219512Y206100D02*
X220512D01*
X220012Y205600D02*
Y206600D01*
X217512Y198533D02*
X218512D01*
X218012Y198033D02*
Y199033D01*
X207500Y212000D02*
X208500D01*
X208000Y211500D02*
Y212500D01*
X197000Y214000D02*
X198000D01*
X197500Y213500D02*
Y214500D01*
X192500Y205000D02*
X193500D01*
X193000Y204500D02*
Y205500D01*
X307000Y78000D02*
X308000D01*
X307500Y77500D02*
Y78500D01*
X297540Y79040D02*
X298540D01*
X298040Y78540D02*
Y79540D01*
X300500Y84500D02*
X301500D01*
X301000Y84000D02*
Y85000D01*
X175500Y239500D02*
X176500D01*
X176000Y239000D02*
Y240000D01*
X193129Y224629D02*
X194129D01*
X193629Y224129D02*
Y225129D01*
X192000Y230000D02*
X193000D01*
X192500Y229500D02*
Y230500D01*
X216500Y230000D02*
X217500D01*
X217000Y229500D02*
Y230500D01*
X178000Y219500D02*
X179000D01*
X178500Y219000D02*
Y220000D01*
X174007Y225993D02*
X175007D01*
X174507Y225493D02*
Y226493D01*
X179259Y210441D02*
X180259D01*
X179759Y209941D02*
Y210941D01*
X175000Y247500D02*
X176000D01*
X175500Y247000D02*
Y248000D01*
X59000Y153500D02*
X60000D01*
X59500Y153000D02*
Y154000D01*
X184000Y184500D02*
X185000D01*
X184500Y184000D02*
Y185000D01*
X177500Y195500D02*
X178500D01*
X178000Y195000D02*
Y196000D01*
X317000Y112500D02*
X318000D01*
X317500Y112000D02*
Y113000D01*
X294500Y106000D02*
X295500D01*
X295000Y105500D02*
Y106500D01*
X291500Y112500D02*
X292500D01*
X292000Y112000D02*
Y113000D01*
X33000Y248500D02*
X34000D01*
X33500Y248000D02*
Y249000D01*
X61500Y183000D02*
X62500D01*
X62000Y182500D02*
Y183500D01*
X23000Y248500D02*
X24000D01*
X23500Y248000D02*
Y249000D01*
X106000Y154000D02*
X107000D01*
X106500Y153500D02*
Y154500D01*
X109000Y133500D02*
X110000D01*
X109500Y133000D02*
Y134000D01*
X60000Y102000D02*
X61000D01*
X60500Y101500D02*
Y102500D01*
X16800Y133669D02*
X17800D01*
X17300Y133169D02*
Y134169D01*
X334000Y58500D02*
X335000D01*
X334500Y58000D02*
Y59000D01*
X334000Y37500D02*
X335000D01*
X334500Y37000D02*
Y38000D01*
X237500Y56500D02*
X238500D01*
X238000Y56000D02*
Y57000D01*
X257500Y38000D02*
X258500D01*
X258000Y37500D02*
Y38500D01*
X236000Y62000D02*
X237000D01*
X236500Y61500D02*
Y62500D01*
X220000Y67500D02*
X221000D01*
X220500Y67000D02*
Y68000D01*
X214500Y47500D02*
X215500D01*
X215000Y47000D02*
Y48000D01*
X220500Y42500D02*
X221500D01*
X221000Y42000D02*
Y43000D01*
X250700Y211600D02*
X251700D01*
X251200Y211100D02*
Y212100D01*
X143200Y185900D02*
X144200D01*
X143700Y185400D02*
Y186400D01*
X232900Y166600D02*
X233900D01*
X233400Y166100D02*
Y167100D01*
X32800Y142400D02*
X33800D01*
X33300Y141900D02*
Y142900D01*
X341300Y178400D02*
X342300D01*
X341800Y177900D02*
Y178900D01*
X140200Y132900D02*
X141200D01*
X140700Y132400D02*
Y133400D01*
X246000Y189700D02*
X247000D01*
X246500Y189200D02*
Y190200D01*
X43000Y165000D02*
X44000D01*
X43500Y164500D02*
Y165500D01*
X32800Y170000D02*
X33800D01*
X33300Y169500D02*
Y170500D01*
X36800Y175500D02*
X37800D01*
X37300Y175000D02*
Y176000D01*
X308500Y113700D02*
X309500D01*
X309000Y113200D02*
Y114200D01*
X321000Y93100D02*
X322000D01*
X321500Y92600D02*
Y93600D01*
X316900Y101900D02*
X317900D01*
X317400Y101400D02*
Y102400D01*
X292050Y96400D02*
X293050D01*
X292550Y95900D02*
Y96900D01*
X324000Y79159D02*
X325000D01*
X324500Y78659D02*
Y79659D01*
X220700Y235900D02*
X221700D01*
X221200Y235400D02*
Y236400D01*
X87600Y187800D02*
X88600D01*
X88100Y187300D02*
Y188300D01*
X66800Y155100D02*
X67800D01*
X67300Y154600D02*
Y155600D01*
X84200Y200000D02*
X85200D01*
X84700Y199500D02*
Y200500D01*
X83000Y231500D02*
X84000D01*
X83500Y231000D02*
Y232000D01*
X69839Y163000D02*
X70839D01*
X70339Y162500D02*
Y163500D01*
X253827Y62000D02*
X254827D01*
X254327Y61500D02*
Y62500D01*
X94500Y98630D02*
X95500D01*
X95000Y98130D02*
Y99130D01*
X252500Y282994D02*
X253500D01*
X253000Y282494D02*
Y283494D01*
X327900Y248089D02*
X328900D01*
X328400Y247589D02*
Y248589D01*
M02*
