G04*
G04 #@! TF.GenerationSoftware,Altium Limited,Altium Designer,22.3.1 (43)*
G04*
G04 Layer_Color=0*
%FSLAX25Y25*%
%MOIN*%
G70*
G04*
G04 #@! TF.SameCoordinates,CB90502A-CAD2-466A-8923-7FAB541583EB*
G04*
G04*
G04 #@! TF.FilePolarity,Positive*
G04*
G01*
G75*
%ADD112C,0.00394*%
D112*
X112532Y59000D02*
X116469D01*
X114500Y57032D02*
Y60969D01*
X11500Y175271D02*
Y179208D01*
X9532Y177240D02*
X13469D01*
X288173Y127032D02*
Y130969D01*
X286205Y129000D02*
X290142D01*
X307858Y127032D02*
Y130969D01*
X305890Y129000D02*
X309827D01*
X297858Y127032D02*
Y130969D01*
X295890Y129000D02*
X299827D01*
X317500Y127032D02*
Y130969D01*
X315532Y129000D02*
X319469D01*
X333500Y200252D02*
Y204189D01*
X331532Y202221D02*
X335469D01*
X262000Y200032D02*
Y203969D01*
X260032Y202000D02*
X263969D01*
X324000Y200252D02*
Y204189D01*
X322032Y202221D02*
X325969D01*
X272000Y200032D02*
Y203969D01*
X270032Y202000D02*
X273969D01*
X53500Y246532D02*
Y250469D01*
X51532Y248500D02*
X55469D01*
X43500Y229532D02*
Y233469D01*
X41532Y231500D02*
X45469D01*
X83500Y229532D02*
Y233469D01*
X81532Y231500D02*
X85469D01*
X63500Y246532D02*
Y250469D01*
X61532Y248500D02*
X65469D01*
X23500Y229532D02*
Y233469D01*
X21532Y231500D02*
X25469D01*
X33500Y229532D02*
Y233469D01*
X31532Y231500D02*
X35469D01*
X41532Y248500D02*
X45469D01*
X43500Y246532D02*
Y250469D01*
X21532Y248500D02*
X25469D01*
X23500Y246532D02*
Y250469D01*
X31532Y248500D02*
X35469D01*
X33500Y246532D02*
Y250469D01*
X91532Y231500D02*
X95469D01*
X93500Y229532D02*
Y233469D01*
X101532Y248500D02*
X105469D01*
X103500Y246532D02*
Y250469D01*
X81532Y248500D02*
X85469D01*
X83500Y246532D02*
Y250469D01*
X71532Y248500D02*
X75469D01*
X73500Y246532D02*
Y250469D01*
X91532Y248500D02*
X95469D01*
X93500Y246532D02*
Y250469D01*
X264669Y294138D02*
X268606D01*
X266637Y292169D02*
Y296106D01*
X256169Y294138D02*
X260106D01*
X258137Y292169D02*
Y296106D01*
M02*
