G04*
G04 #@! TF.GenerationSoftware,Altium Limited,Altium Designer,22.0.2 (36)*
G04*
G04 Layer_Color=8388736*
%FSLAX25Y25*%
%MOIN*%
G70*
G04*
G04 #@! TF.SameCoordinates,8DF1FA55-F0BE-4FEE-A998-D7D1BBD61996*
G04*
G04*
G04 #@! TF.FilePolarity,Positive*
G04*
G01*
G75*
%ADD10C,0.00787*%
D10*
X467055Y247004D02*
X473945D01*
Y259996D01*
X467055D02*
X473945D01*
X467055Y247004D02*
Y259996D01*
X365925Y368689D02*
Y374791D01*
X369075D01*
Y368689D02*
Y374791D01*
X365925Y368689D02*
X369075D01*
X641024Y317201D02*
Y329799D01*
X647323D01*
Y317201D02*
Y329799D01*
X641024Y317201D02*
X647323D01*
X660709D02*
Y329799D01*
X667008D01*
Y317201D02*
Y329799D01*
X660709Y317201D02*
X667008D01*
X650709D02*
Y329799D01*
X657008D01*
Y317201D02*
Y329799D01*
X650709Y317201D02*
X657008D01*
X670350D02*
Y329799D01*
X676650D01*
Y317201D02*
Y329799D01*
X670350Y317201D02*
X676650D01*
X686350Y390422D02*
Y403020D01*
X692650D01*
Y390422D02*
Y403020D01*
X686350Y390422D02*
X692650D01*
X614850Y390201D02*
Y402799D01*
X621150D01*
Y390201D02*
Y402799D01*
X614850Y390201D02*
X621150D01*
X676850Y390422D02*
Y403020D01*
X683150D01*
Y390422D02*
Y403020D01*
X676850Y390422D02*
X683150D01*
X624850Y390201D02*
Y402799D01*
X631150D01*
Y390201D02*
Y402799D01*
X624850Y390201D02*
X631150D01*
X406055Y436504D02*
Y449496D01*
X412945D01*
Y436504D02*
Y449496D01*
X406055Y436504D02*
X412945D01*
X396055Y419504D02*
Y432496D01*
X402945D01*
Y419504D02*
Y432496D01*
X396055Y419504D02*
X402945D01*
X436055D02*
Y432496D01*
X442945D01*
Y419504D02*
Y432496D01*
X436055Y419504D02*
X442945D01*
X416055Y436504D02*
Y449496D01*
X422945D01*
Y436504D02*
Y449496D01*
X416055Y436504D02*
X422945D01*
X376055Y419504D02*
Y432496D01*
X382945D01*
Y419504D02*
Y432496D01*
X376055Y419504D02*
X382945D01*
X386055D02*
Y432496D01*
X392945D01*
Y419504D02*
Y432496D01*
X386055Y419504D02*
X392945D01*
X396055Y436504D02*
X402945D01*
Y449496D01*
X396055D02*
X402945D01*
X396055Y436504D02*
Y449496D01*
X376055Y436504D02*
X382945D01*
Y449496D01*
X376055D02*
X382945D01*
X376055Y436504D02*
Y449496D01*
X386055Y436504D02*
X392945D01*
Y449496D01*
X386055D02*
X392945D01*
X386055Y436504D02*
Y449496D01*
X446055Y419504D02*
X452945D01*
Y432496D01*
X446055D02*
X452945D01*
X446055Y419504D02*
Y432496D01*
X456055Y436504D02*
X462945D01*
Y449496D01*
X456055D02*
X462945D01*
X456055Y436504D02*
Y449496D01*
X436055Y436504D02*
X442945D01*
Y449496D01*
X436055D02*
X442945D01*
X436055Y436504D02*
Y449496D01*
X426055Y436504D02*
X432945D01*
Y449496D01*
X426055D02*
X432945D01*
X426055Y436504D02*
Y449496D01*
X446055Y436504D02*
X452945D01*
Y449496D01*
X446055D02*
X452945D01*
X446055Y436504D02*
Y449496D01*
X620767Y492083D02*
X624507D01*
X620767Y485193D02*
Y492083D01*
Y485193D02*
X624507D01*
Y492083D01*
X612267D02*
X616007D01*
X612267Y485193D02*
Y492083D01*
Y485193D02*
X616007D01*
Y492083D01*
M02*
