G04*
G04 #@! TF.GenerationSoftware,Altium Limited,Altium Designer,22.0.2 (36)*
G04*
G04 Layer_Color=32768*
%FSLAX25Y25*%
%MOIN*%
G70*
G04*
G04 #@! TF.SameCoordinates,8DF1FA55-F0BE-4FEE-A998-D7D1BBD61996*
G04*
G04*
G04 #@! TF.FilePolarity,Positive*
G04*
G01*
G75*
%ADD14C,0.00197*%
%ADD112C,0.00394*%
D14*
X425606Y271500D02*
X425586Y272497D01*
X425526Y273493D01*
X425425Y274485D01*
X425283Y275472D01*
X425103Y276453D01*
X424882Y277426D01*
X424622Y278389D01*
X424324Y279341D01*
X423987Y280279D01*
X423612Y281204D01*
X423200Y282112D01*
X422752Y283003D01*
X422268Y283875D01*
X421749Y284727D01*
X421196Y285557D01*
X420610Y286364D01*
X419991Y287146D01*
X419342Y287903D01*
X418662Y288633D01*
X417953Y289335D01*
X417216Y290007D01*
X416453Y290649D01*
X415664Y291259D01*
X414851Y291837D01*
X414016Y292382D01*
X413159Y292892D01*
X412282Y293368D01*
X411386Y293807D01*
X410474Y294209D01*
X409546Y294575D01*
X408604Y294902D01*
X407649Y295191D01*
X406684Y295441D01*
X405709Y295652D01*
X404726Y295823D01*
X403737Y295954D01*
X402744Y296044D01*
X401748Y296095D01*
X400751Y296105D01*
X399754Y296075D01*
X398759Y296004D01*
X397768Y295893D01*
X396782Y295742D01*
X395803Y295551D01*
X394832Y295321D01*
X393872Y295051D01*
X392923Y294743D01*
X391988Y294397D01*
X391068Y294013D01*
X390163Y293592D01*
X389277Y293134D01*
X388410Y292641D01*
X387564Y292114D01*
X386739Y291552D01*
X385938Y290958D01*
X385162Y290332D01*
X384412Y289674D01*
X383689Y288987D01*
X382995Y288271D01*
X382330Y287528D01*
X381696Y286758D01*
X381093Y285963D01*
X380523Y285145D01*
X379987Y284304D01*
X379486Y283441D01*
X379019Y282560D01*
X378589Y281660D01*
X378196Y280743D01*
X377840Y279812D01*
X377522Y278866D01*
X377243Y277909D01*
X377003Y276941D01*
X376802Y275964D01*
X376641Y274979D01*
X376520Y273989D01*
X376439Y272995D01*
X376399Y271999D01*
Y271001D01*
X376439Y270005D01*
X376520Y269011D01*
X376641Y268021D01*
X376802Y267036D01*
X377003Y266059D01*
X377243Y265091D01*
X377522Y264134D01*
X377840Y263188D01*
X378196Y262257D01*
X378589Y261340D01*
X379019Y260440D01*
X379486Y259559D01*
X379987Y258696D01*
X380523Y257855D01*
X381093Y257037D01*
X381696Y256242D01*
X382330Y255472D01*
X382995Y254729D01*
X383689Y254013D01*
X384412Y253326D01*
X385162Y252668D01*
X385938Y252042D01*
X386739Y251448D01*
X387564Y250886D01*
X388410Y250358D01*
X389277Y249866D01*
X390164Y249408D01*
X391068Y248987D01*
X391988Y248603D01*
X392924Y248257D01*
X393872Y247949D01*
X394832Y247679D01*
X395803Y247449D01*
X396782Y247258D01*
X397768Y247107D01*
X398759Y246996D01*
X399754Y246925D01*
X400751Y246895D01*
X401748Y246905D01*
X402744Y246956D01*
X403737Y247046D01*
X404726Y247178D01*
X405709Y247348D01*
X406684Y247559D01*
X407649Y247809D01*
X408604Y248098D01*
X409546Y248425D01*
X410474Y248791D01*
X411386Y249193D01*
X412282Y249633D01*
X413159Y250108D01*
X414016Y250618D01*
X414851Y251163D01*
X415664Y251741D01*
X416453Y252351D01*
X417216Y252993D01*
X417953Y253665D01*
X418662Y254367D01*
X419342Y255097D01*
X419991Y255854D01*
X420610Y256636D01*
X421196Y257443D01*
X421749Y258273D01*
X422268Y259125D01*
X422752Y259997D01*
X423200Y260888D01*
X423612Y261796D01*
X423987Y262721D01*
X424324Y263659D01*
X424622Y264611D01*
X424882Y265574D01*
X425103Y266547D01*
X425283Y267528D01*
X425425Y268515D01*
X425526Y269507D01*
X425586Y270503D01*
X425606Y271500D01*
X638626Y282673D02*
Y304327D01*
X669374Y282673D02*
Y304327D01*
X638626D02*
X669374D01*
X638626Y282673D02*
X669374D01*
X683209Y237425D02*
Y268173D01*
X661555Y237425D02*
Y268173D01*
X683209D01*
X661555Y237425D02*
X683209D01*
X453815Y294138D02*
Y305673D01*
X448185Y294138D02*
Y305673D01*
Y294138D02*
X453815D01*
X448185Y305673D02*
X453815D01*
X474969Y262949D02*
Y280744D01*
X466032Y262949D02*
Y280744D01*
Y262949D02*
X474969D01*
X466032Y280744D02*
X474969D01*
X381846Y217606D02*
Y233394D01*
X420154Y217606D02*
Y233394D01*
X381846D02*
X420154D01*
X381846Y217606D02*
X420154D01*
X581811Y341575D02*
Y378425D01*
Y341575D02*
X608189D01*
Y378425D01*
X581811D02*
X608189D01*
X536268Y455764D02*
X568945D01*
X536268Y497102D02*
X568945D01*
X536268Y455764D02*
Y497102D01*
X568945Y455764D02*
Y497102D01*
X524194Y480106D02*
Y500894D01*
X483406Y480106D02*
X524194D01*
X483406Y500894D02*
X524194D01*
X483406Y480106D02*
Y500894D01*
X648346Y208606D02*
X686654D01*
X648346Y224394D02*
X686654D01*
Y208606D02*
Y224394D01*
X648346Y208606D02*
Y224394D01*
X579776Y262130D02*
Y269870D01*
X593224Y262130D02*
Y269870D01*
X579776Y262130D02*
X593224D01*
X579776Y269870D02*
X593224D01*
X613409Y290303D02*
Y330697D01*
Y290303D02*
X624591D01*
Y330697D01*
X613409D02*
X624591D01*
X604121Y394362D02*
Y446331D01*
X582153D02*
X604121D01*
X582153Y394362D02*
Y446331D01*
Y394362D02*
X604121D01*
X653406Y232047D02*
Y237953D01*
X641594Y232047D02*
Y237953D01*
Y232047D02*
X653406D01*
X641594Y237953D02*
X653406D01*
X571185Y258362D02*
X576815D01*
X571185Y246827D02*
X576815D01*
X571185D02*
Y258362D01*
X576815Y246827D02*
Y258362D01*
X658661Y240032D02*
Y248969D01*
X640866Y240032D02*
Y248969D01*
X658661D01*
X640866Y240032D02*
X658661D01*
Y261032D02*
Y269969D01*
X640866Y261032D02*
Y269969D01*
X658661D01*
X640866Y261032D02*
X658661D01*
X640866Y250532D02*
Y259469D01*
X658661Y250532D02*
Y259469D01*
X640866Y250532D02*
X658661D01*
X640866Y259469D02*
X658661D01*
X609311Y238360D02*
Y259640D01*
X580138Y238360D02*
Y259640D01*
Y238360D02*
X609311D01*
X580138Y259640D02*
X609311D01*
X538232Y438685D02*
Y444315D01*
X549768Y438685D02*
Y444315D01*
X538232Y438685D02*
X549768D01*
X538232Y444315D02*
X549768D01*
X568075Y415217D02*
Y436870D01*
X537327Y415217D02*
Y436870D01*
Y415217D02*
X568075D01*
X537327Y436870D02*
X568075D01*
X457606Y305898D02*
X463394D01*
X457606Y294205D02*
X463394D01*
X457606D02*
Y305898D01*
X463394Y294205D02*
Y305898D01*
X465406D02*
X471193D01*
X465406Y294205D02*
X471193D01*
X465406D02*
Y305898D01*
X471193Y294205D02*
Y305898D01*
X633346Y419055D02*
Y451732D01*
X674685Y419055D02*
Y451732D01*
X633346D02*
X674685D01*
X633346Y419055D02*
X674685D01*
X619118Y457382D02*
Y472618D01*
X588882Y457382D02*
Y472618D01*
X619118D01*
X588882Y457382D02*
X619118D01*
X639586Y455882D02*
Y471118D01*
X669823Y455882D02*
Y471118D01*
X639586Y455882D02*
X669823D01*
X639586Y471118D02*
X669823D01*
X687685Y248768D02*
X693315D01*
X687685Y237232D02*
X693315D01*
X687685D02*
Y248768D01*
X693315Y237232D02*
Y248768D01*
X639732Y274685D02*
Y280315D01*
X651268Y274685D02*
Y280315D01*
X639732Y274685D02*
X651268D01*
X639732Y280315D02*
X651268D01*
X484185Y417362D02*
X489815D01*
X484185Y405827D02*
X489815D01*
X484185D02*
Y417362D01*
X489815Y405827D02*
Y417362D01*
X538539Y405339D02*
Y410969D01*
X550075Y405339D02*
Y410969D01*
X538539Y405339D02*
X550075D01*
X538539Y410969D02*
X550075D01*
X568075Y381717D02*
Y403370D01*
X537327Y381717D02*
Y403370D01*
Y381717D02*
X568075D01*
X537327Y403370D02*
X568075D01*
X409685Y332020D02*
X415315D01*
X409685Y343555D02*
X415315D01*
Y332020D02*
Y343555D01*
X409685Y332020D02*
Y343555D01*
X461185Y343768D02*
X466815D01*
X461185Y332232D02*
X466815D01*
X461185D02*
Y343768D01*
X466815Y332232D02*
Y343768D01*
X428126Y344327D02*
X458874D01*
X428126Y322673D02*
X458874D01*
X428126D02*
Y344327D01*
X458874Y322673D02*
Y344327D01*
X522055Y220768D02*
Y359232D01*
X559945Y220768D02*
Y359232D01*
X522055Y220768D02*
X559945D01*
X522055Y359232D02*
X559945D01*
X516032Y450795D02*
X524969D01*
X516032Y433000D02*
X524969D01*
X516032D02*
Y450795D01*
X524969Y433000D02*
Y450795D01*
X495032D02*
X503969D01*
X495032Y433000D02*
X503969D01*
X495032D02*
Y450795D01*
X503969Y433000D02*
Y450795D01*
X505532D02*
X514469D01*
X505532Y433000D02*
X514469D01*
X505532D02*
Y450795D01*
X514469Y433000D02*
Y450795D01*
X484532D02*
X493469D01*
X484532Y433000D02*
X493469D01*
X484532D02*
Y450795D01*
X493469Y433000D02*
Y450795D01*
X415185Y402768D02*
X420815D01*
X415185Y391232D02*
X420815D01*
X415185D02*
Y402768D01*
X420815Y391232D02*
Y402768D01*
X467685D02*
X473315D01*
X467685Y391232D02*
X473315D01*
X467685D02*
Y402768D01*
X473315Y391232D02*
Y402768D01*
X373122Y479417D02*
Y501583D01*
Y479417D02*
X465878D01*
Y501583D01*
X373122D02*
X465878D01*
X419500Y488532D02*
Y492469D01*
X417532Y490500D02*
X421469D01*
X377626Y344114D02*
X408374D01*
X377626Y322461D02*
X408374D01*
X377626D02*
Y344114D01*
X408374Y322461D02*
Y344114D01*
X427354Y398654D02*
X464362D01*
X427354Y355346D02*
X464362D01*
X427354D02*
Y398654D01*
X464362Y355346D02*
Y398654D01*
X374638D02*
X411646D01*
X374638Y355346D02*
X411646D01*
X374638D02*
Y398654D01*
X411646Y355346D02*
Y398654D01*
X588322Y482870D02*
Y494405D01*
X593952Y482870D02*
Y494405D01*
X588322D02*
X593952D01*
X588322Y482870D02*
X593952D01*
X595322D02*
X600952D01*
X595322Y494405D02*
X600952D01*
Y482870D02*
Y494405D01*
X595322Y482870D02*
Y494405D01*
X602822Y482870D02*
X608452D01*
X602822Y494405D02*
X608452D01*
Y482870D02*
Y494405D01*
X602822Y482870D02*
Y494405D01*
X575268Y288185D02*
Y293815D01*
X563732Y288185D02*
Y293815D01*
X575268D01*
X563732Y288185D02*
X575268D01*
Y297685D02*
Y303315D01*
X563732Y297685D02*
Y303315D01*
X575268D01*
X563732Y297685D02*
X575268D01*
X410102Y310469D02*
X427898D01*
X410102Y301532D02*
X427898D01*
Y310469D01*
X410102Y301532D02*
Y310469D01*
X671189Y486394D02*
X672764D01*
Y495606D01*
X671189D02*
X672764D01*
X671189D02*
Y497811D01*
X634811D02*
X671189D01*
X634811Y495606D02*
Y497811D01*
X633236Y495606D02*
X634811D01*
X633236Y486394D02*
Y495606D01*
Y486394D02*
X634811D01*
Y482929D02*
Y486394D01*
Y482929D02*
X671189D01*
Y486394D01*
X493126Y270276D02*
Y297441D01*
X508874D01*
Y270276D02*
Y297441D01*
X493126Y270276D02*
X508874D01*
X638780Y351606D02*
Y372394D01*
X679567D01*
X638780Y351606D02*
X679567D01*
Y372394D01*
X637224Y385614D02*
X670492D01*
Y407386D01*
X637224D02*
X670492D01*
X637224Y385614D02*
Y407386D01*
X478469Y356516D02*
Y374311D01*
X469532Y356516D02*
Y374311D01*
Y356516D02*
X478469D01*
X469532Y374311D02*
X478469D01*
X618169Y425602D02*
Y443398D01*
X627106Y425602D02*
Y443398D01*
X618169D02*
X627106D01*
X618169Y425602D02*
X627106D01*
X684315Y425677D02*
Y437213D01*
X678685Y425677D02*
Y437213D01*
Y425677D02*
X684315D01*
X678685Y437213D02*
X684315D01*
D112*
X399032Y225500D02*
X402969D01*
X401000Y223532D02*
Y227469D01*
X501831Y490500D02*
X505768D01*
X503800Y488532D02*
Y492469D01*
X667500Y214532D02*
Y218469D01*
X665531Y216500D02*
X669468D01*
X645610Y235000D02*
X649390D01*
X647500Y233110D02*
Y236890D01*
X659173Y360032D02*
Y363969D01*
X657205Y362000D02*
X661142D01*
M02*
